<svg width="64" height="64" viewBox="0 0 64 64" fill="none" xmlns="http://www.w3.org/2000/svg">
<rect width="64" height="64" rx="10" fill="#CFF3E2"/>
<path d="M32.4691 13C15.1142 13.4532 15.1142 38.8642 32.4691 39.3175C49.824 38.8642 49.824 13.4532 32.4691 13ZM35.3933 30.545C34.4576 30.7204 32.089 27.6208 31.4311 27.1968C30.7731 26.7728 31.1533 19.5501 31.007 18.8483C31.007 18.4606 31.1611 18.0887 31.4353 17.8145C31.7095 17.5403 32.0814 17.3862 32.4691 17.3862C32.8569 17.3862 33.2288 17.5403 33.503 17.8145C33.7772 18.0887 33.9312 18.4606 33.9312 18.8483V25.5593L36.4314 28.0448C36.6376 28.2493 36.7782 28.5106 36.8353 28.7953C36.8924 29.0801 36.8635 29.3754 36.7521 29.6436C36.6407 29.9118 36.452 30.1407 36.21 30.3013C35.968 30.4618 35.6837 30.5467 35.3933 30.545ZM51.4762 48.0899C50.9066 48.127 50.3352 48.127 49.7655 48.0899C49.4611 48.9417 48.9009 49.6785 48.1615 50.1994C47.422 50.7204 46.5397 51 45.6352 51C44.7307 51 43.8483 50.7204 43.1089 50.1994C42.3695 49.6785 41.8092 48.9417 41.5048 48.0899H36.5922C36.2849 48.9367 35.7243 49.6683 34.9866 50.1853C34.2489 50.7023 33.3699 50.9797 32.4691 50.9797C31.5683 50.9797 30.6893 50.7023 29.9517 50.1853C29.214 49.6683 28.6534 48.9367 28.3461 48.0899H23.4335C23.1261 48.9367 22.5655 49.6683 21.8279 50.1853C21.0902 50.7023 20.2112 50.9797 19.3104 50.9797C18.4096 50.9797 17.5306 50.7023 16.7929 50.1853C16.0553 49.6683 15.4947 48.9367 15.1873 48.0899C14.0177 48.0899 12 48.3531 12 46.6279C12 44.9026 14.0177 45.1658 15.1873 45.1658C15.4947 44.319 16.0553 43.5874 16.7929 43.0704C17.5306 42.5534 18.4096 42.276 19.3104 42.276C20.2112 42.276 21.0902 42.5534 21.8279 43.0704C22.5655 43.5874 23.1261 44.319 23.4335 45.1658H28.3461C28.6534 44.319 29.214 43.5874 29.9517 43.0704C30.6893 42.5534 31.5683 42.276 32.4691 42.276C33.3699 42.276 34.2489 42.5534 34.9866 43.0704C35.7243 43.5874 36.2849 44.319 36.5922 45.1658H41.5048C41.8092 44.314 42.3695 43.5772 43.1089 43.0563C43.8483 42.5353 44.7307 42.2557 45.6352 42.2557C46.5397 42.2557 47.422 42.5353 48.1615 43.0563C48.9009 43.5772 49.4611 44.314 49.7655 45.1658C50.3354 45.136 50.9064 45.136 51.4762 45.1658C51.8639 45.1658 52.2358 45.3198 52.51 45.594C52.7842 45.8682 52.9383 46.2401 52.9383 46.6279C52.9383 47.0156 52.7842 47.3875 52.51 47.6617C52.2358 47.9359 51.8639 48.0899 51.4762 48.0899Z" fill="#1E1A17"/>
</svg>
