<svg width="64" height="64" viewBox="0 0 64 64" fill="none" xmlns="http://www.w3.org/2000/svg">
<rect width="64" height="64" rx="10" fill="#CFF3E2"/>
<path d="M41.1279 44.7418L39.9785 40.6745C31.3764 48.2798 24.2216 41.2783 22.9173 39.2679L23.5805 38.8584C23.7245 38.7692 23.8419 38.643 23.9205 38.4929C23.999 38.3429 24.0359 38.1744 24.0271 38.0053C24.0182 37.8362 23.964 37.6726 23.8703 37.5315C23.7766 37.3905 23.6467 37.2773 23.4942 37.2036L17.5453 34.336C17.4177 34.274 17.2777 34.2418 17.1358 34.2418C16.9604 34.242 16.7885 34.291 16.6393 34.3833C16.5043 34.4665 16.3923 34.5824 16.314 34.7203C16.2356 34.8582 16.1932 35.0136 16.1909 35.1722L16.0896 41.7759C16.0871 41.9452 16.1301 42.1121 16.2141 42.2591C16.2982 42.4061 16.4201 42.5279 16.5673 42.6116C16.7147 42.6952 16.8818 42.7376 17.0512 42.7344C17.2206 42.7313 17.3861 42.6827 17.5303 42.5937L17.8475 42.3977C23.3017 51.2458 35.8199 52.1128 42.5954 46.3361C41.8845 46.0591 41.3372 45.4841 41.1279 44.7418ZM21.0421 34.3641C20.3422 30.5726 22.8592 22.862 31.2124 21.9538V22.0545C31.2125 22.3049 31.3121 22.5451 31.4891 22.7221C31.6662 22.8992 31.9063 22.9987 32.1567 22.9988C32.3369 22.9989 32.5134 22.9473 32.6653 22.8502L38.2309 19.2961C38.3646 19.2107 38.4747 19.093 38.551 18.9539C38.6272 18.8148 38.6673 18.6587 38.6673 18.5C38.6674 18.3414 38.6275 18.1853 38.5513 18.0461C38.4751 17.9069 38.3651 17.7892 38.2315 17.7037L32.6651 14.1487C32.5224 14.0574 32.3577 14.0062 32.1884 14.0005C32.0191 13.9948 31.8513 14.0348 31.7028 14.1163C31.5543 14.1977 31.4304 14.3175 31.3442 14.4632C31.2579 14.6089 31.2123 14.7751 31.2123 14.9444V15.9852C23.0988 15.9505 14.4694 23.6211 15.0255 33.9672C15.0255 33.9672 16.2815 32.7489 17.1359 32.7489C17.8544 32.7489 17.9829 32.8896 21.0421 34.3641ZM49.4096 39.5838C49.3747 39.418 49.2958 39.2647 49.1812 39.1399C49.0666 39.0151 48.9206 38.9235 48.7584 38.8745L48.0775 38.6689C50.0801 33.063 49.43 23.3914 40.0961 17.9889C40.1314 18.1555 40.1602 18.3246 40.1602 18.4997C40.1612 18.9094 40.0585 19.3126 39.8616 19.6719C39.6647 20.0311 39.3801 20.3347 39.0342 20.5543L35.82 22.6067C38.6674 23.4285 45.1749 28.5019 42.3588 36.9433L41.9511 36.8204C41.8626 36.7936 41.7707 36.7799 41.6782 36.7796C41.4309 36.7798 41.1934 36.8771 41.0171 37.0506C40.8961 37.1692 40.8093 37.3182 40.7658 37.4819C40.7222 37.6456 40.7234 37.818 40.7694 37.9811L42.5644 44.3358C42.6075 44.4884 42.6883 44.6276 42.7994 44.7408C42.9104 44.854 43.0482 44.9374 43.1999 44.9834C43.3518 45.0289 43.5127 45.0356 43.6678 45.0028C43.823 44.97 43.9674 44.8987 44.0878 44.7956L49.1002 40.4956C49.2288 40.3853 49.3255 40.2425 49.3799 40.0821C49.4343 39.9217 49.4446 39.7495 49.4096 39.5838Z" fill="#1E1A17"/>
</svg>
