<svg width="64" height="64" viewBox="0 0 64 64" fill="none" xmlns="http://www.w3.org/2000/svg">
<rect width="64" height="64" rx="10" fill="#CFF3E2"/>
<path d="M43.8796 38.851L35.7954 42.3573C35.8392 42.5947 35.8618 42.8354 35.8632 43.0768C35.8563 44.1844 35.4102 45.2441 34.6229 46.0232C33.8356 46.8023 32.7714 47.2373 31.6638 47.2327H24.2749C24.0914 47.2327 23.9154 47.1598 23.7857 47.0301C23.6559 46.9003 23.583 46.7244 23.583 46.5409C23.583 46.3574 23.6559 46.1814 23.7857 46.0517C23.9154 45.9219 24.0914 45.849 24.2749 45.849H31.6638C32.0314 45.8548 32.3964 45.7874 32.7377 45.6508C33.0791 45.5141 33.3898 45.3109 33.6518 45.053C33.9138 44.7951 34.1219 44.4877 34.2639 44.1486C34.4059 43.8095 34.4791 43.4455 34.4791 43.0779C34.4791 42.7102 34.4059 42.3462 34.2639 42.0071C34.1219 41.668 33.9138 41.3606 33.6518 41.1027C33.3898 40.8448 33.0791 40.6416 32.7377 40.5049C32.3964 40.3683 32.0314 40.3009 31.6638 40.3067H25.5562C24.8792 40.3654 24.1981 40.26 23.5706 39.9995C21.4529 38.9527 19.1407 38.3576 16.7808 38.2519V36.8433C16.7808 36.6598 16.7079 36.4838 16.5782 36.3541C16.4485 36.2244 16.2725 36.1515 16.089 36.1515H11.9379C11.7544 36.1515 11.5785 36.2244 11.4487 36.3541C11.319 36.4838 11.2461 36.6598 11.2461 36.8433V52.0639C11.2461 52.2473 11.319 52.4233 11.4487 52.5531C11.5785 52.6828 11.7544 52.7557 11.9379 52.7557H16.089C16.2725 52.7557 16.4485 52.6828 16.5782 52.5531C16.7079 52.4233 16.7808 52.2473 16.7808 52.0639V50.9728C16.7808 50.9728 28.6113 52.0639 28.8535 52.0639C29.5788 52.0676 30.2898 51.8622 30.9014 51.4723L46.1551 42.9426C46.6362 42.6324 46.9859 42.1557 47.1372 41.6036C47.2885 41.0516 47.2307 40.4631 46.9749 39.9511C46.6984 39.4058 46.223 38.9876 45.6469 38.783C45.0708 38.5784 44.4381 38.6023 43.8796 38.851ZM22.9203 24.3901C22.7956 24.8684 22.5456 25.3047 22.1961 25.6541C21.8466 26.0035 21.4102 26.2533 20.9319 26.3778V28.6291C21.4102 28.7535 21.8466 29.0034 22.1961 29.3528C22.5456 29.7022 22.7956 30.1385 22.9203 30.6167H38.3151C38.4398 30.1385 38.6898 29.7022 39.0393 29.3528C39.3888 29.0034 39.8252 28.7535 40.3035 28.6291V26.3785C39.8522 26.2583 39.439 26.025 39.1031 25.7005L37.5624 27.2412C36.7812 27.9908 35.7435 28.4142 34.6608 28.425C33.6159 28.4133 32.6168 27.9943 31.8762 27.2571C31.4861 26.8899 31.1772 26.4451 30.9694 25.9513C30.7616 25.4576 30.6595 24.9258 30.6696 24.3901H22.9203Z" fill="#1E1A17"/>
<path d="M44.4511 22.7834C43.658 22.9716 42.8309 22.9629 42.0421 22.7578L40.0765 24.7233C40.327 24.9515 40.653 25.0792 40.9918 25.0817C41.1753 25.0817 41.3513 25.1546 41.4811 25.2843C41.6108 25.4141 41.6837 25.59 41.6837 25.7735V29.2327C41.6837 29.4162 41.6108 29.5922 41.4811 29.7219C41.3513 29.8517 41.1753 29.9246 40.9918 29.9246C40.625 29.9249 40.2732 30.0708 40.0138 30.3302C39.7544 30.5897 39.6085 30.9414 39.6082 31.3083C39.6082 31.4917 39.5353 31.6677 39.4055 31.7975C39.2758 31.9272 39.0998 32.0001 38.9163 32.0001H22.3121C22.1286 32.0001 21.9526 31.9272 21.8229 31.7975C21.6931 31.6677 21.6202 31.4917 21.6202 31.3083C21.6199 30.9414 21.474 30.5897 21.2146 30.3302C20.9552 30.0708 20.6034 29.9249 20.2366 29.9246C20.0531 29.9246 19.8771 29.8517 19.7474 29.7219C19.6176 29.5922 19.5447 29.4162 19.5447 29.2327V25.7735C19.5447 25.59 19.6176 25.4141 19.7474 25.2843C19.8771 25.1546 20.0531 25.0817 20.2366 25.0817C20.6034 25.0813 20.9552 24.9354 21.2146 24.676C21.474 24.4166 21.6199 24.0648 21.6202 23.698C21.6202 23.5145 21.6931 23.3385 21.8229 23.2088C21.9526 23.079 22.1286 23.0061 22.3121 23.0061H30.9421C31.1702 22.4153 31.5187 21.8784 31.9654 21.4294L33.156 20.2388H17.4692C17.2857 20.2388 17.1097 20.3117 16.98 20.4414C16.8502 20.5712 16.7773 20.7471 16.7773 20.9306V34.0756C16.7773 34.2591 16.8502 34.4351 16.98 34.5648C17.1097 34.6946 17.2857 34.7675 17.4692 34.7675H43.7592C43.9427 34.7675 44.1187 34.6946 44.2484 34.5648C44.3782 34.4351 44.4511 34.2591 44.4511 34.0756V22.7834Z" fill="#1E1A17"/>
<path d="M52.0621 11.2446H49.2947C49.1113 11.2446 48.9353 11.3175 48.8055 11.4473C48.6758 11.577 48.6029 11.753 48.6029 11.9365V12.6283H37.8212C37.2001 12.6266 36.5849 12.748 36.0111 12.9857C35.4372 13.2233 34.9163 13.5724 34.4782 14.0127L29.6367 18.8549H34.5405L36.6997 16.6957C36.8302 16.5696 37.005 16.4999 37.1864 16.5015C37.3678 16.5031 37.5413 16.5758 37.6696 16.7041C37.7979 16.8324 37.8706 17.0059 37.8722 17.1873C37.8738 17.3687 37.804 17.5434 37.678 17.6739L32.9181 22.4338C32.4607 22.8727 32.1614 23.4507 32.0672 24.0776C32.0098 24.4729 32.0482 24.8763 32.1791 25.2537C32.3099 25.6311 32.5294 25.9716 32.8192 26.2465C33.32 26.7398 33.9938 27.0175 34.6967 27.0205C35.3996 27.0235 36.0758 26.7514 36.5807 26.2625L41.6879 21.1567C42.2907 21.4449 42.9578 21.5723 43.6243 21.5264C44.2909 21.4804 44.9342 21.2627 45.4917 20.8945C45.5703 20.8475 45.6574 20.8167 45.748 20.8037C45.8386 20.7907 45.9309 20.7958 46.0195 20.8187C46.1081 20.8417 46.1913 20.8819 46.2642 20.9372C46.3371 20.9925 46.3984 21.0617 46.4444 21.1409C46.4904 21.22 46.5202 21.3075 46.5322 21.3982C46.5441 21.4889 46.5379 21.5812 46.514 21.6695C46.4901 21.7578 46.4488 21.8406 46.3927 21.9128C46.3366 21.9851 46.2666 22.0456 46.187 22.0906C46.0701 22.1585 45.9531 22.2166 45.8355 22.2761V28.3117C46.8154 27.8524 47.7432 27.2892 48.6029 26.6319V27.157C48.6029 27.3405 48.6758 27.5165 48.8055 27.6462C48.9353 27.776 49.1113 27.8489 49.2947 27.8489H52.0621C52.2456 27.8489 52.4216 27.776 52.5513 27.6462C52.6811 27.5165 52.754 27.3405 52.754 27.157V11.9365C52.754 11.753 52.6811 11.577 52.5513 11.4473C52.4216 11.3175 52.2456 11.2446 52.0621 11.2446Z" fill="#1E1A17"/>
</svg>
