<svg width="64" height="64" viewBox="0 0 64 64" fill="none" xmlns="http://www.w3.org/2000/svg">
<rect width="64" height="64" rx="10" fill="#CFF3E2"/>
<path d="M16.4756 26.3594H23.8681V28.0988C23.8681 28.4569 23.5744 28.7513 23.2162 28.7513H22.3462V41.6181H23.2162C23.5744 41.6181 23.8681 41.9056 23.8681 42.27V44.01H16.4756V42.27C16.4756 41.9056 16.7694 41.6181 17.1281 41.6181H17.9975V28.7513H17.1287C16.7706 28.7513 16.4762 28.4569 16.4762 28.0988L16.4756 26.3594ZM28.025 26.3594H35.4181V28.0988C35.4181 28.4569 35.1237 28.7513 34.7656 28.7513H33.8956V41.6181H34.7656C35.1237 41.6181 35.4181 41.9056 35.4181 42.27V44.01H28.025V42.27C28.025 41.9056 28.3187 41.6181 28.6775 41.6181H29.5469V28.7513H28.6775C28.3194 28.7513 28.025 28.4569 28.025 28.0988V26.3594ZM45.4456 41.6181H46.315C46.6731 41.6181 46.9675 41.9056 46.9675 42.27V44.01H39.5744V42.27C39.5744 41.9056 39.8687 41.6181 40.2269 41.6181H41.0975V28.7513H40.2275C39.8694 28.7513 39.575 28.4569 39.575 28.0988V26.3594H46.9681V28.0988C46.9681 28.4569 46.6744 28.7513 46.3156 28.7513H45.4462L45.4456 41.6181ZM49.1737 46.075V47.7506H14.2756V46.0756C14.2756 45.6406 14.6275 45.2888 15.0625 45.2888H48.3875C48.8219 45.2888 49.1737 45.64 49.1737 46.075ZM51.4456 51.2119V49.815C51.4456 49.38 51.0925 49.0275 50.6575 49.0275H12.7875C12.3525 49.0275 12 49.38 12 49.815V51.2119C12 51.6469 12.3525 52 12.7875 52H50.6575C51.0925 52 51.4456 51.6469 51.4456 51.2119ZM30.9437 12.2L14.0319 21.4356C13.78 21.5731 13.6231 21.8375 13.6231 22.1244V24.2956C13.6231 24.7288 13.9744 25.08 14.4081 25.08H49.0412C49.475 25.08 49.8262 24.7288 49.8262 24.2956V22.1244C49.8262 21.8369 49.6694 21.5731 49.4175 21.4356L32.5112 12.2C32.2709 12.0688 32.0014 12 31.7275 12C31.4536 12 31.1841 12.0688 30.9437 12.2ZM31.7275 21.6025C31.0464 21.602 30.3933 21.3312 29.9117 20.8496C29.43 20.368 29.1592 19.7149 29.1587 19.0338C29.1596 18.3528 29.4305 17.7001 29.9121 17.2187C30.3937 16.7374 31.0466 16.4668 31.7275 16.4663C33.1381 16.4663 34.2837 17.6175 34.2837 19.0344C34.2837 20.4506 33.1381 21.6025 31.7275 21.6025Z" fill="#1E1A17"/>
</svg>
