<svg width="64" height="64" viewBox="0 0 64 64" fill="none" xmlns="http://www.w3.org/2000/svg">
<rect width="64" height="64" rx="10" fill="#CFF3E2"/>
<path d="M51 28.5208V34.8542C51 36.6009 49.5801 38.0208 47.8333 38.0208H46.972C45.7598 45.1978 39.5177 50.6875 32 50.6875C31.6641 50.6875 31.3419 50.554 31.1043 50.3165C30.8668 50.079 30.7333 49.7568 30.7333 49.4208C30.7333 49.0849 30.8668 48.7627 31.1043 48.5252C31.3419 48.2876 31.6641 48.1542 32 48.1542C38.9844 48.1542 44.6667 42.4719 44.6667 35.4875V27.8875C44.6667 20.9031 38.9844 15.2208 32 15.2208C25.0156 15.2208 19.3333 20.9031 19.3333 27.8875V36.7542C19.3333 37.0901 19.1999 37.4123 18.9623 37.6498C18.7248 37.8874 18.4026 38.0208 18.0667 38.0208H16.1667C15.327 38.0202 14.522 37.6863 13.9282 37.0926C13.3345 36.4989 13.0007 35.6938 13 34.8542V28.5208C13 26.7741 14.4199 25.3542 16.1667 25.3542H17.028C18.2415 18.1772 24.4836 12.6875 32 12.6875C39.5164 12.6875 45.7598 18.1772 46.972 25.3542H47.8333C49.5801 25.3542 51 26.7741 51 28.5208ZM32 17.7542C26.4127 17.7542 21.8667 22.3002 21.8667 27.8875V34.2208C21.8667 39.8081 26.4127 44.3542 32 44.3542C37.5873 44.3542 42.1333 39.8081 42.1333 34.2208V27.8875C42.1333 22.3002 37.5873 17.7542 32 17.7542Z" fill="black"/>
</svg>
