<svg width="64" height="64" viewBox="0 0 64 64" fill="none" xmlns="http://www.w3.org/2000/svg">
<rect width="64" height="64" rx="10" fill="#CFF3E2"/>
<path d="M47.5449 43.8296H41.8177C38.2087 43.8296 35.2724 40.8933 35.2724 37.2843C35.2724 33.6752 38.2087 30.739 41.8177 30.739H47.5449C47.6524 30.739 47.7588 30.7179 47.8581 30.6768C47.9574 30.6357 48.0477 30.5755 48.1237 30.4995C48.1996 30.4235 48.2599 30.3333 48.301 30.234C48.3421 30.1347 48.3632 30.0282 48.3631 29.9208V27.4663C48.3631 25.7506 47.0323 24.3552 45.3509 24.2199L40.6521 16.0127C40.2166 15.2536 39.5135 14.7111 38.6721 14.4858C37.8348 14.2621 36.9591 14.3796 36.2097 14.8158L20.1017 24.1936H17.2727C15.4678 24.1936 14 25.6613 14 27.4663V47.1023C14 48.9072 15.4677 50.375 17.2727 50.375H45.0904C46.8954 50.375 48.3631 48.9073 48.3631 47.1023V44.6478C48.3632 44.5403 48.3421 44.4339 48.301 44.3346C48.2599 44.2353 48.1996 44.1451 48.1237 44.0691C48.0477 43.9931 47.9574 43.9328 47.8581 43.8917C47.7588 43.8506 47.6524 43.8295 47.5449 43.8296ZM41.6668 21.0797L43.4495 24.1936H36.3184L41.6668 21.0797ZM23.354 24.1936L37.0334 16.23C37.4033 16.0135 37.8355 15.9559 38.2487 16.0662C38.6665 16.1781 39.0149 16.4481 39.2315 16.826L39.2332 16.829L26.584 24.1936H23.354Z" fill="black"/>
<path d="M47.5464 32.3752H41.8192C39.1122 32.3752 36.9102 34.5772 36.9102 37.2843C36.9102 39.9913 39.1122 42.1933 41.8192 42.1933H47.5464C48.8999 42.1933 50.0009 41.0923 50.0009 39.7388V34.8298C50.0009 33.4762 48.8999 32.3752 47.5464 32.3752ZM41.8192 38.9206C40.9171 38.9206 40.1829 38.1863 40.1829 37.2843C40.1829 36.3822 40.9171 35.6479 41.8192 35.6479C42.7212 35.6479 43.4555 36.3822 43.4555 37.2843C43.4556 38.1863 42.7213 38.9206 41.8192 38.9206Z" fill="black"/>
</svg>
