<svg width="175" height="135" viewBox="0 0 175 135" fill="none" xmlns="http://www.w3.org/2000/svg">
<path d="M13.3256 67.7616C11.6437 55.6824 13.6502 43.0604 19.7369 32.4311C21.7099 28.9848 24.0624 25.7645 26.7842 22.8738C29.8657 19.6015 33.3843 16.7306 36.7385 13.7471C27.4863 21.9815 21.6784 33.5438 20.0295 45.7904C18.373 58.0935 20.8069 71.0247 26.4662 82.0437C32.09 92.9928 40.4667 102.361 50.8651 108.951C61.1933 115.497 73.2742 119.119 85.5215 118.776C96.6612 118.424 107.597 114.693 116.333 107.687C116.988 107.161 117.63 106.619 118.258 106.06C113.838 109.993 109.567 114.162 104.505 117.271C99.8612 120.123 94.7554 122.187 89.4536 123.421C77.7146 126.152 65.2532 124.808 54.1532 120.21C43.0684 115.618 33.3105 107.954 26.0872 98.3636C19.3635 89.4389 14.8666 78.852 13.3256 67.7616Z" fill="#1E1A17"/>
<path opacity="0.5" d="M54.1521 120.209C50.2795 118.605 46.5732 116.617 43.0755 114.311L47.3027 109.833C47.8115 110.175 48.3223 110.516 48.8407 110.845C59.3765 117.522 71.6985 121.217 84.1905 120.867C93.0484 120.587 101.775 118.203 109.414 113.784C107.843 115.033 106.221 116.215 104.504 117.271C99.8602 120.122 94.7543 122.187 89.4526 123.421C77.7136 126.151 65.2521 124.807 54.1521 120.209Z" fill="url(#paint0_linear_1361_620)" fill-opacity="0.5"/>
<path d="M65.3657 1.30915C34.0569 4.60904 14.1132 33.5152 20.8155 65.8784C27.5169 98.2375 58.3255 121.798 89.6348 118.499C120.938 115.199 140.886 86.2884 134.184 53.9298C127.482 21.5656 96.6698 -1.99074 65.3657 1.30915Z" fill="#FEFBF4"/>
<path opacity="0.2" d="M65.5869 2.66627C95.7998 -0.518316 125.54 22.2171 132.007 53.4528C132.506 55.8634 132.852 58.2537 133.051 60.6138C120.374 69.7747 105.069 75.8132 87.8881 77.6244C64.9377 80.0437 42.1363 74.5546 22.2679 63.3025C16.8191 32.754 35.9132 5.79371 65.5869 2.66627Z" fill="#FEFBF4"/>
<mask id="path-5-outside-1_1361_620" maskUnits="userSpaceOnUse" x="18.4805" y="0" width="118" height="120" fill="black">
<rect fill="white" x="18.4805" width="118" height="120"/>
<path d="M71.2428 6.10543C69.4616 6.10543 67.6632 6.19981 65.8978 6.38603C52.6941 7.77782 41.2558 14.2674 33.6891 24.6599C29.7569 30.0597 27.0564 36.2223 25.6635 42.9751C24.2089 50.0218 24.2547 57.3782 25.7998 64.8391C28.5908 78.3152 36.1016 90.7281 46.9492 99.7915C57.6835 108.761 70.7539 113.701 83.7521 113.701C85.5368 113.701 87.3367 113.606 89.1021 113.42C102.304 112.028 113.742 105.538 121.309 95.1447C125.241 89.7439 127.941 83.5813 129.335 76.8285C130.79 69.7813 130.745 62.4265 129.199 54.966C126.409 41.4889 118.897 29.0761 108.049 20.0131C97.3155 11.0456 84.245 6.10594 71.2438 6.10492H71.2428M71.2479 1C100.44 1.00255 127.903 23.5982 134.184 53.9288C140.886 86.2879 120.938 115.199 89.6348 118.498C87.6679 118.705 85.7087 118.807 83.7521 118.807C54.5562 118.807 27.0956 96.2044 20.8155 65.8774C14.1132 33.5142 34.0569 4.60803 65.3657 1.30814C67.3315 1.10151 69.2912 1 71.2479 1Z"/>
</mask>
<path d="M65.8978 6.38603L66.0027 7.38051L66.0027 7.38052L65.8978 6.38603ZM33.6891 24.6599L34.4975 25.2485L34.4974 25.2486L33.6891 24.6599ZM25.6635 42.9751L26.6428 43.1771L26.6428 43.1772L25.6635 42.9751ZM25.7998 64.8391L24.8206 65.0419V65.0419L25.7998 64.8391ZM46.9492 99.7915L47.5904 99.0241L47.5904 99.0241L46.9492 99.7915ZM89.1021 113.42L88.9972 112.426H88.9973L89.1021 113.42ZM121.309 95.1447L122.117 95.7333L122.117 95.7333L121.309 95.1447ZM129.335 76.8285L130.315 77.0306L130.315 77.0307L129.335 76.8285ZM129.199 54.966L128.22 55.1689L128.22 55.1687L129.199 54.966ZM108.049 20.0131L107.408 20.7806L107.408 20.7805L108.049 20.0131ZM71.2438 6.10492V5.10492H71.2439L71.2438 6.10492ZM71.2479 1V0H71.248L71.2479 1ZM134.184 53.9288L133.205 54.1316L133.205 54.1316L134.184 53.9288ZM89.6348 118.498L89.7396 119.493L89.7395 119.493L89.6348 118.498ZM20.8155 65.8774L21.7948 65.6746V65.6746L20.8155 65.8774ZM65.3657 1.30814L65.2608 0.313648L65.2611 0.313618L65.3657 1.30814ZM71.2428 6.10543V7.10543C69.4966 7.10543 67.7331 7.19798 66.0027 7.38051L65.8978 6.38603L65.7929 5.39155C67.5933 5.20164 69.4267 5.10543 71.2428 5.10543V6.10543ZM65.8978 6.38603L66.0027 7.38052C53.0698 8.74375 41.8915 15.0931 34.4975 25.2485L33.6891 24.6599L32.8806 24.0713C40.62 13.4417 52.3184 6.81188 65.793 5.39154L65.8978 6.38603ZM33.6891 24.6599L34.4974 25.2486C30.6519 30.5294 28.008 36.5593 26.6428 43.1771L25.6635 42.9751L24.6841 42.7731C26.1049 35.8852 28.8619 29.59 32.8807 24.0712L33.6891 24.6599ZM25.6635 42.9751L26.6428 43.1772C25.2175 50.0826 25.2599 57.3009 26.779 64.6363L25.7998 64.8391L24.8206 65.0419C23.2495 57.4554 23.2004 49.961 24.6841 42.7729L25.6635 42.9751ZM25.7998 64.8391L26.779 64.6363C29.523 77.885 36.9108 90.1011 47.5904 99.0241L46.9492 99.7915L46.3081 100.559C35.2923 91.355 27.6587 78.7453 24.8206 65.0419L25.7998 64.8391ZM46.9492 99.7915L47.5904 99.0241C58.1596 107.855 71.0068 112.701 83.7521 112.701V113.701V114.701C70.501 114.701 57.2074 109.666 46.3081 100.559L46.9492 99.7915ZM83.7521 113.701V112.701C85.5019 112.701 87.2669 112.608 88.9972 112.426L89.1021 113.42L89.207 114.415C87.4066 114.605 85.5716 114.701 83.7521 114.701V113.701ZM89.1021 113.42L88.9973 112.426C101.928 111.062 113.106 104.713 120.5 94.5561L121.309 95.1447L122.117 95.7333C114.377 106.364 102.68 112.994 89.207 114.415L89.1021 113.42ZM121.309 95.1447L120.5 94.5561C124.346 89.2742 126.99 83.2443 128.356 76.6263L129.335 76.8285L130.315 77.0307C128.893 83.9184 126.136 90.2136 122.117 95.7333L121.309 95.1447ZM129.335 76.8285L128.356 76.6264C129.781 69.7204 129.739 62.5036 128.22 55.1689L129.199 54.966L130.178 54.7631C131.75 62.3493 131.799 69.8422 130.315 77.0306L129.335 76.8285ZM129.199 54.966L128.22 55.1687C125.477 41.9191 118.088 29.7031 107.408 20.7806L108.049 20.0131L108.69 19.2457C119.707 28.4491 127.341 41.0587 130.178 54.7633L129.199 54.966ZM108.049 20.0131L107.408 20.7805C96.8394 11.9509 83.9922 7.10592 71.2437 7.10492L71.2438 6.10492L71.2439 5.10492C84.4979 5.10596 97.7915 10.1402 108.69 19.2457L108.049 20.0131ZM71.2438 6.10492V7.10492H71.2428V6.10492V5.10492H71.2438V6.10492ZM71.2479 1L71.248 0C100.936 0.00259423 128.791 22.9526 135.164 53.726L134.184 53.9288L133.205 54.1316C127.016 24.2438 99.9445 2.00251 71.2478 2L71.2479 1ZM134.184 53.9288L135.164 53.726C141.974 86.6114 121.684 116.126 89.7396 119.493L89.6348 118.498L89.53 117.504C120.193 114.272 139.798 85.9644 133.205 54.1316L134.184 53.9288ZM89.6348 118.498L89.7395 119.493C87.7376 119.703 85.7434 119.807 83.7521 119.807V118.807V117.807C85.674 117.807 87.5983 117.707 89.5301 117.504L89.6348 118.498ZM83.7521 118.807V119.807C54.0603 119.807 26.208 96.8498 19.8363 66.0801L20.8155 65.8774L21.7948 65.6746C27.9832 95.559 55.052 117.807 83.7521 117.807V118.807ZM20.8155 65.8774L19.8363 66.0802C13.025 33.1907 33.3115 3.68105 65.2608 0.313648L65.3657 1.30814L65.4705 2.30263C34.8023 5.53501 15.2014 33.8377 21.7948 65.6746L20.8155 65.8774ZM65.3657 1.30814L65.2611 0.313618C67.2619 0.103318 69.2565 0 71.2479 0V1V2C69.3259 2 67.4011 2.09971 65.4702 2.30266L65.3657 1.30814Z" fill="black" mask="url(#path-5-outside-1_1361_620)"/>
<path d="M68.1664 33.6415C70.5754 29.161 74.2757 26.1414 79.2283 24.6055C82.7029 23.5281 85.9271 23.4233 88.883 24.3252C91.6536 25.1706 94.1508 26.8884 96.378 29.4466L96.8201 29.9699L96.8205 29.9708C97.3511 30.6211 97.2948 31.6415 96.6535 32.2308L96.6539 32.2317L91.3284 37.1126L91.3246 37.1163C91.147 37.2758 90.9367 37.3999 90.7121 37.4697C90.2653 37.6084 89.6892 37.5337 89.3701 36.9927L89.3697 36.9918C88.3551 35.3031 87.2002 34.2183 85.9218 33.6717C84.6486 33.1273 83.1932 33.0912 81.5252 33.6083C79.5452 34.2225 78.1342 35.4572 77.2543 37.2637L77.2529 37.2654C76.3724 39.0578 76.2096 41.4852 76.8082 44.4505C77.1367 46.0768 77.7983 48.0777 78.7611 50.2628L79.1923 51.2106L79.1938 51.2142C79.31 51.4674 79.5009 51.7289 79.7086 51.8976C79.9226 52.0713 80.068 52.084 80.151 52.0583L88.0561 49.6078L88.0579 49.607C88.1143 49.5897 88.1719 49.5711 88.2353 49.55C88.2968 49.5295 88.3649 49.5062 88.4328 49.4853L88.4319 49.4857C88.6183 49.4281 88.9158 49.3422 89.2001 49.3971C89.363 49.4287 89.5289 49.507 89.6625 49.6545C89.7907 49.7962 89.8586 49.9689 89.8931 50.14L91.0256 55.7467C91.1079 56.1539 91.0337 56.7414 90.8901 57.2226C90.8158 57.4718 90.7136 57.7267 90.5788 57.9408C90.4527 58.1412 90.2508 58.3812 89.9489 58.4748L82.0438 60.9254C81.948 60.9553 81.8539 60.9801 81.7744 61.0007C81.6901 61.0225 81.6244 61.0391 81.5659 61.0572C81.543 61.0644 81.5231 61.0702 81.5062 61.0765C82.3258 65.3672 82.4954 68.2229 82.1734 70.5325L82.1721 70.532C81.8834 72.6228 80.9644 74.8377 79.5255 77.4669L88.2995 74.7485C90.9767 73.9186 93.1558 73.1521 94.835 72.3557C96.5215 71.5558 97.647 70.7505 98.2774 69.8733C99.4597 68.2208 100.068 66.6671 99.9846 64.4289L99.9838 64.4271C99.9631 63.8197 100.347 63.2872 100.881 63.1215L100.882 63.1211C101.063 63.0654 101.263 63.0519 101.465 63.097L101.466 63.0957L109.066 64.7447L109.068 64.7448C109.419 64.8228 109.752 65.0024 109.983 65.2975C110.22 65.6003 110.32 65.9862 110.259 66.4065C109.794 69.6296 108.935 72.336 107.728 74.7129C106.385 77.3595 104.687 79.2598 102.728 80.8187L102.727 80.82C100.729 82.4061 97.7595 83.3669 94.1155 84.4976L94.1146 84.498L64.8944 93.5577C64.7879 93.5905 64.6411 93.653 64.4416 93.7383C64.2578 93.8169 64.037 93.9111 63.8267 93.9768L63.8249 93.9776C63.6424 94.034 63.3923 94.0946 63.1518 94.0572C63.0203 94.0368 62.8692 93.9833 62.7393 93.8645C62.6071 93.7437 62.5355 93.5898 62.5043 93.4361L62.5039 93.4352L60.9291 85.6411C60.8282 85.1407 61.0733 84.6699 61.3251 84.3551C61.5856 84.0296 61.9537 83.7416 62.3197 83.6156L62.3188 83.616C65.137 82.6324 67.5255 81.5611 68.7931 80.6023L69.0474 80.3995C70.3012 79.3533 71.2973 77.8373 72.0104 75.7327L72.1455 75.3155C72.7864 73.2341 72.9171 71.277 72.5159 69.2942L72.5155 69.2933C72.3217 68.3289 71.9011 66.8785 71.1712 64.5258C71.1436 64.4384 71.1163 64.4105 71.1115 64.4059C71.1098 64.4042 71.1055 64.3994 71.0824 64.395C71.0517 64.3891 70.9957 64.3863 70.9041 64.4003C70.8134 64.4142 70.7062 64.4411 70.5785 64.4806L66.2376 65.8259L66.2372 65.825C65.907 65.9273 65.6113 65.8129 65.4077 65.6753C65.2052 65.5384 65.0349 65.3441 64.9003 65.1535C64.632 64.7735 64.419 64.2852 64.3443 63.916L63.2119 58.3093L63.1928 58.1974C63.1579 57.9347 63.1897 57.6598 63.3786 57.429C63.5646 57.2017 63.8368 57.1119 63.999 57.0616L64.0008 57.0608C64.0581 57.0433 64.1188 57.0266 64.1747 57.0106C64.2326 56.9941 64.2895 56.9779 64.3465 56.9602L67.8523 55.8725C67.8664 55.8682 67.9739 55.8063 68.0434 55.5216C68.1065 55.2625 68.0932 54.9731 68.0323 54.792L67.7091 53.8287C66.9823 51.6195 66.4521 49.6897 66.1944 48.4159C65.1105 43.0463 65.7607 38.109 68.1664 33.6415Z" stroke="black"/>
<path d="M173.922 94.7059C158.396 91.7406 148.046 112.499 148.046 112.499C108.862 74.6882 85.784 120.554 85.9432 119.172C78.5501 99.1545 22.362 82.8438 0.921878 134" stroke="black" strokeWidth="2"/>
<path d="M148.046 112.499C148.046 112.499 158.396 91.7406 173.922 94.7059V134H0.921875C22.362 82.8438 78.5501 99.1545 85.9432 119.172C85.784 120.554 108.862 74.6882 148.046 112.499Z" fill="#CFF3E2"/>
<defs>
<linearGradient id="paint0_linear_1361_620" x1="61.6438" y1="83.5257" x2="88.202" y2="138.733" gradientUnits="userSpaceOnUse">
<stop stop-color="#E08C3C"/>
<stop offset="1" stop-color="#FFD06F"/>
</linearGradient>
</defs>
</svg>
