<svg width="104" height="101" viewBox="0 0 104 101" fill="none" xmlns="http://www.w3.org/2000/svg">
<path d="M0.402641 47.8828C-0.781799 39.4004 0.631218 30.5369 4.91756 23.0727C6.30692 20.6526 7.96356 18.3912 9.88031 16.3612C12.0503 14.0633 14.5281 12.0473 16.8902 9.95215C10.3747 15.7346 6.28472 23.8541 5.12357 32.454C3.95704 41.0936 5.671 50.1743 9.65639 57.9122C13.6167 65.601 19.5156 72.1796 26.8383 76.8073C34.1115 81.4043 42.619 83.948 51.2436 83.7065C59.0883 83.4593 66.7897 80.8393 72.9415 75.9199C73.4026 75.5505 73.8548 75.1697 74.2969 74.7774C71.1842 77.5389 68.1769 80.4667 64.6121 82.65C61.3418 84.6523 57.7462 86.1022 54.0127 86.9689C45.746 88.8864 36.9705 87.9427 29.1538 84.714C21.3478 81.4892 14.4762 76.1073 9.38948 69.3725C4.65459 63.1053 1.48784 55.6709 0.402641 47.8828Z" fill="#38312B"/>
<path opacity="0.5" d="M29.1543 84.7103C26.4272 83.5835 23.8172 82.1877 21.3541 80.5687L24.3309 77.4238C24.6892 77.6642 25.0489 77.9036 25.414 78.1346C32.8334 82.8233 41.5107 85.4182 50.3076 85.1721C56.5455 84.9758 62.6905 83.3016 68.0703 80.1986C66.964 81.0753 65.8215 81.9058 64.6126 82.6467C61.3424 84.649 57.7468 86.099 54.0132 86.9656C45.7465 88.8831 36.9711 87.9394 29.1543 84.7103Z" fill="url(#paint0_linear_1361_467)" fill-opacity="0.5"/>
<path d="M37.0503 1.21756C15.0023 3.53484 0.957802 23.8337 5.67765 46.5601C10.3968 69.2837 32.0925 85.8289 54.1408 83.512C76.1852 81.1947 90.2322 60.8927 85.5131 38.1694C80.7932 15.4423 59.095 -1.09973 37.0503 1.21756Z" fill="#FEFBF4"/>
<path opacity="0.2" d="M37.2061 2.17189C58.4823 -0.0644295 79.4253 15.9011 83.98 37.8358C84.3315 39.5286 84.5748 41.2071 84.7148 42.8645C75.7875 49.2975 65.0096 53.538 52.9109 54.8099C36.749 56.5088 20.692 52.6542 6.7005 44.7525C2.86343 23.3005 16.3097 4.36808 37.2061 2.17189Z" fill="#FEFBF4"/>
<mask id="path-5-outside-1_1361_467" maskUnits="userSpaceOnUse" x="3.42578" y="0" width="84" height="85" fill="black">
<rect fill="white" x="3.42578" width="84" height="85"/>
<path d="M41.189 4.5852C39.9347 4.5852 38.6682 4.65147 37.425 4.78224C28.1268 5.7596 20.0719 10.3168 14.7433 17.6147C11.9742 21.4067 10.0725 25.7342 9.09161 30.4762C8.06731 35.4246 8.09956 40.5905 9.18762 45.8298C11.1531 55.2932 16.4422 64.0099 24.0813 70.3745C31.6404 76.6729 40.8447 80.142 49.9981 80.142C51.255 80.142 52.5225 80.0757 53.7657 79.945C63.0625 78.9676 71.1171 74.41 76.446 67.1114C79.2151 63.3188 81.1168 58.9912 82.0984 54.2492C83.1227 49.3004 83.0908 44.1356 82.0024 38.8966C80.0376 29.4326 74.7478 20.7159 67.1084 14.3516C59.5496 8.05432 50.3453 4.58555 41.1897 4.58483H41.189M41.1926 1C61.7501 1.00179 81.0899 16.8692 85.5131 38.1683C90.2322 60.8918 76.1852 81.1939 54.1408 83.5108C52.7557 83.6563 51.3761 83.7276 49.9981 83.7276C29.4381 83.7276 10.1001 67.8555 5.67765 46.5589C0.957802 23.8325 15.0023 3.53367 37.0503 1.21639C38.4346 1.07129 39.8147 1 41.1926 1Z"/>
</mask>
<path d="M37.425 4.78224L37.5296 5.77675L37.5296 5.77676L37.425 4.78224ZM14.7433 17.6147L15.5509 18.2044L15.5509 18.2045L14.7433 17.6147ZM9.09161 30.4762L10.0709 30.6788L10.0708 30.6789L9.09161 30.4762ZM9.18762 45.8298L8.20852 46.0332L8.20851 46.0332L9.18762 45.8298ZM24.0813 70.3745L24.7214 69.6062L24.7214 69.6062L24.0813 70.3745ZM53.7657 79.945L53.6611 78.9505L53.6612 78.9504L53.7657 79.945ZM76.446 67.1114L77.2536 67.7011H77.2536L76.446 67.1114ZM82.0984 54.2492L83.0777 54.4519L83.0777 54.4519L82.0984 54.2492ZM82.0024 38.8966L81.0233 39.1L81.0233 39.0999L82.0024 38.8966ZM67.1084 14.3516L66.4683 15.1199L66.4683 15.1199L67.1084 14.3516ZM41.1897 4.58483V3.58483L41.1898 3.58483L41.1897 4.58483ZM41.1926 1V0H41.1927L41.1926 1ZM85.5131 38.1683L84.534 38.3716L84.534 38.3716L85.5131 38.1683ZM54.1408 83.5108L54.2453 84.5053L54.2453 84.5053L54.1408 83.5108ZM5.67765 46.5589L6.65676 46.3556V46.3556L5.67765 46.5589ZM37.0503 1.21639L36.9457 0.221863L36.946 0.221833L37.0503 1.21639ZM41.189 4.5852V5.5852C39.9695 5.5852 38.7379 5.64965 37.5296 5.77675L37.425 4.78224L37.3204 3.78773C38.5985 3.65329 39.8999 3.5852 41.189 3.5852V4.5852ZM37.425 4.78224L37.5296 5.77676C28.5014 6.72574 20.7064 11.1435 15.5509 18.2044L14.7433 17.6147L13.9357 17.025C19.4373 9.49004 27.7523 4.79345 37.3205 3.78772L37.425 4.78224ZM14.7433 17.6147L15.5509 18.2045C12.8687 21.8774 11.0238 26.0721 10.0709 30.6788L9.09161 30.4762L8.11234 30.2737C9.12128 25.3963 11.0798 20.9359 13.9357 17.025L14.7433 17.6147ZM9.09161 30.4762L10.0708 30.6789C9.07588 35.4856 9.10481 40.5131 10.1667 45.6265L9.18762 45.8298L8.20851 46.0332C7.0943 40.668 7.05873 35.3637 8.11236 30.2735L9.09161 30.4762ZM9.18762 45.8298L10.1667 45.6265C12.0848 54.8618 17.2505 63.3817 24.7214 69.6062L24.0813 70.3745L23.4411 71.1428C15.6339 64.638 10.2213 55.7245 8.20852 46.0332L9.18762 45.8298ZM24.0813 70.3745L24.7214 69.6062C32.1153 75.767 41.0968 79.142 49.9981 79.142V80.142V81.142C40.5926 81.142 31.1655 77.5788 23.4411 71.1428L24.0813 70.3745ZM49.9981 80.142V79.142C51.2202 79.142 52.4529 79.0775 53.6611 78.9505L53.7657 79.945L53.8703 80.9395C52.5922 81.0739 51.2897 81.142 49.9981 81.142V80.142ZM53.7657 79.945L53.6612 78.9504C62.6879 78.0015 70.4825 73.5834 75.6384 66.5217L76.446 67.1114L77.2536 67.7011C71.7517 75.2367 63.4371 79.9337 53.8703 80.9395L53.7657 79.945ZM76.446 67.1114L75.6383 66.5217C78.3206 62.848 80.1655 58.6533 81.1192 54.0465L82.0984 54.2492L83.0777 54.4519C82.068 59.3292 80.1095 63.7895 77.2536 67.7011L76.446 67.1114ZM82.0984 54.2492L81.1192 54.0465C82.1141 49.2394 82.0855 44.213 81.0233 39.1L82.0024 38.8966L82.9815 38.6932C84.0961 44.0582 84.1313 49.3614 83.0777 54.4519L82.0984 54.2492ZM82.0024 38.8966L81.0233 39.0999C79.1059 29.8639 73.9395 21.3441 66.4683 15.1199L67.1084 14.3516L67.7485 13.5833C75.556 20.0877 80.9694 29.0013 82.9815 38.6934L82.0024 38.8966ZM67.1084 14.3516L66.4683 15.1199C59.0748 8.96027 50.0932 5.58553 41.1896 5.58483L41.1897 4.58483L41.1898 3.58483C50.5974 3.58557 60.0245 7.14836 67.7485 13.5833L67.1084 14.3516ZM41.1897 4.58483V5.58483H41.189V4.58483V3.58483H41.1897V4.58483ZM41.1926 1L41.1927 0C62.2438 0.00183433 81.9767 16.2214 86.4922 37.9649L85.5131 38.1683L84.534 38.3716C80.2031 17.5169 61.2565 2.00175 41.1925 2L41.1926 1ZM85.5131 38.1683L86.4922 37.9649C91.3213 61.2179 76.9278 82.1213 54.2453 84.5053L54.1408 83.5108L54.0363 82.5163C75.4425 80.2664 89.1432 60.5657 84.534 38.3716L85.5131 38.1683ZM54.1408 83.5108L54.2453 84.5053C52.8252 84.6545 51.4107 84.7276 49.9981 84.7276V83.7276V82.7276C51.3414 82.7276 52.6863 82.6581 54.0364 82.5163L54.1408 83.5108ZM49.9981 83.7276V84.7276C28.9443 84.7276 9.21329 68.5031 4.69854 46.7623L5.67765 46.5589L6.65676 46.3556C10.987 67.2079 29.9319 82.7276 49.9981 82.7276V83.7276ZM5.67765 46.5589L4.69855 46.7623C-0.131256 23.5064 14.2597 2.60622 36.9457 0.221863L37.0503 1.21639L37.1548 2.21091C15.745 4.46112 2.04687 24.1586 6.65676 46.3556L5.67765 46.5589ZM37.0503 1.21639L36.946 0.221833C38.3652 0.0730807 39.7801 0 41.1926 0V1V2C39.8493 2 38.504 2.06949 37.1545 2.21094L37.0503 1.21639Z" fill="black" mask="url(#path-5-outside-1_1361_467)"/>
<path d="M39.0579 23.5519C40.7754 20.5328 43.3565 18.486 46.77 17.4304C49.2392 16.6669 51.5405 16.5901 53.6556 17.2335C55.638 17.8367 57.4188 19.0618 59.002 20.8752L59.3166 21.2451L59.3173 21.2469C59.7141 21.7321 59.6995 22.4709 59.2759 22.9463L59.1856 23.0381L55.4351 26.4658L55.4314 26.4696C55.2921 26.5943 55.1258 26.693 54.9455 26.7488C54.5865 26.8599 54.099 26.8034 53.8291 26.3472L53.8287 26.3463C53.1254 25.1792 52.3335 24.4446 51.4706 24.0766C50.6126 23.7108 49.6247 23.6823 48.4761 24.0373C47.1206 24.4566 46.1585 25.2959 45.5567 26.5281L45.5562 26.5294C44.9562 27.7475 44.8379 29.4149 45.2559 31.4798C45.4846 32.6086 45.9459 34.0032 46.6206 35.5303L46.9232 36.1922L46.9251 36.1967C46.9989 36.357 47.1198 36.5207 47.2455 36.6226C47.3066 36.672 47.3552 36.6955 47.3859 36.7048C47.4093 36.7119 47.4178 36.7101 47.4197 36.7094L47.4206 36.709L52.9867 34.9886L52.9885 34.9879C53.0262 34.9764 53.0651 34.9635 53.1098 34.9487C53.1528 34.9344 53.2028 34.9177 53.2526 34.9024L53.2517 34.9028C53.38 34.8633 53.6227 34.7898 53.8637 34.8362C54.0052 34.8635 54.1523 34.9324 54.2712 35.0633C54.3846 35.1883 54.4416 35.3365 54.4695 35.4745L55.2674 39.4119C55.3323 39.732 55.2729 40.1717 55.1685 40.5208C55.1137 40.7039 55.037 40.8963 54.9326 41.0616C54.8368 41.2134 54.67 41.4179 54.4071 41.499L54.4068 41.4981L48.8402 43.2198L48.8398 43.2189C48.7689 43.2409 48.7003 43.2604 48.6448 43.2748C48.6238 43.2802 48.6047 43.2852 48.5875 43.2897C49.1442 46.2362 49.262 48.2246 49.0353 49.8459L49.034 49.8453C48.8391 51.2523 48.2464 52.7305 47.3296 54.4441L53.1586 52.643C55.0424 52.0607 56.5684 51.5245 57.741 50.9699C58.921 50.4118 59.6864 49.8597 60.1085 49.2742C60.9255 48.1355 61.3399 47.0763 61.2825 45.5431L61.283 45.5418C61.2661 45.0499 61.5772 44.6146 62.0183 44.478L62.0192 44.4776C62.1686 44.4318 62.3351 44.4202 62.5034 44.4573L62.5043 44.4569L67.8569 45.6144L67.8594 45.6154C68.1332 45.6761 68.4008 45.8168 68.5889 46.0563C68.7831 46.3035 68.8612 46.617 68.813 46.9493C68.4829 49.2269 67.8736 51.1426 67.0159 52.8275C66.0593 54.7073 64.8489 56.0578 63.4549 57.1642L63.4544 57.1655C62.0212 58.2999 59.8998 58.9817 57.3419 59.7732L36.7642 66.1354C36.6984 66.1557 36.6035 66.196 36.4594 66.2574C36.3309 66.3122 36.1688 66.381 36.0126 66.4296L36.0108 66.4304C35.8788 66.471 35.6757 66.5219 35.4714 66.4903C35.3578 66.4727 35.2219 66.4264 35.1035 66.3185C34.9829 66.2086 34.9187 66.0705 34.8916 65.9376L34.8912 65.9367L33.783 60.4633C33.699 60.0477 33.9031 59.6722 34.0909 59.438C34.2876 59.1928 34.5686 58.9709 34.8585 58.8714L34.8576 58.8718C36.8404 58.1817 38.5024 57.4352 39.3753 56.777C40.2556 56.1063 40.9687 55.1168 41.4898 53.7141L41.5912 53.4274C42.1161 51.8771 42.237 50.4393 41.9416 48.9835L41.8099 48.4131C41.6469 47.7715 41.386 46.8968 41.0022 45.6633C40.9944 45.6641 40.9854 45.6637 40.9754 45.6652C40.9486 45.6693 40.918 45.6748 40.8834 45.6834L40.7668 45.7163L37.7105 46.6616C37.4196 46.7517 37.1641 46.6478 36.9995 46.5369C36.8362 46.4268 36.7038 46.2745 36.6035 46.1328C36.404 45.8512 36.2451 45.4891 36.1879 45.207L35.3901 41.2696L35.3666 41.0906C35.3566 40.9046 35.3935 40.7033 35.5377 40.5276C35.6998 40.33 35.933 40.2578 36.0457 40.223L36.0475 40.2222C36.0896 40.2093 36.1342 40.1965 36.173 40.1854C36.2136 40.1739 36.2518 40.1631 36.2901 40.1512L38.7336 39.395L38.7351 39.3933C38.7517 39.3696 38.7753 39.322 38.7936 39.2472C38.8325 39.0881 38.8228 38.9137 38.7901 38.8173C38.1602 36.9836 37.6994 35.3535 37.4902 34.3226C36.7206 30.5207 37.1823 27.0177 38.8943 23.8472L39.0579 23.5519Z" stroke="black"/>
<path d="M102.53 51.0039C97.4421 51.379 94.2391 55.2225 92.3537 58.7242C91.4004 60.4946 90.7505 62.2362 90.3389 63.5313C90.212 63.9306 90.1093 64.2896 90.0251 64.5947C83.3626 61.1016 77.8635 60.1076 73.3378 60.688C68.5817 61.298 65.0098 63.6327 62.3783 66.4149C59.7556 69.1877 58.0519 72.4175 56.9995 74.8786C56.5779 75.8644 56.26 76.7328 56.0271 77.4046C53.9155 75.2318 50.6538 73.633 46.9008 72.7652C42.4548 71.7371 37.1979 71.7024 32.0349 73.028C21.6587 75.6922 11.6839 83.8517 9.42578 100.342L11.1489 100.579C13.3053 84.8295 22.734 77.2118 32.467 74.7127C37.3585 73.4568 42.333 73.4939 46.5091 74.4596C50.6849 75.4252 53.9442 77.289 55.5924 79.5818C55.5958 79.5874 55.598 79.5939 55.6016 79.5995C55.6611 79.6934 55.7868 79.8505 56.0106 79.9418C56.2551 80.0415 56.4902 80.0122 56.6581 79.9468C56.916 79.8462 57.0452 79.6529 57.0575 79.6358C57.0982 79.5791 57.1246 79.5277 57.1376 79.5018C57.1841 79.4097 57.2248 79.295 57.2505 79.221C57.3103 79.0491 57.4044 78.7566 57.515 78.4266C57.7451 77.7398 58.0962 76.7377 58.5989 75.5621C59.6076 73.2033 61.2131 70.1772 63.6417 67.6096C66.0615 65.0513 69.2841 62.961 73.5582 62.4127C77.8406 61.8634 83.2882 62.8482 90.1759 66.6501L91.2107 67.2212L91.4481 66.0631L91.4494 66.0583C91.4504 66.0534 91.452 66.0452 91.4544 66.0341C91.4591 66.012 91.4668 65.9777 91.4772 65.9322C91.4979 65.8409 91.5301 65.7038 91.5746 65.5281C91.6637 65.1766 91.8012 64.6696 91.9956 64.0579C92.3853 62.8316 92.9973 61.1973 93.8846 59.5491C95.6808 56.213 98.477 53.047 102.658 52.7386L102.53 51.0039Z" fill="#1E1A17"/>
<path d="M90.5978 65.8905C90.5978 65.8905 93.3265 52.5564 102.596 51.873L103.342 86.3045L10.3345 101L10.2891 100.462C14.7035 68.222 49.0961 68.909 56.3339 79.1225C56.4532 79.9295 62.601 50.4366 90.5978 65.8905Z" fill="#E6F5EE"/>
<defs>
<linearGradient id="paint0_linear_1361_467" x1="34.43" y1="58.95" x2="53.0473" y2="97.7591" gradientUnits="userSpaceOnUse">
<stop stop-color="#E08C3C"/>
<stop offset="1" stop-color="#FFD06F"/>
</linearGradient>
</defs>
</svg>
