<svg width="64" height="64" viewBox="0 0 64 64" fill="none" xmlns="http://www.w3.org/2000/svg">
<rect width="64" height="64" rx="10" fill="#CFF3E2"/>
<path d="M31.6552 26.0929C35.2652 26.0929 38.202 23.1562 38.202 19.5465C38.202 15.9367 35.2652 13 31.6552 13C28.0455 13 25.1087 15.9367 25.1087 19.5465C25.1087 23.1562 28.0455 26.0929 31.6552 26.0929ZM19.6475 46.2176H43.6573C44.1095 46.2175 44.5564 46.1204 44.9678 45.9327C45.3792 45.745 45.7455 45.4712 46.0419 45.1297C46.3386 44.7885 46.5585 44.3876 46.6869 43.954C46.8152 43.5204 46.8489 43.0644 46.7858 42.6166C45.015 30.0706 37.595 26.9981 37.2802 26.8736L36.8231 26.6928L31.6525 36.5693L26.4815 26.6928L26.0246 26.8736C25.7097 26.9982 18.2897 30.0707 16.5192 42.6166C16.4561 43.0644 16.4898 43.5205 16.6182 43.9541C16.7465 44.3878 16.9664 44.7887 17.2631 45.13C17.5596 45.4714 17.9258 45.7452 18.3372 45.9328C18.7485 46.1204 19.1954 46.2175 19.6475 46.2176ZM22.185 38.3438C22.156 38.2355 22.189 38.1401 22.2295 38.0873C22.2501 38.0603 22.2837 38.0283 22.3276 38.0283H40.9773C41.021 38.0283 41.0548 38.0603 41.0754 38.0873C41.1159 38.1403 41.1487 38.2353 41.1196 38.3435L39.7254 43.5092L39.2892 45.1254H24.0154L22.185 38.3438Z" fill="black"/>
<path d="M31.8128 42.0021C29.5698 42.0021 28.898 42.9801 28.898 42.9801L28.5898 44.9194C28.5898 44.9194 29.2162 44.1569 31.9088 44.1569C34.6013 44.1569 35.1923 44.9139 35.1923 44.9139L34.9447 43.0022C34.9447 43.0022 34.0557 42.0021 31.8128 42.0021Z" fill="black"/>
<path d="M31.9046 39.3889L26.1406 42.5657L27.3061 42.9855L27.2924 43.9195C27.2924 43.9195 27.1207 44.052 27.1207 44.1902C27.1207 44.3283 27.1965 44.4278 27.1965 44.4278C27.1965 44.4278 27.0904 44.5106 27.1055 44.6874C27.1207 44.8643 27.2167 44.9858 27.2167 44.9858L27.1611 47.2014L27.55 47.5716L27.5298 45.0023C27.5298 45.0023 27.6208 44.8919 27.6258 44.715C27.6309 44.5382 27.54 44.4112 27.54 44.4112C27.54 44.4112 27.6157 44.3337 27.6157 44.2233C27.6157 44.1129 27.4439 43.9084 27.4439 43.9084L27.4394 43.0335L28.6412 43.4664L28.7624 42.9249C28.7624 42.9249 29.3489 41.7589 31.9096 41.8254C34.4607 41.8918 35.1174 42.9912 35.1174 42.9912L35.1931 43.4885L37.7139 42.5105L31.9046 39.3889Z" fill="black"/>
<path d="M31.3849 27.9962L30.1899 31.5588C30.1754 31.6022 30.1699 31.6481 30.1739 31.6937C30.1778 31.7393 30.191 31.7836 30.2128 31.8239L31.4086 34.0406C31.5348 34.2744 31.8698 34.2749 31.9967 34.0415L33.1947 31.8372C33.2167 31.7968 33.2301 31.7523 33.2341 31.7066C33.2381 31.6608 33.2326 31.6147 33.218 31.5711L32.019 27.9962C31.9169 27.6922 31.4869 27.6922 31.3849 27.9962ZM14 47.3749H50.0884V51.0001H14V47.3749Z" fill="black"/>
</svg>
