<svg width="64" height="64" viewBox="0 0 64 64" fill="none" xmlns="http://www.w3.org/2000/svg">
<rect width="64" height="64" rx="10" fill="#CFF3E2"/>
<path d="M31.9994 32C37.7614 32 42.4324 27.329 42.4324 21.567C42.4324 15.805 37.7614 11.134 31.9994 11.134C26.2374 11.134 21.5664 15.805 21.5664 21.567C21.5664 27.329 26.2374 32 31.9994 32Z" fill="#1E1A17"/>
<path d="M38.8839 35.3386L37.4233 48.2755L34.0847 38.2599L36.1713 35.5473C36.5886 34.9213 35.9627 34.0867 35.128 34.0867H30.9548C30.1202 34.0867 29.7029 34.9213 29.9115 35.5473L31.7895 38.2599L28.4509 48.2755L26.7816 34.7126C18.8526 37.2166 13.2188 44.311 13.2188 52.866H50.7775C50.7775 44.937 45.7697 38.0512 38.8839 35.3386ZM23.6517 48.6928H19.4785V45.563C19.4785 44.937 19.8959 44.5197 20.5218 44.5197H22.6084C23.2344 44.5197 23.6517 44.937 23.6517 45.563V48.6928Z" fill="#1E1A17"/>
</svg>
