<svg width="22" height="26" viewBox="0 0 22 26" fill="none" xmlns="http://www.w3.org/2000/svg">
<path d="M7.51627 16.0739C7.90627 16.7954 8.68626 17.2865 9.58376 17.2865H12.25C13.6313 17.2865 14.75 16.2012 14.75 14.8614C14.75 13.5227 13.6313 12.4363 12.25 12.4363H9.75C8.36875 12.4363 7.25 11.3511 7.25 10.0112C7.25 8.67261 8.36875 7.58618 9.75 7.58618H12.4162C13.3137 7.58618 14.0937 8.07847 14.4837 8.79871M11 5.76738V7.58618M11 17.2865V19.1053M21 13.0426C21 18.9949 14.3075 23.3236 11.8725 24.7011C11.5962 24.8575 11.4575 24.9363 11.2625 24.9764C11.11 25.0079 10.89 25.0079 10.7375 24.9764C10.5425 24.9363 10.4038 24.8575 10.1275 24.7011C7.6925 23.3236 1 18.9949 1 13.0426V7.24425C1 6.27422 0.999977 5.78921 1.16373 5.37331C1.30748 5.0047 1.54247 4.6761 1.84747 4.41662C2.19122 4.12197 2.65999 3.95099 3.59499 3.61027L10.2975 1.17308C10.5575 1.07851 10.6875 1.03122 10.8212 1.01182C10.94 0.996059 11.06 0.996059 11.1788 1.01182C11.3125 1.03122 11.4425 1.07851 11.7025 1.17308L18.405 3.61027C19.34 3.95099 19.8088 4.12197 20.1525 4.41662C20.4575 4.6761 20.6925 5.0047 20.8363 5.37331C21 5.78921 21 6.27422 21 7.24425V13.0426Z" stroke="#BC47ED" strokeWidth="2" strokeLinecap="round" strokeLinejoin="round"/>
</svg>
