<svg width="22" height="24" viewBox="0 0 22 24" fill="none" xmlns="http://www.w3.org/2000/svg">
<path d="M21 9.8H1M15.4444 1V5.4M6.55556 1V5.4M6.33334 23H15.6667C17.5336 23 18.4669 23 19.18 22.6403C19.8072 22.3235 20.3171 21.8186 20.6367 21.1982C21 20.492 21 19.568 21 17.72V8.47999C21 6.63199 21 5.708 20.6367 5.0018C20.3171 4.3814 19.8072 3.8765 19.18 3.5597C18.4669 3.2 17.5336 3.2 15.6667 3.2H6.33334C4.46645 3.2 3.53311 3.2 2.82 3.5597C2.19278 3.8765 1.68289 4.3814 1.36334 5.0018C1 5.708 1 6.63199 1 8.47999V17.72C1 19.568 1 20.492 1.36334 21.1982C1.68289 21.8186 2.19278 22.3235 2.82 22.6403C3.53311 23 4.46645 23 6.33334 23Z" stroke="#BC47ED" strokeWidth="2" strokeLinecap="round" strokeLinejoin="round"/>
</svg>
