<svg width="25" height="23" viewBox="0 0 25 23" fill="none" xmlns="http://www.w3.org/2000/svg">
<path d="M22.1845 22V13.3528M12.5 22V9.64686M2.81554 22V17.0587M14.2033 3.5049L20.4594 5.89892M11.0461 3.96565L4.26822 9.1527M23.4689 5.24794C24.177 5.97183 24.177 7.14532 23.4689 7.86921C22.7595 8.59187 21.6094 8.59187 20.9001 7.86921C20.1919 7.14532 20.1919 5.97183 20.9001 5.24794C21.6094 4.52528 22.7595 4.52528 23.4689 5.24794ZM4.09995 8.95388C4.80812 9.67777 4.80812 10.8513 4.09995 11.5752C3.39056 12.2978 2.24052 12.2978 1.53113 11.5752C0.822956 10.8513 0.822956 9.67777 1.53113 8.95388C2.24052 8.23122 3.39056 8.23122 4.09995 8.95388ZM13.7844 1.54199C14.4926 2.26589 14.4926 3.43937 13.7844 4.16327C13.075 4.88593 11.925 4.88593 11.2156 4.16327C10.5074 3.43937 10.5074 2.26589 11.2156 1.54199C11.925 0.819335 13.075 0.819335 13.7844 1.54199Z" stroke="#BC47ED" strokeWidth="2" strokeLinecap="round" strokeLinejoin="round"/>
</svg>
