<svg width="20" height="24" viewBox="0 0 20 24" fill="none" xmlns="http://www.w3.org/2000/svg">
<path d="M12.25 1.29699V5.83999C12.25 6.45599 12.25 6.76401 12.3726 6.99941C12.4805 7.20621 12.6525 7.37449 12.8642 7.48009C13.1049 7.59999 13.4199 7.6 14.05 7.6H18.6968M14.5 13.1H5.5M14.5 17.5H5.5M7.75 8.7H5.5M12.25 1H6.4C4.50978 1 3.56478 0.999995 2.84275 1.3597C2.20769 1.6765 1.69143 2.1814 1.36788 2.8018C1 3.508 1 4.43199 1 6.27999V17.72C1 19.568 1 20.492 1.36788 21.1982C1.69143 21.8186 2.20769 22.3235 2.84275 22.6403C3.56478 23 4.50978 23 6.4 23H13.6C15.4902 23 16.4352 23 17.1572 22.6403C17.7923 22.3235 18.3086 21.8186 18.6321 21.1982C19 20.492 19 19.568 19 17.72V7.6L12.25 1Z" stroke="#BC47ED" strokeWidth="2" strokeLinecap="round" strokeLinejoin="round"/>
</svg>
