<svg width="22" height="22" viewBox="0 0 22 22" fill="none" xmlns="http://www.w3.org/2000/svg">
<path d="M21 21H2.77775C2.15553 21 1.84447 21 1.60669 20.8789C1.3978 20.7722 1.22779 20.6022 1.12112 20.3933C1.00001 20.1556 1 19.8444 1 19.2222V1M19.8889 6.55556L15.5344 11.2033C15.37 11.3789 15.2866 11.4667 15.1878 11.5122C15.1 11.5533 15.0033 11.5689 14.9067 11.5611C14.7978 11.5511 14.69 11.4956 14.4767 11.3845L10.8566 9.50444C10.6433 9.39332 10.5356 9.33777 10.4267 9.32777C10.33 9.31999 10.2334 9.33556 10.1456 9.37667C10.0467 9.42222 9.96334 9.50998 9.7989 9.68554L5.44444 14.3333" stroke="#BC47ED" strokeWidth="2" strokeLinecap="round" strokeLinejoin="round"/>
</svg>
