<svg width="64" height="64" viewBox="0 0 64 64" fill="none" xmlns="http://www.w3.org/2000/svg">
<rect width="64" height="64" rx="10" fill="#CFF3E2"/>
<path fill-rule="evenodd" clip-rule="evenodd" d="M32.0031 11.9836C32.3409 11.9838 32.6721 12.0781 32.9594 12.2558C33.2467 12.4335 33.4789 12.6877 33.6299 12.9899L42.7283 31.1868C42.8669 31.4642 42.9324 31.7723 42.9184 32.0821C42.9044 32.3918 42.8116 32.6929 42.6486 32.9566C42.4856 33.2204 42.258 33.4382 41.9872 33.5893C41.7165 33.7403 41.4116 33.8197 41.1015 33.8199H22.9047C22.5946 33.8197 22.2897 33.7403 22.019 33.5893C21.7482 33.4382 21.5205 33.2204 21.3576 32.9566C21.1946 32.6929 21.1017 32.3918 21.0878 32.0821C21.0738 31.7723 21.1393 31.4642 21.2779 31.1868L30.3763 12.9899C30.5273 12.6877 30.7595 12.4335 31.0468 12.2558C31.3341 12.0781 31.6652 11.9838 32.0031 11.9836ZM25.8489 30.1805H38.1573L32.0031 17.8722L25.8489 30.1805Z" fill="#1E1A17"/>
<path fill-rule="evenodd" clip-rule="evenodd" d="M22.9015 30.1804C23.2394 30.1806 23.5705 30.2748 23.8578 30.4526C24.1451 30.6303 24.3773 30.8845 24.5283 31.1867L33.6268 49.3836C33.7654 49.6609 33.8308 49.9691 33.8168 50.2789C33.8029 50.5886 33.71 50.8896 33.5471 51.1534C33.3841 51.4172 33.1564 51.635 32.8857 51.786C32.6149 51.9371 32.31 52.0165 32 52.0167H13.8031C13.493 52.0165 13.1882 51.9371 12.9174 51.786C12.6466 51.635 12.419 51.4172 12.256 51.1534C12.093 50.8896 12.0002 50.5886 11.9862 50.2789C11.9723 49.9691 12.0377 49.6609 12.1763 49.3836L21.2747 31.1867C21.4257 30.8845 21.6579 30.6303 21.9452 30.4526C22.2326 30.2748 22.5637 30.1806 22.9015 30.1804ZM16.7473 48.3773H29.0557L22.9015 36.0689L16.7473 48.3773Z" fill="#1E1A17"/>
<path fill-rule="evenodd" clip-rule="evenodd" d="M33.6299 51.0104C33.4786 51.3122 33.2463 51.566 32.959 51.7434C32.6717 51.9208 32.3407 52.0147 32.0031 52.0147C31.6654 52.0147 31.3345 51.9208 31.0472 51.7434C30.7599 51.566 30.5276 51.3122 30.3763 51.0104L21.2779 32.8135C21.1393 32.5361 21.0738 32.228 21.0878 31.9182C21.1017 31.6085 21.1946 31.3074 21.3576 31.0437C21.5205 30.7799 21.7482 30.5621 22.019 30.4111C22.2897 30.26 22.5946 30.1806 22.9047 30.1804H41.1015C41.4116 30.1806 41.7165 30.26 41.9872 30.4111C42.258 30.5621 42.4856 30.7799 42.6486 31.0437C42.8116 31.3074 42.9044 31.6085 42.9184 31.9182C42.9324 32.228 42.8669 32.5361 42.7283 32.8135L33.6299 51.0104Z" fill="#1E1A17"/>
<path fill-rule="evenodd" clip-rule="evenodd" d="M41.0968 30.1804C41.4347 30.1806 41.7658 30.2748 42.0531 30.4526C42.3405 30.6303 42.5726 30.8845 42.7236 31.1867L51.8221 49.3836C51.9607 49.6609 52.0261 49.9691 52.0121 50.2789C51.9982 50.5886 51.9053 50.8896 51.7424 51.1534C51.5794 51.4172 51.3517 51.635 51.081 51.786C50.8102 51.9371 50.5053 52.0165 50.1953 52.0167H31.9984C31.6883 52.0165 31.3835 51.9371 31.1127 51.786C30.8419 51.635 30.6143 51.4172 30.4513 51.1534C30.2883 50.8896 30.1955 50.5886 30.1815 50.2789C30.1676 49.9691 30.233 49.6609 30.3716 49.3836L39.47 31.1867C39.6211 30.8845 39.8532 30.6303 40.1405 30.4526C40.4279 30.2748 40.759 30.1806 41.0968 30.1804ZM34.9427 48.3773H47.251L41.0968 36.0689L34.9427 48.3773Z" fill="#1E1A17"/>
</svg>
