<svg width="1920" height="347" viewBox="0 0 1920 347" fill="none" xmlns="http://www.w3.org/2000/svg">
<path opacity="0.08" d="M227.945 342.547L209.045 281.916H102.131L83.4585 342.547H0L118.755 17.8124H192.194L311.745 342.547H227.945ZM155.417 108.816L120.804 221.399H190.372L155.417 108.816ZM433.688 288.995C444.163 288.995 452.323 286.141 458.168 280.432C463.936 274.723 466.745 266.73 466.593 256.453H536.844C536.844 282.944 527.394 304.638 508.493 321.537C489.593 338.512 465.227 347 435.396 347C400.403 347 372.849 336 352.734 314.001C332.543 292.002 322.448 261.516 322.448 222.541V219.458C322.448 195.1 326.926 173.557 335.883 154.831C344.916 136.181 357.858 121.833 374.709 111.784C391.636 101.813 411.675 96.8266 434.827 96.8266C466.1 96.8266 490.921 105.504 509.29 122.86C527.659 140.292 536.844 163.852 536.844 193.539H466.593C466.593 181.055 463.557 171.464 457.484 164.765C451.412 158.066 443.252 154.717 433.005 154.717C413.573 154.717 402.225 167.163 398.961 192.055C397.898 199.895 397.367 210.742 397.367 224.597C397.367 248.803 400.289 265.588 406.134 274.951C411.903 284.314 421.088 288.995 433.688 288.995ZM779.021 342.547H704.102C701.446 337.675 699.055 330.482 696.929 320.966C683.19 338.322 663.91 347 639.089 347C616.469 347 597.227 340.111 581.363 326.333C565.498 312.631 557.566 295.352 557.566 274.494C557.566 248.385 567.206 228.631 586.486 215.234C605.691 201.836 633.7 195.138 670.514 195.138H693.627V182.463C693.627 160.312 684.063 149.236 664.935 149.236C647.173 149.236 638.292 157.99 638.292 175.498H563.259C563.259 152.129 573.165 133.175 592.976 118.635C612.788 104.096 638.026 96.8266 668.692 96.8266C699.358 96.8266 723.61 104.325 741.448 119.321C759.21 134.316 768.319 154.907 768.774 181.093V287.854C769.078 310.005 772.494 326.98 779.021 338.779V342.547ZM657.193 293.449C666.529 293.449 674.271 291.469 680.42 287.511C686.568 283.477 690.971 278.909 693.627 273.809V235.33H671.88C645.769 235.33 632.713 247.052 632.713 270.498C632.713 277.349 634.99 282.906 639.545 287.168C644.175 291.355 650.057 293.449 657.193 293.449ZM800.768 220.143C800.768 181.93 809.004 151.824 825.476 129.825C841.947 107.826 864.947 96.8266 894.474 96.8266C915.956 96.8266 934.021 105.276 948.671 122.175V0H1023.82V342.547H956.527L952.656 316.628C937.247 336.876 917.701 347 894.019 347C865.402 347 842.706 336 825.931 314.001C809.156 292.002 800.768 260.716 800.768 220.143ZM876.029 211.009L875.801 224.825C875.801 267.605 888.25 288.995 913.147 288.995C929.695 288.995 941.536 282.03 948.671 268.1V176.183C941.839 161.872 930.15 154.717 913.602 154.717C890.451 154.717 877.927 173.481 876.029 211.009ZM1276.93 342.547H1202.01C1199.35 337.675 1196.96 330.482 1194.83 320.966C1181.09 338.322 1161.81 347 1136.99 347C1114.37 347 1095.13 340.111 1079.27 326.333C1063.4 312.631 1055.47 295.352 1055.47 274.494C1055.47 248.385 1065.11 228.631 1084.39 215.234C1103.59 201.836 1131.6 195.138 1168.42 195.138H1191.53V182.463C1191.53 160.312 1181.97 149.236 1162.84 149.236C1145.08 149.236 1136.2 157.99 1136.2 175.498H1061.16C1061.16 152.129 1071.07 133.175 1090.88 118.635C1110.69 104.096 1135.93 96.8266 1166.6 96.8266C1197.34 96.8266 1221.59 104.325 1239.35 119.321C1257.11 134.316 1266.22 154.907 1266.68 181.093V287.854C1266.98 310.005 1270.4 326.98 1276.93 338.779V342.547ZM1155.1 293.449C1164.43 293.449 1172.18 291.469 1178.32 287.511C1184.47 283.477 1188.87 278.909 1191.53 273.809V235.33H1169.78C1143.67 235.33 1130.62 247.052 1130.62 270.498C1130.62 277.349 1132.89 282.906 1137.45 287.168C1142.08 291.355 1147.96 293.449 1155.1 293.449ZM1491.09 217.403H1425.28L1426.31 242.409C1426.31 259.384 1421.94 272.705 1413.21 282.373H1548.48V342.547H1310.74V282.373H1333.63C1342.05 280.089 1346.49 272.401 1346.95 259.308L1347.18 247.547L1346.04 217.403H1310.06V159.284H1344.33L1342.96 110.871C1342.96 80.3463 1352.03 56.5202 1370.18 39.3929C1388.39 22.1894 1412.99 13.5877 1443.96 13.5877C1477.13 13.5877 1503.01 22.1514 1521.61 39.2787C1540.28 56.3299 1549.62 79.5089 1549.62 108.816H1476.18C1476.18 85.4464 1466.08 73.7618 1445.89 73.7618C1438.38 73.7618 1432.3 76.8066 1427.67 82.8964C1423.12 88.91 1420.84 98.2348 1420.84 110.871L1422.78 159.284H1491.09V217.403ZM1660.52 101.28V342.547H1585.37V101.28H1660.52ZM1580.93 39.0503C1580.93 28.3172 1584.76 19.5252 1592.43 12.6742C1600.17 5.8233 1610.19 2.39782 1622.49 2.39782C1634.78 2.39782 1644.8 5.8233 1652.55 12.6742C1660.21 19.5252 1664.05 28.3172 1664.05 39.0503C1664.05 49.7074 1660.21 58.4613 1652.55 65.3123C1644.8 72.1632 1634.78 75.5887 1622.49 75.5887C1610.19 75.5887 1600.17 72.1632 1592.43 65.3123C1584.76 58.4613 1580.93 49.7074 1580.93 39.0503ZM1770.39 101.28L1804.21 167.734L1839.05 101.28H1916.93L1853.51 218.773L1920 342.547H1841.78L1803.98 271.183L1766.86 342.547H1688.07L1754.79 218.773L1691.71 101.28H1770.39Z" fill="url(#paint0_linear_1361_553)"/>
<defs>
<linearGradient id="paint0_linear_1361_553" x1="960" y1="305" x2="960" y2="0" gradientUnits="userSpaceOnUse">
<stop stop-color="#FEFBF4"/>
<stop offset="1" stop-color="#1E1A17"/>
</linearGradient>
</defs>
</svg>
