<svg width="64" height="64" viewBox="0 0 64 64" fill="none" xmlns="http://www.w3.org/2000/svg">
<rect width="64" height="64" rx="10" fill="#CFF3E2"/>
<path d="M21.1052 24.8059V28.5644H20.8556C19.2773 28.5644 18 29.8418 18 31.4201V47.1444C18 48.7227 19.2773 50 20.8556 50H42.7977C44.376 50 45.6533 48.7227 45.6533 47.1444V31.4201C45.6533 29.8418 44.376 28.5644 42.7977 28.5644H42.7243V24.8059C42.7243 18.845 37.8793 14 31.9184 14C25.9502 14 21.1052 18.8524 21.1052 24.8059ZM33.5114 39.9869C33.2912 40.1484 33.2325 40.3099 33.2325 40.5595C33.2398 41.7121 33.2398 42.8646 33.2398 44.0171C33.2618 44.4943 33.0196 44.9641 32.5938 45.1843C31.5807 45.6982 30.575 44.9788 30.575 44.0245V44.0171C30.575 42.8573 30.575 41.7047 30.5824 40.5449C30.5824 40.31 30.531 40.1558 30.3254 40.0016C29.2757 39.2308 28.938 37.9168 29.4592 36.7569C29.9657 35.6264 31.2064 34.9731 32.3809 35.208C33.6803 35.4723 34.5905 36.522 34.5979 37.8214C34.6052 38.717 34.2382 39.4584 33.5114 39.9869ZM25.8328 24.8059C25.8328 21.4511 28.5636 18.7276 31.9111 18.7276C35.2659 18.7276 37.9894 21.4584 37.9894 24.8059V28.5644H25.8328V24.8059Z" fill="#1E1A17"/>
</svg>
