<svg width="84" height="85" viewBox="0 0 84 85" fill="none" xmlns="http://www.w3.org/2000/svg">
<path d="M83.6141 46.0241C84.7516 37.8779 83.3946 29.3656 79.2782 22.1972C77.9438 19.873 76.3529 17.7012 74.5121 15.7517C72.428 13.5448 70.0484 11.6087 67.78 9.59662C74.0373 15.1499 77.9652 22.9476 79.0803 31.2067C80.2006 39.504 78.5546 48.2248 74.7271 55.6561C70.9238 63.0402 65.2586 69.358 58.2262 73.8024C51.2412 78.2171 43.0709 80.66 34.788 80.4281C27.2543 80.1907 19.8581 77.6745 13.9501 72.9501C13.5072 72.5954 13.073 72.2296 12.6484 71.8528C15.6377 74.505 18.5259 77.3167 21.9494 79.4135C25.09 81.3365 28.5431 82.7289 32.1287 83.5612C40.0678 85.4027 48.4955 84.4964 56.0024 81.3957C63.4991 78.2987 70.0983 73.13 74.9835 66.6622C79.5307 60.6434 82.5719 53.5035 83.6141 46.0241Z" fill="#1E1A17"/>
<path opacity="0.5" d="M56.0026 81.3949C58.6217 80.3128 61.1282 78.9723 63.4937 77.4175L60.6348 74.3972C60.2908 74.6281 59.9453 74.858 59.5947 75.0799C52.4693 79.5827 44.1359 82.0748 35.6876 81.8385C29.697 81.6499 23.7955 80.0421 18.6289 77.0621C19.6914 77.904 20.7886 78.7016 21.9495 79.4131C25.0902 81.3361 28.5433 82.7286 32.1289 83.5609C40.068 85.4024 48.4957 84.4961 56.0026 81.3949Z" fill="url(#paint0_linear_1361_86)" fill-opacity="0.5"/>
<path d="M48.4187 1.20846C69.5928 3.43391 83.0807 22.9283 78.548 44.7541C74.0159 66.5771 53.1799 82.4667 32.0055 80.2416C10.8348 78.0161 -2.65558 58.5187 1.87652 36.696C6.40932 14.8695 27.2476 -1.017 48.4187 1.20846Z" fill="#FEFBF4"/>
<path opacity="0.2" d="M48.2704 2.12375C27.8374 -0.0239435 7.7244 15.3089 3.35022 36.3743C3.01269 38 2.77906 39.612 2.64453 41.2037C11.2181 47.3818 21.5688 51.4542 33.1881 52.6757C48.7095 54.3073 64.13 50.6054 77.5671 43.0169C81.2521 22.415 68.3387 4.2329 48.2704 2.12375Z" fill="#FEFBF4"/>
<mask id="path-5-outside-1_1361_86" maskUnits="userSpaceOnUse" x="0" y="0" width="81" height="82" fill="black">
<rect fill="white" width="81" height="82"/>
<path d="M44.444 4.44312C45.6486 4.44312 46.8649 4.50676 48.0588 4.63235C56.9885 5.57098 64.7242 9.94757 69.8416 16.9563C72.5009 20.5979 74.3272 24.754 75.2693 29.3081C76.253 34.0604 76.222 39.0216 75.1771 44.0533C73.2895 53.1416 68.21 61.5128 60.8737 67.6252C53.6142 73.674 44.7746 77.0057 35.9839 77.0057C34.7769 77.0057 33.5596 76.942 32.3657 76.8164C23.4374 75.8778 15.702 71.5008 10.5843 64.4914C7.92495 60.8491 6.09862 56.6931 5.15587 52.1389C4.17217 47.3863 4.20279 42.4262 5.24808 37.3948C7.13497 28.3058 12.2152 19.9346 19.5518 13.8225C26.811 7.77476 35.6505 4.44346 44.4433 4.44277H44.444M44.4405 1C24.6977 1.00172 6.12443 16.2403 1.87652 36.6953C-2.65558 58.5184 10.8348 78.0159 32.0055 80.241C33.3356 80.3807 34.6607 80.4491 35.9839 80.4491C55.7292 80.4491 74.3007 65.2061 78.548 44.7535C83.0807 22.9277 69.5928 3.43326 48.4187 1.20781C47.0892 1.06846 45.7638 1 44.4405 1Z"/>
</mask>
<path d="M48.0588 4.63235L47.9542 5.62686L47.9542 5.62687L48.0588 4.63235ZM69.8416 16.9563L69.034 17.546L69.034 17.546L69.8416 16.9563ZM75.2693 29.3081L74.29 29.5107L74.2901 29.5108L75.2693 29.3081ZM75.1771 44.0533L76.1562 44.2566L76.1562 44.2566L75.1771 44.0533ZM60.8737 67.6252L60.2336 66.857L60.2336 66.857L60.8737 67.6252ZM32.3657 76.8164L32.4703 75.8219L32.4703 75.8219L32.3657 76.8164ZM10.5843 64.4914L9.77663 65.0811H9.77663L10.5843 64.4914ZM5.15587 52.1389L4.17662 52.3416L4.17663 52.3416L5.15587 52.1389ZM5.24808 37.3948L6.22717 37.5982L6.2272 37.5981L5.24808 37.3948ZM19.5518 13.8225L20.1919 14.5908L20.1919 14.5908L19.5518 13.8225ZM44.4433 4.44277V3.44277H44.4432L44.4433 4.44277ZM44.4405 1V0H44.4404L44.4405 1ZM1.87652 36.6953L2.85563 36.8986L2.85563 36.8986L1.87652 36.6953ZM32.0055 80.241L31.9009 81.2355L31.901 81.2355L32.0055 80.241ZM78.548 44.7535L77.5688 44.5501V44.5501L78.548 44.7535ZM48.4187 1.20781L48.5232 0.213288L48.5229 0.213258L48.4187 1.20781ZM44.444 4.44312V5.44312C45.6138 5.44312 46.7951 5.50495 47.9542 5.62686L48.0588 4.63235L48.1634 3.63784C46.9346 3.50858 45.6834 3.44312 44.444 3.44312V4.44312ZM48.0588 4.63235L47.9542 5.62687C56.6139 6.53712 64.0897 10.7743 69.034 17.546L69.8416 16.9563L70.6492 16.3666C65.3588 9.12082 57.363 4.60483 48.1633 3.63783L48.0588 4.63235ZM69.8416 16.9563L69.034 17.546C71.6065 21.0687 73.376 25.0919 74.29 29.5107L75.2693 29.3081L76.2486 29.1055C75.2785 24.4161 73.3954 20.1272 70.6492 16.3666L69.8416 16.9563ZM75.2693 29.3081L74.2901 29.5108C75.2444 34.1214 75.2168 38.9441 74.198 43.8499L75.1771 44.0533L76.1562 44.2566C77.2273 39.099 77.2616 33.9994 76.2486 29.1054L75.2693 29.3081ZM75.1771 44.0533L74.198 43.8499C72.3578 52.7102 67.4017 60.8847 60.2336 66.857L60.8737 67.6252L61.5138 68.3935C69.0183 62.141 74.2213 53.5729 76.1562 44.2566L75.1771 44.0533ZM60.8737 67.6252L60.2336 66.857C53.1392 72.7681 44.5225 76.0057 35.9839 76.0057V77.0057V78.0057C45.0268 78.0057 54.0891 74.5799 61.5139 68.3935L60.8737 67.6252ZM35.9839 77.0057V76.0057C34.8117 76.0057 33.6293 75.9438 32.4703 75.8219L32.3657 76.8164L32.2611 77.8109C33.49 77.9402 34.7422 78.0057 35.9839 78.0057V77.0057ZM32.3657 76.8164L32.4703 75.8219C23.812 74.9117 16.3366 70.6742 11.3919 63.9018L10.5843 64.4914L9.77663 65.0811C15.0674 72.3275 23.0628 76.8439 32.2611 77.8109L32.3657 76.8164ZM10.5843 64.4914L11.3919 63.9018C8.81942 60.3783 7.04986 56.3551 6.13511 51.9362L5.15587 52.1389L4.17663 52.3416C5.14738 57.031 7.03048 61.3199 9.77663 65.0811L10.5843 64.4914ZM5.15587 52.1389L6.13511 51.9363C5.18073 47.3253 5.20806 42.5036 6.22717 37.5982L5.24808 37.3948L4.26899 37.1914C3.19752 42.3487 3.1636 47.4473 4.17662 52.3416L5.15587 52.1389ZM5.24808 37.3948L6.2272 37.5981C8.06674 28.7372 13.0234 20.5628 20.1919 14.5908L19.5518 13.8225L18.9117 13.0542C11.4069 19.3064 6.20319 27.8745 4.26896 37.1915L5.24808 37.3948ZM19.5518 13.8225L20.1919 14.5908C27.2859 8.68071 35.9026 5.44344 44.4434 5.44277L44.4433 4.44277L44.4432 3.44277C35.3984 3.44348 26.3362 6.86881 18.9117 13.0542L19.5518 13.8225ZM44.4433 4.44277V5.44277H44.444V4.44277V3.44277H44.4433V4.44277ZM44.4405 1L44.4404 0C24.2041 0.00176334 5.23761 15.5925 0.897414 36.492L1.87652 36.6953L2.85563 36.8986C7.01124 16.888 25.1914 2.00168 44.4406 2L44.4405 1ZM1.87652 36.6953L0.897415 36.492C-3.74464 58.8445 10.0921 78.9433 31.9009 81.2355L32.0055 80.241L32.11 79.2464C11.5774 77.0884 -1.56652 58.1923 2.85563 36.8986L1.87652 36.6953ZM32.0055 80.241L31.901 81.2355C33.2662 81.3789 34.626 81.4491 35.9839 81.4491V80.4491V79.4491C34.6953 79.4491 33.4051 79.3825 32.1099 79.2464L32.0055 80.241ZM35.9839 80.4491V81.4491C56.2229 81.4491 75.1876 65.8537 79.5271 44.9568L78.548 44.7535L77.5688 44.5501C73.4139 64.5585 55.2354 79.4491 35.9839 79.4491V80.4491ZM78.548 44.7535L79.5271 44.9568C84.1698 22.6015 70.3355 2.50581 48.5232 0.213288L48.4187 1.20781L48.3142 2.20233C68.8502 4.36071 81.9917 23.2538 77.5688 44.5501L78.548 44.7535ZM48.4187 1.20781L48.5229 0.213258C47.1586 0.0702557 45.7984 0 44.4405 0V1V2C45.7292 2 47.0198 2.06667 48.3144 2.20236L48.4187 1.20781Z" fill="black" mask="url(#path-5-outside-1_1361_86)"/>
<path d="M47.6328 18.8001L48.29 18.8548L48.749 18.9095C51.0183 19.2167 52.9283 20.0034 54.4541 21.2884C55.9797 22.5731 57.0906 24.331 57.8037 26.5335L57.9414 26.9798V26.9807C58.1113 27.5685 57.8146 28.2257 57.252 28.4895L57.1357 28.5364L52.5293 30.1458L52.5244 30.1477C52.3519 30.206 52.1647 30.2303 51.9814 30.2112C51.6169 30.1731 51.1984 29.9348 51.1299 29.4202C50.9508 28.125 50.5306 27.1803 49.9111 26.5325C49.2959 25.8893 48.4394 25.4918 47.2949 25.3714C45.9452 25.2297 44.784 25.6054 43.791 26.4622L43.79 26.4632C42.8044 27.3078 42.0702 28.7306 41.6592 30.7093C41.4347 31.7906 41.3156 33.1948 41.334 34.7971L41.3506 35.4954V35.4993C41.3551 35.6662 41.3988 35.8542 41.4697 35.9886C41.5039 36.0533 41.5364 36.0898 41.5576 36.1077C41.5674 36.1159 41.5736 36.1197 41.5752 36.1204H41.5762L47.1416 36.7054H47.1436C47.1808 36.7094 47.2195 36.7133 47.2646 36.7171C47.3079 36.7207 47.3582 36.7244 47.4082 36.7298H47.4072C47.5351 36.7433 47.7816 36.7713 47.9814 36.9065C48.0991 36.9861 48.2066 37.1056 48.2637 37.2708C48.3179 37.4282 48.3121 37.5844 48.2842 37.719L47.5 41.4964C47.4354 41.8079 47.2143 42.1767 46.9893 42.4466C46.8709 42.5884 46.7288 42.7313 46.5723 42.8391C46.4289 42.9379 46.1993 43.058 45.9297 43.0296V43.0286L40.3652 42.4446V42.4436C40.2934 42.4362 40.2245 42.4266 40.1699 42.4182C40.1567 42.4162 40.1444 42.4141 40.1328 42.4124C39.5511 45.0364 38.9463 46.7792 38.2041 48.095L38.0508 48.3577C37.3511 49.5192 36.2783 50.5926 34.8389 51.7483L40.6191 52.3567C42.5019 52.5547 44.0506 52.6579 45.2939 52.6116C46.546 52.565 47.427 52.3671 48.0166 52.012C49.1648 51.3176 49.9282 50.5423 50.4551 49.1721V49.1712C50.6293 48.7224 51.0771 48.4502 51.5273 48.4973H51.5283C51.6826 48.5138 51.8396 48.5683 51.9785 48.6692H51.9775L56.2617 51.7112L56.2637 51.7132C56.4853 51.8723 56.671 52.1012 56.748 52.3889C56.8276 52.6863 56.7772 52.9981 56.6064 53.2776C55.453 55.1653 54.19 56.6285 52.7939 57.7932C51.4311 58.9307 50.0495 59.6365 48.6191 60.097L48.0029 60.2796C46.3044 60.7406 44.1688 60.5408 41.6123 60.2727L21.041 58.1106C20.9767 58.1038 20.8793 58.1031 20.7285 58.1028C20.5944 58.1026 20.4233 58.1025 20.2656 58.0862H20.2646C20.1323 58.0722 19.9294 58.0406 19.7568 57.9329C19.6609 57.873 19.555 57.7775 19.4893 57.6331C19.4223 57.4859 19.4183 57.3352 19.4453 57.2044V57.2034L20.5361 51.9524V51.9514C20.6209 51.5445 20.9488 51.2865 21.2051 51.1497C21.474 51.0062 21.8103 50.9157 22.1084 50.9378H22.1074C23.9942 51.0693 25.6482 51.0506 26.6846 50.8411L26.8838 50.7962C27.9775 50.5203 29.0411 49.8538 30.0928 48.6839L30.2852 48.4641C31.2207 47.3625 31.8074 46.2078 32.0781 44.9016L32.1777 44.3489C32.2758 43.7242 32.3751 42.8584 32.502 41.6321C32.4994 41.6314 32.4969 41.6299 32.4941 41.6292C32.4449 41.6165 32.3794 41.6061 32.293 41.597L29.2373 41.2757V41.2747C28.9386 41.2432 28.7477 41.0508 28.6426 40.888C28.5383 40.7263 28.4786 40.5394 28.4434 40.3753C28.3733 40.049 28.3691 39.6665 28.4258 39.3929L29.21 35.6155V35.6145C29.2563 35.3926 29.3656 35.1402 29.6309 35.0022C29.8545 34.886 30.0936 34.9113 30.2061 34.9231H30.208C30.2502 34.9277 30.2946 34.9329 30.333 34.9378C30.3732 34.9429 30.4111 34.9474 30.4492 34.9514H30.4482L32.8838 35.2073C32.9052 35.1933 32.9418 35.163 32.9834 35.1077C33.0758 34.9846 33.1304 34.8307 33.1377 34.7376C33.2748 32.8801 33.4851 31.2661 33.6904 30.2757L33.8447 29.5989C34.6702 26.2615 36.3523 23.5664 38.8965 21.5462C41.4475 19.5179 44.3707 18.6015 47.6328 18.8001Z" stroke="black"/>
<defs>
<linearGradient id="paint0_linear_1361_86" x1="50.936" y1="56.6555" x2="33.0565" y2="93.9266" gradientUnits="userSpaceOnUse">
<stop stop-color="#E08C3C"/>
<stop offset="1" stop-color="#FFD06F"/>
</linearGradient>
</defs>
</svg>
