<svg width="119" height="92" viewBox="0 0 119 92" fill="none" xmlns="http://www.w3.org/2000/svg">
<path d="M9.30774 46.0241C8.17024 37.8779 9.52725 29.3656 13.6437 22.1972C14.978 19.873 16.569 17.7012 18.4098 15.7517C20.4938 13.5448 22.8734 11.6087 25.1419 9.59662C18.8846 15.1499 14.9567 22.9476 13.8416 31.2067C12.7213 39.504 14.3673 48.2248 18.1947 55.6561C21.9981 63.0402 27.6632 69.358 34.6957 73.8024C41.6807 78.2171 49.851 80.66 58.1338 80.4281C65.6676 80.1907 73.0638 77.6745 78.9718 72.9501C79.4146 72.5954 79.8489 72.2296 80.2734 71.8528C77.2841 74.505 74.396 77.3167 70.9725 79.4135C67.8318 81.3365 64.3787 82.7289 60.7932 83.5612C52.8541 85.4027 44.4264 84.4964 36.9194 81.3957C29.4228 78.2987 22.8235 73.13 17.9384 66.6622C13.3912 60.6434 10.3499 53.5035 9.30774 46.0241Z" fill="#1E1A17"/>
<path opacity="0.5" d="M36.9193 81.3949C34.3002 80.3128 31.7936 78.9723 29.4282 77.4175L32.287 74.3972C32.6311 74.6281 32.9766 74.8579 33.3272 75.0799C40.4525 79.5827 48.7859 82.0748 57.2343 81.8384C63.2249 81.6499 69.1264 80.042 74.293 77.062C73.2305 77.904 72.1332 78.7015 70.9723 79.4131C67.8317 81.3361 64.3786 82.7286 60.793 83.5609C52.8539 85.4023 44.4262 84.496 36.9193 81.3949Z" fill="url(#paint0_linear_1361_74)" fill-opacity="0.5"/>
<path d="M44.5032 1.20849C23.329 3.43394 9.84113 22.9283 14.3739 44.7541C18.906 66.5772 39.7419 82.4667 60.9164 80.2416C82.0871 78.0162 95.5775 58.5187 91.0454 36.696C86.5126 14.8695 65.6742 -1.01697 44.5032 1.20849Z" fill="#FEFBF4"/>
<path opacity="0.2" d="M44.6514 2.12375C65.0845 -0.0239435 85.1975 15.3089 89.5717 36.3743C89.9092 38 90.1428 39.612 90.2773 41.2037C81.7038 47.3818 71.3531 51.4542 59.7338 52.6757C44.2124 54.3073 28.7918 50.6054 15.3548 43.0169C11.6698 22.415 24.5832 4.2329 44.6514 2.12375Z" fill="#FEFBF4"/>
<mask id="path-5-outside-1_1361_74" maskUnits="userSpaceOnUse" x="11.9219" y="0" width="81" height="82" fill="black">
<rect fill="white" x="11.9219" width="81" height="82"/>
<path d="M48.4779 4.44312C47.2733 4.44312 46.057 4.50676 44.8631 4.63235C35.9334 5.57098 28.1977 9.94757 23.0803 16.9563C20.421 20.5979 18.5946 24.754 17.6526 29.3081C16.6689 34.0604 16.6998 39.0216 17.7448 44.0533C19.6324 53.1416 24.7119 61.5128 32.0482 67.6252C39.3077 73.674 48.1473 77.0057 56.9379 77.0057C58.1449 77.0057 59.3622 76.942 60.5562 76.8164C69.4845 75.8778 77.2199 71.5008 82.3376 64.4914C84.9969 60.8491 86.8233 56.6931 87.766 52.1389C88.7497 47.3863 88.7191 42.4262 87.6738 37.3948C85.7869 28.3058 80.7067 19.9346 73.3701 13.8225C66.1109 7.77476 57.2713 4.44346 48.4786 4.44277H48.4779M48.4813 1C68.2241 1.00172 86.7974 16.2403 91.0454 36.6953C95.5775 58.5184 82.0871 78.0159 60.9164 80.241C59.5862 80.3807 58.2612 80.4491 56.9379 80.4491C37.1927 80.4491 18.6211 65.2061 14.3739 44.7535C9.84113 22.9277 23.329 3.43326 44.5032 1.20781C45.8327 1.06846 47.158 1 48.4813 1Z"/>
</mask>
<path d="M44.8631 4.63235L44.9677 5.62686L44.9676 5.62687L44.8631 4.63235ZM23.0803 16.9563L23.8879 17.546L23.8879 17.546L23.0803 16.9563ZM17.6526 29.3081L18.6318 29.5107L18.6318 29.5108L17.6526 29.3081ZM17.7448 44.0533L16.7657 44.2566L16.7657 44.2566L17.7448 44.0533ZM32.0482 67.6252L32.6883 66.857L32.6883 66.857L32.0482 67.6252ZM60.5562 76.8164L60.4516 75.8219L60.4516 75.8219L60.5562 76.8164ZM82.3376 64.4914L83.1452 65.0811H83.1452L82.3376 64.4914ZM87.766 52.1389L88.7453 52.3416L88.7452 52.3416L87.766 52.1389ZM87.6738 37.3948L86.6947 37.5982L86.6947 37.5981L87.6738 37.3948ZM73.3701 13.8225L72.73 14.5908L72.73 14.5908L73.3701 13.8225ZM48.4786 4.44277V3.44277H48.4787L48.4786 4.44277ZM48.4813 1V0H48.4814L48.4813 1ZM91.0454 36.6953L90.0662 36.8986L90.0662 36.8986L91.0454 36.6953ZM60.9164 80.241L61.0209 81.2355L61.0209 81.2355L60.9164 80.241ZM14.3739 44.7535L15.353 44.5501V44.5501L14.3739 44.7535ZM44.5032 1.20781L44.3987 0.213288L44.3989 0.213258L44.5032 1.20781ZM48.4779 4.44312V5.44312C47.3081 5.44312 46.1267 5.50495 44.9677 5.62686L44.8631 4.63235L44.7585 3.63784C45.9873 3.50858 47.2385 3.44312 48.4779 3.44312V4.44312ZM44.8631 4.63235L44.9676 5.62687C36.3079 6.53712 28.8322 10.7743 23.8879 17.546L23.0803 16.9563L22.2727 16.3666C27.5631 9.12082 35.5589 4.60483 44.7586 3.63783L44.8631 4.63235ZM23.0803 16.9563L23.8879 17.546C21.3154 21.0687 19.5459 25.0919 18.6318 29.5107L17.6526 29.3081L16.6733 29.1055C17.6434 24.4161 19.5265 20.1272 22.2727 16.3666L23.0803 16.9563ZM17.6526 29.3081L18.6318 29.5108C17.6774 34.1214 17.7051 38.9441 18.7239 43.8499L17.7448 44.0533L16.7657 44.2566C15.6946 39.099 15.6603 33.9994 16.6733 29.1054L17.6526 29.3081ZM17.7448 44.0533L18.7239 43.8499C20.5641 52.7102 25.5202 60.8847 32.6883 66.857L32.0482 67.6252L31.408 68.3935C23.9036 62.141 18.7006 53.5729 16.7657 44.2566L17.7448 44.0533ZM32.0482 67.6252L32.6883 66.857C39.7826 72.7681 48.3994 76.0057 56.9379 76.0057V77.0057V78.0057C47.8951 78.0057 38.8328 74.5799 31.408 68.3935L32.0482 67.6252ZM56.9379 77.0057V76.0057C58.1102 76.0057 59.2926 75.9438 60.4516 75.8219L60.5562 76.8164L60.6608 77.8109C59.4319 77.9402 58.1797 78.0057 56.9379 78.0057V77.0057ZM60.5562 76.8164L60.4516 75.8219C69.1099 74.9117 76.5853 70.6742 81.53 63.9018L82.3376 64.4914L83.1452 65.0811C77.8545 72.3275 69.8591 76.8439 60.6607 77.8109L60.5562 76.8164ZM82.3376 64.4914L81.53 63.9018C84.1025 60.3783 85.872 56.3551 86.7868 51.9362L87.766 52.1389L88.7452 52.3416C87.7745 57.031 85.8914 61.3199 83.1452 65.0811L82.3376 64.4914ZM87.766 52.1389L86.7868 51.9363C87.7411 47.3253 87.7138 42.5036 86.6947 37.5982L87.6738 37.3948L88.6529 37.1914C89.7244 42.3487 89.7583 47.4473 88.7453 52.3416L87.766 52.1389ZM87.6738 37.3948L86.6947 37.5981C84.8551 28.7372 79.8984 20.5628 72.73 14.5908L73.3701 13.8225L74.0101 13.0542C81.515 19.3064 86.7187 27.8745 88.6529 37.1915L87.6738 37.3948ZM73.3701 13.8225L72.73 14.5908C65.636 8.68071 57.0192 5.44344 48.4785 5.44277L48.4786 4.44277L48.4787 3.44277C57.5234 3.44348 66.5857 6.86881 74.0102 13.0542L73.3701 13.8225ZM48.4786 4.44277V5.44277H48.4779V4.44277V3.44277H48.4786V4.44277ZM48.4813 1L48.4814 0C68.7178 0.00176334 87.6843 15.5925 92.0245 36.492L91.0454 36.6953L90.0662 36.8986C85.9106 16.888 67.7305 2.00168 48.4813 2L48.4813 1ZM91.0454 36.6953L92.0245 36.492C96.6665 58.8445 82.8298 78.9433 61.0209 81.2355L60.9164 80.241L60.8119 79.2464C81.3444 77.0884 94.4884 58.1923 90.0662 36.8986L91.0454 36.6953ZM60.9164 80.241L61.0209 81.2355C59.6557 81.3789 58.2958 81.4491 56.9379 81.4491V80.4491V79.4491C58.2266 79.4491 59.5168 79.3825 60.812 79.2464L60.9164 80.241ZM56.9379 80.4491V81.4491C36.6989 81.4491 17.7343 65.8537 13.3948 44.9568L14.3739 44.7535L15.353 44.5501C19.508 64.5585 37.6865 79.4491 56.9379 79.4491V80.4491ZM14.3739 44.7535L13.3948 44.9568C8.75206 22.6015 22.5864 2.50581 44.3987 0.213288L44.5032 1.20781L44.6077 2.20233C24.0717 4.36071 10.9302 23.2538 15.353 44.5501L14.3739 44.7535ZM44.5032 1.20781L44.3989 0.213258C45.7633 0.0702557 47.1235 0 48.4813 0V1V2C47.1926 2 45.9021 2.06667 44.6074 2.20236L44.5032 1.20781Z" fill="black" mask="url(#path-5-outside-1_1361_74)"/>
<path d="M53.2023 16.9721L53.828 16.7637L54.2714 16.6333C56.4785 16.0225 58.5439 15.9939 60.4523 16.5746C62.3604 17.1551 64.0736 18.3339 65.5961 20.0778L65.8983 20.4339L65.8987 20.4348C66.2862 20.9082 66.2722 21.6292 65.8588 22.0931L65.7704 22.182L62.1693 25.4746L62.1656 25.4783C62.0299 25.5998 61.8674 25.6958 61.6914 25.7504C61.3413 25.8589 60.8628 25.8045 60.5973 25.3584C59.9228 24.2383 59.1647 23.5352 58.3403 23.1835C57.5216 22.8344 56.5777 22.8061 55.4782 23.1459C54.1817 23.5469 53.2621 24.3494 52.6865 25.5279L52.686 25.5292C52.1124 26.6936 51.9975 28.2905 52.3985 30.2712C52.6178 31.3536 53.0609 32.6914 53.7086 34.1571L53.9987 34.7925L54.0002 34.7961C54.07 34.9478 54.1843 35.1033 54.3023 35.1989C54.3592 35.245 54.4035 35.2657 54.43 35.2739C54.4422 35.2776 54.4494 35.2786 54.4512 35.2786L54.4521 35.2782L59.7985 33.6253L59.8003 33.6246C59.8361 33.6136 59.8732 33.6019 59.9162 33.5877C59.9574 33.574 60.0051 33.5576 60.0532 33.5428L60.0523 33.5432C60.1751 33.5054 60.4128 33.4341 60.6497 33.4797C60.7891 33.5066 60.9351 33.5741 61.0525 33.7035C61.1644 33.8268 61.2205 33.9727 61.2478 34.1074L62.0137 37.8885C62.077 38.2004 62.0189 38.6264 61.9182 38.9631C61.8653 39.14 61.7909 39.3273 61.6894 39.4881C61.5965 39.6353 61.4327 39.8361 61.1737 39.9161L61.1733 39.9152L55.8282 41.5686L55.8278 41.5677C55.7588 41.5891 55.6917 41.6074 55.6382 41.6212C55.6253 41.6246 55.6131 41.6275 55.6018 41.6304C56.0999 44.2716 56.2299 46.1118 56.0656 47.6135L56.028 47.9153C55.842 49.2584 55.2783 50.6675 54.41 52.2965L59.9631 50.5806C61.7718 50.0215 63.2361 49.5068 64.3609 48.9748C65.4935 48.4391 66.2255 47.9104 66.6277 47.3519C67.41 46.2616 67.8065 45.2485 67.7516 43.7815L67.7512 43.7806C67.7347 43.2996 68.0392 42.873 68.4717 42.7391L68.4726 42.7388C68.6209 42.6932 68.7866 42.6815 68.9541 42.7195L68.9532 42.7199L74.0889 43.83L74.0914 43.8311C74.3579 43.8901 74.6187 44.0275 74.8027 44.2616C74.9929 44.5037 75.0693 44.8102 75.0223 45.1343C74.7051 47.3236 74.1199 49.1658 73.295 50.7861C72.4899 52.3682 71.4976 53.5608 70.364 54.5471L69.8694 54.9575C68.4894 56.0499 66.4476 56.7068 63.992 57.4667L44.2302 63.5762C44.1684 63.5953 44.0786 63.6329 43.9399 63.6921C43.8165 63.7447 43.6591 63.8119 43.5078 63.859L43.5069 63.8594C43.3797 63.8986 43.1808 63.9494 42.9798 63.9183C42.8679 63.901 42.7331 63.8549 42.6158 63.748C42.4963 63.6391 42.4333 63.5021 42.4066 63.3712L42.4063 63.3703L41.3422 58.1139L41.3418 58.113C41.2596 57.7055 41.4594 57.3392 41.6411 57.1126C41.8319 56.8749 42.1054 56.6593 42.3881 56.5623L42.3872 56.5627C44.1734 55.9409 45.6866 55.2727 46.5568 54.6721L46.7223 54.5524C47.6191 53.8684 48.3346 52.837 48.8408 51.3475L48.9312 51.0698C49.3576 49.6888 49.4424 48.3965 49.1771 47.0892L49.0512 46.5419C48.8954 45.929 48.6459 45.0939 48.2798 43.9167C48.2772 43.9171 48.2743 43.9167 48.2715 43.9171C48.2213 43.9248 48.1569 43.941 48.0739 43.9667L45.1384 44.8741L45.138 44.8732C44.8511 44.9618 44.5998 44.8601 44.4391 44.7518C44.2796 44.6443 44.1512 44.4959 44.0542 44.3589C43.8613 44.0865 43.7069 43.7366 43.6513 43.4627L42.8854 39.6816L42.885 39.6807C42.8402 39.4585 42.8413 39.1834 43.0309 38.9522C43.1908 38.7573 43.4205 38.6864 43.5285 38.653L43.5303 38.6523C43.5709 38.6399 43.6138 38.6271 43.651 38.6165C43.69 38.6054 43.7266 38.5947 43.7632 38.5834L43.7623 38.5837L46.102 37.8603C46.1162 37.8389 46.1379 37.7967 46.1543 37.7295C46.1908 37.5799 46.1804 37.417 46.1505 37.3285C45.5454 35.5671 45.1034 34.0005 44.9023 33.0092L44.7778 32.3264C44.2229 28.9334 44.7084 25.7938 46.2521 22.9353C47.7988 20.0666 50.1253 18.0736 53.2023 16.9721Z" stroke="black"/>
<path d="M117.922 64.1955C107.422 62.1957 100.422 76.1955 100.422 76.1955C73.9219 50.6955 58.3142 81.6275 58.4219 80.6955C53.4219 67.1957 15.4219 56.1957 0.921875 90.6955" stroke="black" strokeWidth="2"/>
<path d="M100.422 76.1955C100.422 76.1955 107.422 62.1957 117.922 64.1955V90.6955H0.921875C15.4219 56.1957 53.4219 67.1957 58.4219 80.6955C58.3142 81.6275 73.9219 50.6955 100.422 76.1955Z" fill="url(#paint1_linear_1361_74)"/>
<defs>
<linearGradient id="paint0_linear_1361_74" x1="41.9859" y1="56.6555" x2="59.8654" y2="93.9266" gradientUnits="userSpaceOnUse">
<stop stop-color="#E08C3C"/>
<stop offset="1" stop-color="#FFD06F"/>
</linearGradient>
<linearGradient id="paint1_linear_1361_74" x1="117.922" y1="77.3478" x2="0.921875" y2="77.3478" gradientUnits="userSpaceOnUse">
<stop stop-color="#D6E3D5"/>
<stop offset="1" stop-color="#D7E3D6"/>
</linearGradient>
</defs>
</svg>
