<svg width="64" height="64" viewBox="0 0 64 64" fill="none" xmlns="http://www.w3.org/2000/svg">
<rect width="64" height="64" rx="10" fill="#CFF3E2"/>
<path fill-rule="evenodd" clip-rule="evenodd" d="M36.7617 13.3467V16.7619C36.7617 17.5197 37.0627 18.2464 37.5986 18.7822C38.1344 19.318 38.8611 19.6191 39.6189 19.6191H43.0331L36.7617 13.3467Z" fill="#1E1A17"/>
<path fill-rule="evenodd" clip-rule="evenodd" d="M44.3809 32.9952V22.1486C44.3809 21.9371 44.3571 21.7276 44.3114 21.5238H39.62C38.3571 21.5238 37.1458 21.0221 36.2528 20.1291C35.3598 19.2361 34.8581 18.0248 34.8581 16.7619V12.0695C34.6528 12.0229 34.4429 11.9996 34.2324 12H14.8571C14.0994 12 13.3727 12.301 12.8368 12.8368C12.301 13.3727 12 14.0994 12 14.8571V49.1429C12 49.9006 12.301 50.6273 12.8368 51.1632C13.3727 51.699 14.0994 52 14.8571 52H37.4086C36.0319 51.0344 34.9082 49.7512 34.1326 48.2592C33.3571 46.7671 32.9526 45.1101 32.9533 43.4286C32.9533 37.6467 37.6476 32.9524 43.4295 32.9524C43.7505 32.9524 44.0676 32.9667 44.3809 32.9952ZM16.2857 34.8571H33.9057C34.1583 34.8571 34.4005 34.7568 34.5791 34.5782C34.7578 34.3996 34.8581 34.1574 34.8581 33.9048C34.8581 33.6522 34.7578 33.4099 34.5791 33.2313C34.4005 33.0527 34.1583 32.9524 33.9057 32.9524H16.2857C16.0331 32.9524 15.7909 33.0527 15.6123 33.2313C15.4337 33.4099 15.3333 33.6522 15.3333 33.9048C15.3333 34.1574 15.4337 34.3996 15.6123 34.5782C15.7909 34.7568 16.0331 34.8571 16.2857 34.8571ZM16.2857 31.0476H39.619C39.8716 31.0476 40.1139 30.9473 40.2925 30.7687C40.4711 30.5901 40.5714 30.3478 40.5714 30.0952C40.5714 29.8427 40.4711 29.6004 40.2925 29.4218C40.1139 29.2432 39.8716 29.1429 39.619 29.1429H16.2857C16.0331 29.1429 15.7909 29.2432 15.6123 29.4218C15.4337 29.6004 15.3333 29.8427 15.3333 30.0952C15.3333 30.3478 15.4337 30.5901 15.6123 30.7687C15.7909 30.9473 16.0331 31.0476 16.2857 31.0476ZM16.2857 25.3333H39.619C39.8716 25.3333 40.1139 25.233 40.2925 25.0544C40.4711 24.8758 40.5714 24.6335 40.5714 24.381C40.5714 24.1284 40.4711 23.8861 40.2925 23.7075C40.1139 23.5289 39.8716 23.4286 39.619 23.4286H16.2857C16.0331 23.4286 15.7909 23.5289 15.6123 23.7075C15.4337 23.8861 15.3333 24.1284 15.3333 24.381C15.3333 24.6335 15.4337 24.8758 15.6123 25.0544C15.7909 25.233 16.0331 25.3333 16.2857 25.3333ZM16.2857 21.5238H32C32.2526 21.5238 32.4948 21.4235 32.6734 21.2449C32.852 21.0663 32.9524 20.824 32.9524 20.5714C32.9524 20.3188 32.852 20.0766 32.6734 19.898C32.4948 19.7194 32.2526 19.6191 32 19.6191H16.2857C16.0331 19.6191 15.7909 19.7194 15.6123 19.898C15.4337 20.0766 15.3333 20.3188 15.3333 20.5714C15.3333 20.824 15.4337 21.0663 15.6123 21.2449C15.7909 21.4235 16.0331 21.5238 16.2857 21.5238Z" fill="#1E1A17"/>
<path fill-rule="evenodd" clip-rule="evenodd" d="M43.4308 34.8569C48.1613 34.8569 52.0022 38.6979 52.0022 43.4284C52.0022 48.1588 48.1613 51.9998 43.4308 51.9998C38.7003 51.9998 34.8594 48.1588 34.8594 43.4284C34.8594 38.6979 38.7003 34.8569 43.4308 34.8569ZM38.7165 44.1017L41.4108 46.796C41.5894 46.9745 41.8316 47.0748 42.0841 47.0748C42.3367 47.0748 42.5789 46.9745 42.7575 46.796L48.1451 41.4084C48.5165 41.036 48.5165 40.4331 48.1451 40.0607C47.9662 39.8824 47.7239 39.7822 47.4713 39.7822C47.2187 39.7822 46.9764 39.8824 46.7975 40.0607L42.0841 44.775L40.0641 42.755C39.8856 42.5763 39.6433 42.4759 39.3907 42.4758C39.138 42.4757 38.8957 42.576 38.717 42.7546C38.5383 42.9331 38.4378 43.1754 38.4378 43.428C38.4377 43.6807 38.5379 43.923 38.7165 44.1017Z" fill="#1E1A17"/>
</svg>
