<svg width="64" height="64" viewBox="0 0 64 64" fill="none" xmlns="http://www.w3.org/2000/svg">
<rect width="64" height="64" rx="10" fill="#CFF3E2"/>
<path d="M19.7769 48.1783C19.7769 48.5122 19.9096 48.8325 20.1458 49.0687C20.3819 49.3048 20.7022 49.4375 21.0362 49.4375H43.702C44.036 49.4375 44.3563 49.3048 44.5924 49.0687C44.8286 48.8325 44.9613 48.5122 44.9613 48.1783V44.4006H19.7769V48.1783ZM48.244 23.2521C48.0565 23.1095 47.8329 23.0222 47.5984 23C47.3639 22.9777 47.1278 23.0214 46.9168 23.1262L38.0671 27.5511L33.5389 16.2307C33.4457 15.9966 33.2843 15.7959 33.0758 15.6545C32.8672 15.5131 32.6211 15.4375 32.3691 15.4375C32.1171 15.4375 31.871 15.5131 31.6624 15.6545C31.4539 15.7959 31.2925 15.9966 31.1993 16.2307L26.6711 27.5511L17.8214 23.1262C17.6105 23.021 17.3744 22.9771 17.1398 22.9994C16.9052 23.0218 16.6816 23.1095 16.4944 23.2526C16.3072 23.3957 16.1639 23.5885 16.0809 23.809C15.9978 24.0295 15.9782 24.2689 16.0245 24.5L19.4999 41.8822H45.2383L48.7137 24.5C48.7598 24.2691 48.7403 24.0298 48.6572 23.8095C48.5742 23.5891 48.4311 23.3964 48.244 23.2534V23.2521ZM32.3691 36.8453C31.6215 36.753 30.9397 36.3721 30.4691 35.7839C29.9986 35.1957 29.7766 34.4469 29.8507 33.6973C29.7766 32.9477 29.9986 32.1989 30.4691 31.6107C30.9397 31.0225 31.6215 30.6416 32.3691 30.5493C33.1167 30.6416 33.7985 31.0225 34.2691 31.6107C34.7396 32.1989 34.9616 32.9477 34.8875 33.6973C34.9616 34.4469 34.7396 35.1957 34.2691 35.7839C33.7985 36.3721 33.1167 36.753 32.3691 36.8453Z" fill="black"/>
</svg>
