<svg width="64" height="64" viewBox="0 0 64 64" fill="none" xmlns="http://www.w3.org/2000/svg">
<rect width="64" height="64" rx="10" fill="#CFF3E2"/>
<path fill-rule="evenodd" clip-rule="evenodd" d="M34.154 15.5012C33.4832 15.1715 32.7457 15 31.9983 15C31.2508 15 30.5133 15.1715 29.8425 15.5012L16.3178 22.1616C14.5607 23.027 14.5607 25.5196 16.3178 26.385L29.8425 33.0439C30.5133 33.3737 31.2508 33.5453 31.9983 33.5453C32.7458 33.5453 33.4833 33.3737 34.154 33.0439L47.6788 26.3835C49.4358 25.5181 49.4358 23.0255 47.6788 22.1601L34.154 15.5012ZM16.3951 29.8512C16.5013 29.7989 16.6181 29.7716 16.7366 29.7716C16.855 29.7716 16.9719 29.7989 17.0781 29.8512L29.8425 36.1361C30.5133 36.4658 31.2508 36.6373 31.9983 36.6373C32.7457 36.6373 33.4832 36.4658 34.154 36.1361L46.9185 29.8512C47.0247 29.7989 47.1416 29.7716 47.26 29.7716C47.3784 29.7716 47.4953 29.7989 47.6015 29.8512L47.6788 29.8883C49.4358 30.7537 49.4358 33.2479 47.6788 34.1117L34.154 40.7721C33.4832 41.1019 32.7457 41.2733 31.9983 41.2733C31.2508 41.2733 30.5133 41.1019 29.8425 40.7721L16.3178 34.1117C14.5607 33.2463 14.5607 30.7537 16.3178 29.8883L16.3951 29.8512ZM17.0781 37.5779C16.9719 37.5255 16.855 37.4983 16.7366 37.4983C16.6181 37.4983 16.5013 37.5255 16.3951 37.5779L16.3178 37.6165C14.5607 38.4819 14.5607 40.9745 16.3178 41.8399L29.8425 48.4988C30.5133 48.8285 31.2508 49 31.9983 49C32.7457 49 33.4832 48.8285 34.154 48.4988L47.6788 41.8384C49.4358 40.973 49.4358 38.4804 47.6788 37.615L47.6015 37.5779C47.4953 37.5255 47.3784 37.4983 47.26 37.4983C47.1416 37.4983 47.0247 37.5255 46.9185 37.5779L34.154 43.8628C33.4832 44.1925 32.7457 44.364 31.9983 44.364C31.2508 44.364 30.5133 44.1925 29.8425 43.8628L17.0781 37.5779Z" fill="#1E1A17"/>
</svg>
