<svg width="124" height="120" viewBox="0 0 124 120" fill="none" xmlns="http://www.w3.org/2000/svg">
<path d="M9.95227 46.0242C8.81477 37.878 10.1718 29.3656 14.2883 22.1973C15.6226 19.8731 17.2135 17.7013 19.0543 15.7518C21.1384 13.5449 23.518 11.6088 25.7864 9.59668C19.5291 15.15 15.6012 22.9477 14.4861 31.2068C13.3658 39.504 15.0118 48.2249 18.8393 55.6561C22.6426 63.0402 28.3078 69.3581 35.3402 73.8024C42.3252 78.2172 50.4955 80.6601 58.7784 80.4282C66.3121 80.1908 73.7083 77.6746 79.6163 72.9502C80.0592 72.5954 80.4934 72.2297 80.918 71.8529C77.9287 74.505 75.0405 77.3168 71.617 79.4135C68.4764 81.3365 65.0233 82.729 61.4377 83.5613C53.4986 85.4028 45.0709 84.4965 37.564 81.3957C30.0674 78.2987 23.4681 73.1301 18.5829 66.6623C14.0357 60.6434 10.9945 53.5036 9.95227 46.0242Z" fill="#1E1A17"/>
<path opacity="0.5" d="M37.5638 81.3952C34.9447 80.3131 32.4382 78.9726 30.0727 77.4177L32.9316 74.3975C33.2757 74.6283 33.6211 74.8582 33.9717 75.0801C41.0971 79.583 49.4305 82.075 57.8788 81.8387C63.8694 81.6501 69.7709 80.0423 74.9375 77.0623C73.875 77.9042 72.7778 78.7018 71.6169 79.4133C68.4762 81.3363 65.0231 82.7288 61.4375 83.5611C53.4984 85.4026 45.0707 84.4963 37.5638 81.3952Z" fill="url(#paint0_linear_1361_188)" fill-opacity="0.5"/>
<path d="M45.1477 1.20849C23.9736 3.43394 10.4857 22.9283 15.0184 44.7541C19.5506 66.5772 40.3865 82.4667 61.5609 80.2416C82.7316 78.0162 96.222 58.5187 91.6899 36.696C87.1571 14.8695 66.3188 -1.01697 45.1477 1.20849Z" fill="#FEFBF4"/>
<path opacity="0.2" d="M45.296 2.12381C65.729 -0.0238825 85.842 15.309 90.2162 36.3744C90.5537 38.0001 90.7873 39.6121 90.9219 41.2038C82.3483 47.3819 71.9976 51.4543 60.3783 52.6758C44.857 54.3073 29.4364 50.6055 15.9994 43.017C12.3144 22.4151 25.2277 4.23297 45.296 2.12381Z" fill="#FEFBF4"/>
<mask id="path-5-outside-1_1361_188" maskUnits="userSpaceOnUse" x="12.5664" y="0" width="81" height="82" fill="black">
<rect fill="white" x="12.5664" width="81" height="82"/>
<path d="M49.1224 4.44312C47.9178 4.44312 46.7015 4.50676 45.5076 4.63235C36.5779 5.57098 28.8422 9.94757 23.7248 16.9563C21.0655 20.5979 19.2392 24.754 18.2971 29.3081C17.3134 34.0604 17.3444 39.0216 18.3893 44.0533C20.2769 53.1416 25.3564 61.5128 32.6927 67.6252C39.9522 73.674 48.7918 77.0057 57.5825 77.0057C58.7895 77.0057 60.0068 76.942 61.2007 76.8164C70.129 75.8778 77.8644 71.5008 82.9821 64.4914C85.6415 60.8491 87.4678 56.6931 88.4105 52.1389C89.3942 47.3863 89.3636 42.4262 88.3183 37.3948C86.4314 28.3058 81.3512 19.9346 74.0146 13.8225C66.7554 7.77476 57.9159 4.44346 49.1231 4.44277H49.1224M49.1259 1C68.8687 1.00172 87.442 16.2403 91.6899 36.6953C96.222 58.5184 82.7316 78.0159 61.5609 80.241C60.2308 80.3807 58.9058 80.4491 57.5825 80.4491C37.8372 80.4491 19.2657 65.2061 15.0184 44.7535C10.4857 22.9277 23.9736 3.43326 45.1477 1.20781C46.4772 1.06846 47.8026 1 49.1259 1Z"/>
</mask>
<path d="M45.5076 4.63235L45.6122 5.62686L45.6122 5.62687L45.5076 4.63235ZM23.7248 16.9563L24.5324 17.546L24.5324 17.546L23.7248 16.9563ZM18.2971 29.3081L19.2764 29.5107L19.2763 29.5108L18.2971 29.3081ZM18.3893 44.0533L17.4102 44.2566L17.4102 44.2566L18.3893 44.0533ZM32.6927 67.6252L33.3328 66.857L33.3328 66.857L32.6927 67.6252ZM61.2007 76.8164L61.0961 75.8219L61.0962 75.8219L61.2007 76.8164ZM82.9821 64.4914L83.7898 65.0811H83.7898L82.9821 64.4914ZM88.4105 52.1389L89.3898 52.3416L89.3898 52.3416L88.4105 52.1389ZM88.3183 37.3948L87.3392 37.5982L87.3392 37.5981L88.3183 37.3948ZM74.0146 13.8225L73.3745 14.5908L73.3745 14.5908L74.0146 13.8225ZM49.1231 4.44277V3.44277H49.1232L49.1231 4.44277ZM49.1259 1V0H49.126L49.1259 1ZM91.6899 36.6953L90.7108 36.8986L90.7108 36.8986L91.6899 36.6953ZM61.5609 80.241L61.6655 81.2355L61.6654 81.2355L61.5609 80.241ZM15.0184 44.7535L15.9976 44.5501V44.5501L15.0184 44.7535ZM45.1477 1.20781L45.0432 0.213288L45.0435 0.213258L45.1477 1.20781ZM49.1224 4.44312V5.44312C47.9526 5.44312 46.7713 5.50495 45.6122 5.62686L45.5076 4.63235L45.403 3.63784C46.6318 3.50858 47.883 3.44312 49.1224 3.44312V4.44312ZM45.5076 4.63235L45.6122 5.62687C36.9525 6.53712 29.4767 10.7743 24.5324 17.546L23.7248 16.9563L22.9172 16.3666C28.2076 9.12082 36.2034 4.60483 45.4031 3.63783L45.5076 4.63235ZM23.7248 16.9563L24.5324 17.546C21.96 21.0687 20.1904 25.0919 19.2764 29.5107L18.2971 29.3081L17.3178 29.1055C18.2879 24.4161 20.171 20.1272 22.9172 16.3666L23.7248 16.9563ZM18.2971 29.3081L19.2763 29.5108C18.322 34.1214 18.3496 38.9441 19.3684 43.8499L18.3893 44.0533L17.4102 44.2566C16.3391 39.099 16.3048 33.9994 17.3179 29.1054L18.2971 29.3081ZM18.3893 44.0533L19.3684 43.8499C21.2086 52.7102 26.1647 60.8847 33.3328 66.857L32.6927 67.6252L32.0526 68.3935C24.5481 62.141 19.3451 53.5729 17.4102 44.2566L18.3893 44.0533ZM32.6927 67.6252L33.3328 66.857C40.4272 72.7681 49.0439 76.0057 57.5825 76.0057V77.0057V78.0057C48.5396 78.0057 39.4773 74.5799 32.0526 68.3935L32.6927 67.6252ZM57.5825 77.0057V76.0057C58.7547 76.0057 59.9371 75.9438 61.0961 75.8219L61.2007 76.8164L61.3053 77.8109C60.0764 77.9402 58.8242 78.0057 57.5825 78.0057V77.0057ZM61.2007 76.8164L61.0962 75.8219C69.7544 74.9117 77.2298 70.6742 82.1745 63.9018L82.9821 64.4914L83.7898 65.0811C78.499 72.3275 70.5036 76.8439 61.3053 77.8109L61.2007 76.8164ZM82.9821 64.4914L82.1745 63.9018C84.747 60.3783 86.5165 56.3551 87.4313 51.9362L88.4105 52.1389L89.3898 52.3416C88.419 57.031 86.5359 61.3199 83.7898 65.0811L82.9821 64.4914ZM88.4105 52.1389L87.4313 51.9363C88.3857 47.3253 88.3583 42.5036 87.3392 37.5982L88.3183 37.3948L89.2974 37.1914C90.3689 42.3487 90.4028 47.4473 89.3898 52.3416L88.4105 52.1389ZM88.3183 37.3948L87.3392 37.5981C85.4997 28.7372 80.543 20.5628 73.3745 14.5908L74.0146 13.8225L74.6547 13.0542C82.1595 19.3064 87.3632 27.8745 89.2974 37.1915L88.3183 37.3948ZM74.0146 13.8225L73.3745 14.5908C66.2805 8.68071 57.6638 5.44344 49.123 5.44277L49.1231 4.44277L49.1232 3.44277C58.168 3.44348 67.2303 6.86881 74.6547 13.0542L74.0146 13.8225ZM49.1231 4.44277V5.44277H49.1224V4.44277V3.44277H49.1231V4.44277ZM49.1259 1L49.126 0C69.3623 0.00176334 88.3288 15.5925 92.669 36.492L91.6899 36.6953L90.7108 36.8986C86.5552 16.888 68.375 2.00168 49.1258 2L49.1259 1ZM91.6899 36.6953L92.669 36.492C97.311 58.8445 83.4743 78.9433 61.6655 81.2355L61.5609 80.241L61.4564 79.2464C81.989 77.0884 95.1329 58.1923 90.7108 36.8986L91.6899 36.6953ZM61.5609 80.241L61.6654 81.2355C60.3002 81.3789 58.9404 81.4491 57.5825 81.4491V80.4491V79.4491C58.8711 79.4491 60.1613 79.3825 61.4565 79.2464L61.5609 80.241ZM57.5825 80.4491V81.4491C37.3435 81.4491 18.3788 65.8537 14.0393 44.9568L15.0184 44.7535L15.9976 44.5501C20.1525 64.5585 38.331 79.4491 57.5825 79.4491V80.4491ZM15.0184 44.7535L14.0393 44.9568C9.39659 22.6015 23.2309 2.50581 45.0432 0.213288L45.1477 1.20781L45.2522 2.20233C24.7162 4.36071 11.5747 23.2538 15.9976 44.5501L15.0184 44.7535ZM45.1477 1.20781L45.0435 0.213258C46.4078 0.0702557 47.768 0 49.1259 0V1V2C47.8372 2 46.5466 2.06667 45.252 2.20236L45.1477 1.20781Z" fill="black" mask="url(#path-5-outside-1_1361_188)"/>
<path d="M53.8468 16.972L54.4725 16.7636L54.9159 16.6332C57.123 16.0225 59.1884 15.9939 61.0969 16.5745C63.005 17.1551 64.7182 18.3338 66.2406 20.0778L66.5429 20.4338L66.5433 20.4347C66.9307 20.9082 66.9168 21.6291 66.5033 22.0931L66.415 22.1819L62.8138 25.4745L62.8101 25.4783C62.6744 25.5997 62.512 25.6958 62.336 25.7503C61.9858 25.8588 61.5074 25.8044 61.2418 25.3584C60.5673 24.2382 59.8093 23.5352 58.9848 23.1835C58.1661 22.8344 57.2222 22.8061 56.1227 23.1459C54.8262 23.5468 53.9066 24.3494 53.331 25.5278L53.3305 25.5291C52.7569 26.6935 52.642 28.2904 53.043 30.2712C53.2623 31.3536 53.7055 32.6913 54.3531 34.1571L54.6432 34.7924L54.6447 34.796C54.7146 34.9477 54.8288 35.1032 54.9468 35.1989C55.0037 35.2449 55.048 35.2656 55.0745 35.2738C55.0867 35.2775 55.0939 35.2785 55.0957 35.2785L55.0966 35.2782L60.443 33.6253L60.4448 33.6245C60.4806 33.6135 60.5177 33.6019 60.5607 33.5876C60.6019 33.5739 60.6496 33.5575 60.6977 33.5428L60.6968 33.5432C60.8196 33.5053 61.0573 33.434 61.2942 33.4796C61.4337 33.5065 61.5796 33.574 61.6971 33.7034C61.8089 33.8267 61.8651 33.9726 61.8923 34.1074L62.6583 37.8885C62.7215 38.2003 62.6634 38.6263 62.5628 38.963C62.5098 39.14 62.4355 39.3272 62.334 39.488C62.241 39.6352 62.0773 39.836 61.8182 39.916L61.8178 39.9151L56.4727 41.5685L56.4723 41.5676C56.4034 41.589 56.3362 41.6073 56.2828 41.6211C56.2698 41.6245 56.2577 41.6274 56.2464 41.6304C56.7444 44.2716 56.8744 46.1117 56.7101 47.6134L56.6725 47.9153C56.4866 49.2584 55.9228 50.6674 55.0545 52.2964L60.6077 50.5805C62.4164 50.0214 63.8806 49.5067 65.0054 48.9748C66.1381 48.439 66.87 47.9104 67.2723 47.3519C68.0545 46.2615 68.4511 45.2484 68.3961 43.7815L68.3957 43.7806C68.3792 43.2995 68.6837 42.8729 69.1162 42.7391L69.1171 42.7387C69.2654 42.6931 69.4312 42.6814 69.5986 42.7195L69.5977 42.7199L74.7334 43.83L74.736 43.831C75.0024 43.8901 75.2632 44.0274 75.4473 44.2616C75.6375 44.5037 75.7138 44.8101 75.6669 45.1343C75.3496 47.3236 74.7644 49.1658 73.9395 50.786C73.1344 52.3681 72.1422 53.5607 71.0085 54.547L70.5139 54.9574C69.134 56.0498 67.0921 56.7068 64.6365 57.4666L44.8748 63.5762C44.8129 63.5952 44.7231 63.6329 44.5844 63.692C44.461 63.7446 44.3037 63.8118 44.1524 63.8589L44.1515 63.8593C44.0243 63.8985 43.8253 63.9493 43.6243 63.9183C43.5125 63.9009 43.3776 63.8549 43.2603 63.748C43.1408 63.6391 43.0779 63.5021 43.0512 63.3712L43.0508 63.3703L41.9867 58.1138L41.9863 58.1129C41.9041 57.7055 42.1039 57.3392 42.2857 57.1126C42.4764 56.8748 42.7499 56.6592 43.0327 56.5622L43.0318 56.5626C44.818 55.9409 46.3311 55.2726 47.2014 54.6721L47.3668 54.5524C48.2636 53.8683 48.9791 52.8369 49.4853 51.3475L49.5757 51.0698C50.0021 49.6888 50.087 48.3964 49.8217 47.0891L49.6957 46.5418C49.54 45.9289 49.2905 45.0939 48.9244 43.9167C48.9217 43.9171 48.9189 43.9166 48.916 43.9171C48.8658 43.9247 48.8015 43.941 48.7184 43.9666L45.7829 44.874L45.7826 44.8731C45.4956 44.9617 45.2444 44.86 45.0836 44.7517C44.9241 44.6442 44.7957 44.4958 44.6987 44.3588C44.5058 44.0865 44.3514 43.7365 44.2958 43.4626L43.5299 39.6815L43.5295 39.6806C43.4848 39.4584 43.4859 39.1834 43.6754 38.9521C43.8353 38.7572 44.0651 38.6864 44.173 38.653L44.1748 38.6522C44.2155 38.6398 44.2583 38.6271 44.2955 38.6165C44.3345 38.6054 44.3711 38.5946 44.4077 38.5833L44.4068 38.5837L46.7465 37.8602C46.7607 37.8389 46.7824 37.7967 46.7988 37.7294C46.8353 37.5799 46.825 37.4169 46.795 37.3285C46.1899 35.567 45.7479 34.0005 45.5468 33.0092L45.4223 32.3263C44.8675 28.9334 45.353 25.7938 46.8966 22.9352C48.4434 20.0665 50.7698 18.0735 53.8468 16.972Z" stroke="black"/>
<path d="M113.168 49.5028C102.508 50.2887 99.3699 65.6233 99.3699 65.6233C67.173 47.8509 60.1029 81.7685 59.9657 80.8403C51.6421 69.0946 12.0899 68.3045 7.01318 105.382" stroke="black" strokeWidth="2"/>
<path d="M99.3699 65.6233C99.3699 65.6233 102.508 50.2887 113.168 49.5028L113.168 92L7.06738 106L7.01318 105.382C12.0899 68.3045 51.6421 69.0946 59.9657 80.8403C60.1029 81.7685 67.173 47.8509 99.3699 65.6233Z" fill="#FEFBF4"/>
<defs>
<linearGradient id="paint0_linear_1361_188" x1="42.6304" y1="56.6557" x2="60.5099" y2="93.9268" gradientUnits="userSpaceOnUse">
<stop stop-color="#E08C3C"/>
<stop offset="1" stop-color="#FFD06F"/>
</linearGradient>
</defs>
</svg>
