<svg width="64" height="64" viewBox="0 0 64 64" fill="none" xmlns="http://www.w3.org/2000/svg">
<rect width="64" height="64" rx="10" fill="#CFF3E2"/>
<path fill-rule="evenodd" clip-rule="evenodd" d="M39.9161 50.1123H44.7591C45.0088 50.1123 45.2194 50.2778 45.2784 50.5204L46.0441 53.6688C46.0539 53.7082 46.0545 53.7492 46.046 53.7888C46.0375 53.8284 46.0201 53.8656 45.995 53.8974C45.97 53.9293 45.938 53.955 45.9015 53.9727C45.865 53.9903 45.825 53.9994 45.7845 53.9992H38.8907C38.8502 53.9994 38.8102 53.9903 38.7737 53.9727C38.7372 53.955 38.7052 53.9293 38.6802 53.8974C38.6551 53.8656 38.6377 53.8284 38.6292 53.7888C38.6207 53.7492 38.6213 53.7082 38.6311 53.6688L39.3968 50.5204C39.4558 50.2777 39.6664 50.1123 39.9161 50.1123ZM21.5343 22.5138L23.4379 23.9716C24.3946 24.7044 25.4792 24.9937 26.6738 24.8355L35.6744 22.3858C37.0904 22.0003 37.9362 20.5218 37.5507 19.1059C37.2545 18.0694 36.1938 17.4452 35.1449 17.7306L30.337 19.0392C30.1547 19.0887 29.9602 19.0637 29.7963 18.9697C29.6324 18.8757 29.5126 18.7205 29.4631 18.5382C29.4137 18.3559 29.4387 18.1614 29.5326 17.9975C29.6266 17.8336 29.7818 17.7137 29.9641 17.6643L34.772 16.3557C36.5676 15.867 38.4371 16.9376 38.9257 18.733C39.0297 19.114 39.0655 19.5105 39.0313 19.904L46.5096 24.2214C47.6599 24.8856 49.1449 24.4877 49.8089 23.3372C50.473 22.1866 50.0753 20.702 48.925 20.0378L36.0325 12.5946C34.9893 11.9923 33.8859 11.8883 32.712 12.1574L27.5566 13.3394C26.241 13.641 25.1441 13.4716 24.1041 12.9235L21.5343 22.5138ZM32.5564 27.3905C32.5564 28.4773 31.6753 29.3584 30.5885 29.3584C29.5017 29.3584 28.6206 28.4773 28.6206 27.3905V26.0001C28.6206 25.927 28.6219 25.8543 28.6238 25.7817L32.8015 24.6446C32.6391 25.0781 32.556 25.5372 32.5563 26.0001V27.3905H32.5564ZM44.1626 24.5119C44.2576 25.0023 44.3054 25.5006 44.3054 26.0001V48.6872H40.3697V26.0001C40.3697 24.4351 39.4314 23.0742 38.091 22.4527C38.3614 22.1314 38.5818 21.7711 38.7447 21.3841L44.1626 24.5119ZM19.9742 22.8302C19.8985 23.1128 19.6053 23.2821 19.3228 23.2064L17.1812 22.6326C16.8987 22.5569 16.7294 22.2636 16.8052 21.981L19.91 10.3938C19.9857 10.1112 20.2789 9.94187 20.5615 10.0176L22.703 10.5914C22.9855 10.6671 23.1549 10.9605 23.0791 11.243L19.9742 22.8302ZM13.8711 48.4916V50.7755C13.8711 51.5487 14.7517 52.3058 16.1755 52.9046C19.6506 54.3661 25.3858 54.3661 28.8609 52.9046C30.2847 52.3059 31.1653 51.5488 31.1653 50.7755V48.7333C31.0026 48.7636 30.8387 48.7899 30.6733 48.8118C30.2262 49.0928 29.7115 49.3469 29.1397 49.5696C25.3906 51.0298 19.7472 51.0348 15.9834 49.6136C15.1533 49.3 14.4386 48.9216 13.8711 48.4916ZM22.3532 33.2922C19.9259 33.3102 17.7478 33.7247 16.1755 34.3859C13.1078 35.676 13.1085 37.3545 16.1755 38.6441C17.2245 39.0853 18.5433 39.4166 20.0257 39.5937C20.0254 39.5582 20.0244 39.5229 20.0244 39.4874C20.0244 37.1144 20.9034 34.9471 22.3532 33.2922ZM20.1526 41.0399C18.4191 40.8552 16.8623 40.4729 15.6244 39.9523C14.9434 39.666 14.3525 39.3332 13.8711 38.9623V41.5501C14.0883 42.2905 15.0507 42.9882 16.4844 43.5297C17.8257 44.0361 19.543 44.3747 21.4496 44.4668C20.7955 43.4212 20.3547 42.2565 20.1526 41.0399ZM13.8711 43.7381V46.3035C14.0883 47.0438 15.0506 47.7416 16.4844 48.2831C19.6194 49.4668 24.0996 49.524 27.342 48.6605C25.4795 48.2382 23.8269 47.2632 22.5657 45.917C20.3986 45.9224 18.0201 45.6291 15.9834 44.8601C15.1532 44.5466 14.4386 44.1681 13.8711 43.7381ZM29.4304 34.3805C26.6098 34.3805 24.3235 36.6669 24.3235 39.4875C24.3235 42.3081 26.6098 44.5945 29.4304 44.5945C32.251 44.5945 34.5374 42.3081 34.5374 39.4875C34.5374 36.6669 32.251 34.3805 29.4304 34.3805ZM30.143 42.6083V42.7984C30.143 42.9874 30.0679 43.1686 29.9343 43.3023C29.8006 43.4359 29.6194 43.511 29.4304 43.511C29.2414 43.511 29.0602 43.4359 28.9266 43.3023C28.7929 43.1686 28.7179 42.9874 28.7179 42.7984V42.6379C28.2682 42.5267 27.8618 42.2556 27.59 41.8798C27.4838 41.7268 27.4418 41.5382 27.473 41.3546C27.5042 41.171 27.6061 41.0069 27.757 40.8976C27.9078 40.7883 28.0954 40.7425 28.2797 40.77C28.4639 40.7975 28.63 40.8962 28.7423 41.0448C28.8477 41.1906 28.9968 41.2689 29.1772 41.2689H29.5697C29.8622 41.2689 30.1042 41.0269 30.1042 40.7344C30.1042 40.4419 29.8622 40.1999 29.5697 40.1999H29.291C28.2118 40.1999 27.3314 39.3196 27.3314 38.2404C27.3314 37.3792 27.8985 36.6183 28.7178 36.3666V36.1765C28.7178 35.9875 28.7929 35.8062 28.9265 35.6726C29.0601 35.539 29.2414 35.4639 29.4303 35.4639C29.6193 35.4639 29.8005 35.539 29.9342 35.6726C30.0678 35.8062 30.1429 35.9875 30.1429 36.1765V36.337C30.5926 36.4481 30.9989 36.7192 31.2707 37.0951C31.377 37.2481 31.419 37.4366 31.3878 37.6203C31.3566 37.8039 31.2546 37.968 31.1038 38.0773C30.953 38.1865 30.7653 38.2324 30.5811 38.2049C30.3969 38.1773 30.2308 38.0787 30.1185 37.9301C30.013 37.7842 29.8639 37.7059 29.6835 37.7059H29.291C28.9984 37.7059 28.7565 37.9479 28.7565 38.2404C28.7565 38.5329 28.9984 38.7749 29.291 38.7749H29.5697C30.649 38.7749 31.5293 39.6554 31.5293 40.7345C31.5294 41.5957 30.9623 42.3565 30.143 42.6083ZM29.4304 31.5064C25.0226 31.5064 21.4494 35.0797 21.4494 39.4875C21.4494 43.8953 25.0226 47.4685 29.4304 47.4685C33.8382 47.4685 37.4115 43.8953 37.4115 39.4875C37.4115 35.0797 33.8382 31.5064 29.4304 31.5064ZM29.4304 46.0196C25.8231 46.0196 22.8984 43.0949 22.8984 39.4875C22.8984 35.88 25.8231 32.9554 29.4304 32.9554C33.0379 32.9554 35.9625 35.88 35.9625 39.4875C35.9625 43.0949 33.0379 46.0196 29.4304 46.0196Z" fill="black"/>
</svg>
