<svg width="64" height="64" viewBox="0 0 64 64" fill="none" xmlns="http://www.w3.org/2000/svg">
<rect width="64" height="64" rx="10" fill="#CFF3E2"/>
<path d="M28.5529 33.7625C28.5529 32.0677 29.4791 30.5504 30.9768 29.8016L34.918 27.7915C35.5486 27.4762 36.2383 27.3186 36.928 27.3186H42.3472V18.4509C42.3472 15.4556 39.9233 13.0317 36.928 13.0317H19.1926C16.1973 13.0317 13.7734 15.4556 13.7734 18.4509V44.0687C13.7734 47.064 16.1973 49.4879 19.1926 49.4879H32.7109C30.0382 46.6122 28.5527 42.8317 28.5529 38.9057V33.7625ZM19.1926 18.9435H32.9868C33.3788 18.9435 33.7547 19.0993 34.0319 19.3764C34.309 19.6536 34.4648 20.0295 34.4648 20.4215C34.4648 20.8135 34.309 21.1894 34.0319 21.4666C33.7547 21.7437 33.3788 21.8994 32.9868 21.8994H19.1926C18.8006 21.8994 18.4247 21.7437 18.1475 21.4666C17.8704 21.1894 17.7146 20.8135 17.7146 20.4215C17.7146 20.0295 17.8704 19.6536 18.1475 19.3764C18.4247 19.0993 18.8006 18.9435 19.1926 18.9435ZM25.1044 33.7231H19.1926C18.8006 33.7231 18.4247 33.5673 18.1475 33.2902C17.8704 33.013 17.7146 32.6371 17.7146 32.2451C17.7146 31.8531 17.8704 31.4772 18.1475 31.2C18.4247 30.9229 18.8006 30.7672 19.1926 30.7672H25.1044C25.4964 30.7672 25.8723 30.9229 26.1495 31.2C26.4266 31.4772 26.5823 31.8531 26.5823 32.2451C26.5823 32.6371 26.4266 33.013 26.1495 33.2902C25.8723 33.5673 25.4964 33.7231 25.1044 33.7231ZM27.075 27.8112H19.1926C18.8006 27.8112 18.4247 27.6555 18.1475 27.3784C17.8704 27.1012 17.7146 26.7253 17.7146 26.3333C17.7146 25.9413 17.8704 25.5654 18.1475 25.2882C18.4247 25.0111 18.8006 24.8553 19.1926 24.8553H27.075C27.467 24.8553 27.8429 25.0111 28.1201 25.2882C28.3972 25.5654 28.5529 25.9413 28.5529 26.3333C28.5529 26.7253 28.3972 27.1012 28.1201 27.3784C27.8429 27.6555 27.467 27.8112 27.075 27.8112ZM49.4216 32.4343L45.4804 30.4341C45.2726 30.3293 45.0431 30.2746 44.8104 30.2745H36.928C36.6953 30.2749 36.4659 30.3296 36.258 30.4341L32.3168 32.4343C32.0735 32.558 31.8693 32.7467 31.7267 32.9794C31.5841 33.2121 31.5087 33.4797 31.5089 33.7526V38.9116C31.5089 44.1475 34.7801 48.9026 39.6553 50.7451C40.4393 51.0432 41.3055 51.0424 42.089 50.7431C46.9584 48.9026 50.2296 44.1475 50.2296 38.9116V33.7526C50.2297 33.4797 50.1544 33.2121 50.0117 32.9794C49.8691 32.7467 49.6649 32.558 49.4216 32.4343ZM44.9286 38.6259L41.3816 42.5967C41.2424 42.7515 41.0722 42.8753 40.8821 42.96C40.692 43.0447 40.4862 43.0885 40.278 43.0885C40.0699 43.0885 39.8641 43.0447 39.6739 42.96C39.4838 42.8753 39.3136 42.7515 39.1745 42.5967L36.8098 39.9482C36.6805 39.8033 36.5811 39.6343 36.5171 39.451C36.4531 39.2676 36.4259 39.0734 36.437 38.8796C36.448 38.6857 36.4972 38.4959 36.5816 38.321C36.666 38.1461 36.7841 37.9896 36.929 37.8603C37.0739 37.7311 37.2429 37.6316 37.4262 37.5677C37.6096 37.5037 37.8037 37.4765 37.9976 37.4875C38.1915 37.4986 38.3813 37.5478 38.5562 37.6322C38.731 37.7166 38.8876 37.8346 39.0168 37.9796L40.28 39.3925L42.7235 36.6553C42.9846 36.3626 43.3512 36.1856 43.7428 36.1633C44.1343 36.1409 44.5187 36.275 44.8114 36.5361C45.1041 36.7971 45.2811 37.1638 45.3034 37.5553C45.3258 37.9469 45.1917 38.3313 44.9306 38.6239L44.9286 38.6259Z" fill="#1E1A17"/>
</svg>
