<svg width="64" height="64" viewBox="0 0 64 64" fill="none" xmlns="http://www.w3.org/2000/svg">
<rect width="64" height="64" rx="10" fill="#CFF3E2"/>
<path d="M20.8815 28.2051C23.3022 28.202 25.623 27.2389 27.3346 25.527C29.0463 23.8152 30.0092 21.4944 30.0122 19.0736C29.5105 6.96078 12.2509 6.96475 11.75 19.0736C11.7527 21.4947 12.7156 23.8158 14.4275 25.5278C16.1394 27.2398 18.4604 28.2022 20.8815 28.2051ZM19.8734 19.8674C19.1269 19.8674 18.411 19.5708 17.8831 19.043C17.3552 18.5151 17.0587 17.7992 17.0587 17.0527C17.0587 16.3062 17.3552 15.5903 17.8831 15.0624C18.411 14.5346 19.1269 14.238 19.8734 14.238H20.0877V13.5157C20.0877 13.3052 20.1713 13.1033 20.3202 12.9544C20.4691 12.8056 20.671 12.7219 20.8815 12.7219C21.092 12.7219 21.2939 12.8056 21.4427 12.9544C21.5916 13.1033 21.6752 13.3052 21.6752 13.5157V14.238H23.9137C24.1242 14.238 24.3261 14.3216 24.4749 14.4705C24.6238 14.6194 24.7074 14.8213 24.7074 15.0318C24.7074 15.2423 24.6238 15.4442 24.4749 15.5931C24.3261 15.7419 24.1242 15.8255 23.9137 15.8255H21.6752V18.2799H21.8896C22.2663 18.2835 22.6385 18.3627 22.9842 18.5127C23.3298 18.6627 23.6418 18.8805 23.9018 19.1532C24.1618 19.4259 24.3645 19.7479 24.4978 20.1003C24.6312 20.4527 24.6925 20.8283 24.6782 21.2048C24.6638 21.5813 24.5741 21.9511 24.4144 22.2924C24.2546 22.6336 24.0281 22.9393 23.7481 23.1915C23.4681 23.4436 23.1404 23.6371 22.7844 23.7603C22.4283 23.8836 22.0512 23.9343 21.6752 23.9092V24.6316C21.6752 24.8421 21.5916 25.044 21.4427 25.1928C21.2939 25.3417 21.092 25.4253 20.8815 25.4253C20.671 25.4253 20.4691 25.3417 20.3202 25.1928C20.1713 25.044 20.0877 24.8421 20.0877 24.6316V23.9092H17.8477C17.6372 23.9092 17.4353 23.8256 17.2864 23.6768C17.1376 23.5279 17.0539 23.326 17.0539 23.1155C17.0539 22.905 17.1376 22.7031 17.2864 22.5542C17.4353 22.4053 17.6372 22.3217 17.8477 22.3217H20.0869V19.8674H19.8734Z" fill="black"/>
<path d="M23.12 21.0985C23.1169 20.919 23.0756 20.7422 22.9988 20.5799C22.9221 20.4176 22.8117 20.2734 22.675 20.1571C22.5383 20.0407 22.3784 19.9547 22.2059 19.9049C22.0334 19.8551 21.8522 19.8426 21.6745 19.8682V22.3209C21.8516 22.3465 22.032 22.3342 22.2039 22.2848C22.3758 22.2355 22.5353 22.1502 22.6718 22.0347C22.8084 21.9192 22.9188 21.776 22.9959 21.6146C23.0731 21.4533 23.1159 21.2774 23.12 21.0985ZM20.0862 15.8264C19.909 15.7985 19.7279 15.8093 19.5554 15.8582C19.3828 15.907 19.2229 15.9926 19.0865 16.1091C18.9502 16.2257 18.8408 16.3704 18.7657 16.5333C18.6907 16.6962 18.6518 16.8734 18.6518 17.0527C18.6518 17.2321 18.6907 17.4093 18.7657 17.5722C18.8408 17.7351 18.9502 17.8798 19.0865 17.9963C19.2229 18.1129 19.3828 18.1985 19.5554 18.2473C19.7279 18.2961 19.909 18.307 20.0862 18.2791V15.8264ZM53.999 29.9522C53.9009 29.8546 53.779 29.7842 53.6454 29.748C53.5117 29.7118 53.371 29.7111 53.237 29.7458L43.7079 32.2382C43.5746 32.274 43.4531 32.3441 43.3556 32.4416C43.2581 32.5392 43.1879 32.6607 43.1522 32.7939C42.9228 33.4281 43.8365 33.9933 44.2238 34.4775C39.9763 38.3967 35.2926 41.8148 30.2647 44.6646C26.505 46.7951 22.5681 48.5963 18.4979 50.048C15.8372 50.9989 13.1251 51.7995 10.3745 52.4459C10.1874 52.4927 10.0238 52.606 9.91418 52.7647C9.80456 52.9233 9.75643 53.1165 9.77879 53.308C9.80116 53.4995 9.89248 53.6764 10.0357 53.8055C10.1789 53.9346 10.3642 54.0072 10.5571 54.0096C24.4802 52.7529 37.775 47.6299 48.9412 39.2186L50.1953 40.5442C50.2923 40.6456 50.4143 40.7196 50.5491 40.7587C50.6839 40.7977 50.8266 40.8005 50.9627 40.7666C51.0989 40.7328 51.2237 40.6636 51.3245 40.5659C51.4253 40.4683 51.4986 40.3458 51.5368 40.2108L54.1975 30.723C54.235 30.5885 54.2364 30.4465 54.2016 30.3113C54.1668 30.1762 54.0969 30.0518 53.999 29.9522Z" fill="black"/>
<path d="M12.9422 37.3357C12.7319 37.3364 12.5303 37.4202 12.3816 37.5689C12.2329 37.7176 12.1491 37.9192 12.1484 38.1295V50.3654C14.1133 49.8426 16.0532 49.2393 17.9683 48.5556C18.6883 48.3056 19.3868 48.0317 20.0885 47.7618V38.1295C20.0878 37.9192 20.004 37.7176 19.8553 37.5689C19.7066 37.4202 19.505 37.3364 19.2947 37.3357H12.9422ZM39.1452 36.7563V25.4261C39.1445 25.2158 39.0607 25.0142 38.912 24.8655C38.7633 24.7168 38.5617 24.633 38.3514 24.6323H31.9989C31.7886 24.633 31.5871 24.7168 31.4383 24.8655C31.2896 25.0142 31.2058 25.2158 31.2051 25.4261V42.2745C33.0634 41.1579 34.8703 39.9578 36.6202 38.678C37.4737 38.0535 38.3161 37.4128 39.1452 36.7563ZM22.4714 30.984C22.2609 30.9845 22.0592 31.0682 21.9103 31.2169C21.7614 31.3657 21.6774 31.5673 21.6768 31.7778V47.1102C24.4005 45.974 27.0522 44.6722 29.6168 43.212V31.7778C29.6162 31.5675 29.5324 31.3659 29.3836 31.2172C29.2349 31.0685 29.0334 30.9847 28.8231 30.984H22.4714Z" fill="black"/>
</svg>
