<svg width="64" height="64" viewBox="0 0 64 64" fill="none" xmlns="http://www.w3.org/2000/svg">
<rect width="64" height="64" rx="10" fill="#CFF3E2"/>
<path d="M33.2938 22.0013C33.294 21.7933 33.2277 21.5907 33.1046 21.4231C32.9815 21.2554 32.8079 21.1316 32.6094 21.0696V22.9303C32.8077 22.8686 32.9811 22.7451 33.1043 22.5779C33.2274 22.4106 33.2938 22.209 33.2938 22.0013Z" fill="black"/>
<path d="M38.0858 20.2889C38.0858 19.0694 37.7242 17.8772 37.0467 16.8633C36.3691 15.8493 35.4061 15.059 34.2795 14.5923C33.1528 14.1256 31.913 14.0035 30.7169 14.2414C29.5209 14.4793 28.4222 15.0666 27.5599 15.9289C26.6976 16.7912 26.1103 17.8899 25.8724 19.086C25.6345 20.282 25.7566 21.5218 26.2233 22.6485C26.6899 23.7752 27.4803 24.7381 28.4942 25.4157C29.5082 26.0932 30.7003 26.4548 31.9199 26.4548C33.5546 26.453 35.1219 25.8028 36.2778 24.6469C37.4338 23.4909 38.084 21.9236 38.0858 20.2889ZM31.2347 24.3995V24.357C30.6689 24.303 30.1379 24.0591 29.7282 23.6651C29.374 23.3036 29.1773 22.8167 29.1808 22.3106C29.1918 22.1299 29.2729 21.9607 29.4069 21.8389C29.5409 21.7172 29.7172 21.6527 29.8981 21.6591C29.988 21.6634 30.0761 21.6854 30.1575 21.7237C30.2389 21.7621 30.312 21.8162 30.3725 21.8828C30.433 21.9494 30.4798 22.0273 30.5102 22.112C30.5406 22.1966 30.554 22.2865 30.5496 22.3764C30.566 22.5087 30.6278 22.6312 30.7243 22.7231C30.8699 22.848 31.046 22.932 31.2347 22.9663V20.9171C30.6665 20.8429 30.1447 20.5645 29.7667 20.1339C29.3886 19.7033 29.1802 19.1498 29.1802 18.5768C29.1802 18.0038 29.3886 17.4503 29.7667 17.0197C30.1447 16.5891 30.6665 16.3107 31.2347 16.2365V16.1782C31.2347 15.9965 31.3069 15.8223 31.4354 15.6938C31.5639 15.5653 31.7382 15.4931 31.9199 15.4931C32.1016 15.4931 32.2758 15.5653 32.4043 15.6938C32.5328 15.8223 32.605 15.9965 32.605 16.1782V16.2187C33.1713 16.2726 33.7025 16.5173 34.1115 16.9127C34.4657 17.2742 34.6624 17.7611 34.6589 18.2671C34.6446 18.4466 34.5625 18.6139 34.4293 18.7349C34.296 18.856 34.1216 18.9217 33.9416 18.9187C33.7631 18.91 33.5951 18.8319 33.4734 18.7011C33.3517 18.5703 33.2859 18.3971 33.2901 18.2185C33.2788 18.0798 33.2165 17.9502 33.1154 17.8547C32.9699 17.7293 32.7938 17.6449 32.605 17.6101V19.6599C33.1732 19.7341 33.695 20.0125 34.073 20.4432C34.4511 20.8738 34.6595 21.4272 34.6595 22.0003C34.6595 22.5733 34.4511 23.1268 34.073 23.5574C33.695 23.988 33.1732 24.2664 32.605 24.3406V24.3995C32.605 24.5812 32.5328 24.7555 32.4043 24.8839C32.2758 25.0124 32.1016 25.0846 31.9199 25.0846C31.7382 25.0846 31.5639 25.0124 31.4354 24.8839C31.3069 24.7555 31.2347 24.5812 31.2347 24.3995Z" fill="black"/>
<path d="M30.5547 18.576C30.5544 18.784 30.6207 18.9866 30.7439 19.1542C30.867 19.3219 31.0406 19.4457 31.2391 19.5077V17.647C31.0408 17.7087 30.8674 17.8322 30.7442 17.9994C30.6211 18.1667 30.5547 18.369 30.5547 18.5767V18.576Z" fill="black"/>
<path d="M53.1616 52.4886H51.1522C47.9411 52.0392 47.7198 50.9115 47.3793 49.2138C47.0573 47.5832 46.6531 45.5485 43.6592 43.8905C39.6788 41.6708 36.9178 42.5066 35.4311 43.4384C35.4859 43.4863 35.5339 43.5274 35.5818 43.5754C36.6288 44.6747 37.9129 45.5205 39.3362 46.0486C39.4894 46.1021 39.6188 46.2081 39.7014 46.3478C39.784 46.4876 39.8144 46.652 39.7873 46.8121C39.7602 46.9721 39.6774 47.1174 39.5534 47.2222C39.4295 47.327 39.2724 47.3845 39.1101 47.3846C39.0351 47.3848 38.9607 47.3709 38.8909 47.3435C37.2888 46.7555 35.841 45.8114 34.6569 44.5825C34.5542 44.4866 34.4445 44.3906 34.3418 44.2947C33.8008 43.7891 33.2213 43.3264 32.6085 42.9108V40.0608C32.6079 39.0731 32.9132 38.1094 33.4824 37.3022C34.0516 36.4951 34.8568 35.8839 35.7874 35.5528C35.9682 35.4624 39.7336 34.495 39.9322 34.4429C38.9404 35.0798 38.0275 35.8318 37.2124 36.6832C38.0691 37.1735 39.0411 37.4266 40.0282 37.4163C40.421 37.4177 40.8131 37.3833 41.1997 37.3135C45.0157 36.6627 46.8929 30.3391 46.9683 30.072C47.0079 29.932 47.0021 29.783 46.9517 29.6465C46.9014 29.51 46.809 29.393 46.688 29.3123C46.5669 29.2316 46.4234 29.1914 46.278 29.1974C46.1327 29.2034 45.9929 29.2553 45.8789 29.3457C44.7965 30.2227 44.6184 30.2227 42.426 30.161C41.9053 30.1473 41.2819 30.1268 40.5283 30.1199H40.4598C39.2724 30.0988 38.1161 30.4997 37.1965 31.2511C36.2769 32.0026 35.6538 33.0559 35.438 34.2237C34.3254 34.5952 33.3432 35.279 32.6085 36.1934V30.5303C35.2687 30.3525 37.7557 29.1479 39.5444 27.1707C41.333 25.1935 42.2831 22.5985 42.1942 19.9338C42.1053 17.2691 40.9842 14.7433 39.0678 12.8898C37.1513 11.0362 34.5895 10 31.9234 10C29.2572 10 26.6954 11.0362 24.7789 12.8898C22.8625 14.7433 21.7414 17.2691 21.6525 19.9338C21.5636 22.5985 22.5138 25.1935 24.3024 27.1707C26.091 29.1479 28.578 30.3525 31.2383 30.5303V38.2487C30.5036 37.3343 29.5214 36.6505 28.4088 36.279C28.1929 35.1112 27.5698 34.0579 26.6502 33.3065C25.7307 32.555 24.5743 32.1541 23.387 32.1752H23.3184C22.5648 32.1821 21.9414 32.2026 21.4207 32.2163C19.2284 32.278 19.0502 32.278 17.9678 31.4011C17.8538 31.3106 17.7141 31.2587 17.5687 31.2527C17.4233 31.2467 17.2798 31.2869 17.1588 31.3676C17.0377 31.4483 16.9454 31.5653 16.895 31.7018C16.8446 31.8383 16.8388 31.9873 16.8785 32.1273C16.9538 32.3945 18.831 38.718 22.647 39.3688C23.0336 39.4386 23.4257 39.473 23.8186 39.4716C24.8056 39.4819 25.7776 39.2289 26.6343 38.7385C25.8193 37.8871 24.9063 37.1351 23.9145 36.4982C24.1132 36.5503 27.8785 37.5177 28.0594 37.6081C28.9899 37.9392 29.7951 38.5504 30.3643 39.3576C30.9335 40.1648 31.2388 41.1284 31.2383 42.1161V42.1723C30.068 41.6915 28.8232 41.4175 27.5592 41.3625C23.0375 41.0816 20.8589 42.8629 19.8244 44.4112C19.4757 44.9398 19.2014 45.5138 19.0091 46.1171C20.5635 45.9776 22.1294 46.0398 23.6678 46.3021C23.7582 46.3151 23.845 46.3459 23.9233 46.3928C24.0016 46.4397 24.0697 46.5017 24.1238 46.5752C24.1778 46.6488 24.2167 46.7323 24.2381 46.821C24.2595 46.9097 24.263 47.0018 24.2485 47.0919C24.2339 47.182 24.2016 47.2683 24.1533 47.3457C24.105 47.4232 24.0418 47.4902 23.9674 47.543C23.8929 47.5957 23.8087 47.6331 23.7196 47.653C23.6306 47.6728 23.5384 47.6747 23.4486 47.6586C21.8782 47.3853 20.2759 47.346 18.694 47.5421C14.1086 48.2012 12.6404 51.2157 12.2191 52.4886H10.6851C10.5034 52.4886 10.3291 52.5608 10.2007 52.6893C10.0722 52.8177 10 52.992 10 53.1737C10 53.3554 10.0722 53.5297 10.2007 53.6581C10.3291 53.7866 10.5034 53.8588 10.6851 53.8588H53.1616C53.3433 53.8588 53.5176 53.7866 53.6461 53.6581C53.7745 53.5297 53.8467 53.3554 53.8467 53.1737C53.8467 52.992 53.7745 52.8177 53.6461 52.6893C53.5176 52.5608 53.3433 52.4886 53.1616 52.4886ZM24.3872 20.2887C24.3872 18.7981 24.8292 17.3411 25.6573 16.1018C26.4854 14.8625 27.6623 13.8965 29.0394 13.3262C30.4165 12.7558 31.9317 12.6065 33.3936 12.8973C34.8555 13.1881 36.1983 13.9058 37.2522 14.9598C38.3062 16.0137 39.0239 17.3566 39.3147 18.8184C39.6055 20.2803 39.4563 21.7956 38.8859 23.1726C38.3155 24.5497 37.3495 25.7267 36.1102 26.5547C34.8709 27.3828 33.4139 27.8248 31.9234 27.8248C29.9253 27.8226 28.0097 27.0279 26.5969 25.6151C25.1841 24.2023 24.3894 22.2867 24.3872 20.2887ZM45.4247 18.0326L48.3659 15.0914V29.8801C48.3659 30.0618 48.4381 30.2361 48.5665 30.3646C48.695 30.493 48.8693 30.5652 49.051 30.5652C49.2327 30.5652 49.4069 30.493 49.5354 30.3646C49.6639 30.2361 49.7361 30.0618 49.7361 29.8801V15.0914L52.6772 18.0326C52.7404 18.098 52.816 18.1502 52.8996 18.1861C52.9832 18.222 53.0731 18.2409 53.1641 18.2417C53.2551 18.2425 53.3453 18.2252 53.4295 18.1907C53.5137 18.1563 53.5902 18.1054 53.6545 18.0411C53.7188 17.9768 53.7697 17.9003 53.8041 17.8161C53.8386 17.7319 53.8559 17.6417 53.8551 17.5507C53.8543 17.4597 53.8354 17.3698 53.7995 17.2862C53.7636 17.2027 53.7114 17.1271 53.646 17.0639L49.5354 12.9532C49.4065 12.8255 49.2324 12.7538 49.051 12.7538C48.8695 12.7538 48.6954 12.8255 48.5666 12.9532L44.456 17.0639C44.3312 17.1931 44.2621 17.3661 44.2637 17.5458C44.2653 17.7254 44.3373 17.8972 44.4643 18.0243C44.5914 18.1513 44.7632 18.2233 44.9428 18.2249C45.1225 18.2265 45.2955 18.1574 45.4247 18.0326ZM49.051 31.9354C48.8693 31.9354 48.695 32.0076 48.5665 32.1361C48.4381 32.2646 48.3659 32.4388 48.3659 32.6205V33.9908C48.3659 34.1725 48.4381 34.3467 48.5665 34.4752C48.695 34.6037 48.8693 34.6759 49.051 34.6759C49.2327 34.6759 49.4069 34.6037 49.5354 34.4752C49.6639 34.3467 49.7361 34.1725 49.7361 33.9908V32.6205C49.7361 32.4388 49.6639 32.2646 49.5354 32.1361C49.4069 32.0076 49.2327 31.9354 49.051 31.9354Z" fill="black"/>
<path d="M11.1689 24.1985L14.11 21.2574V36.046C14.11 36.2277 14.1822 36.402 14.3107 36.5305C14.4392 36.659 14.6134 36.7311 14.7951 36.7311C14.9768 36.7311 15.1511 36.659 15.2796 36.5305C15.4081 36.402 15.4802 36.2277 15.4802 36.046V21.2574L18.4214 24.1985C18.5506 24.3233 18.7237 24.3924 18.9033 24.3908C19.0829 24.3892 19.2548 24.3172 19.3818 24.1902C19.5088 24.0631 19.5809 23.8913 19.5824 23.7117C19.584 23.532 19.5149 23.359 19.3901 23.2298L15.2795 19.1191C15.1507 18.9914 14.9766 18.9197 14.7951 18.9197C14.6137 18.9197 14.4396 18.9914 14.3108 19.1191L10.2001 23.2298C10.0753 23.359 10.0063 23.532 10.0078 23.7117C10.0094 23.8913 10.0815 24.0631 10.2085 24.1902C10.3355 24.3172 10.5073 24.3892 10.687 24.3908C10.8666 24.3924 11.0397 24.3233 11.1689 24.1985ZM14.7951 38.1013C14.6134 38.1013 14.4392 38.1735 14.3107 38.302C14.1822 38.4305 14.11 38.6047 14.11 38.7865V40.1567C14.11 40.3384 14.1822 40.5126 14.3107 40.6411C14.4392 40.7696 14.6134 40.8418 14.7951 40.8418C14.9768 40.8418 15.1511 40.7696 15.2796 40.6411C15.4081 40.5126 15.4802 40.3384 15.4802 40.1567V38.7865C15.4802 38.6047 15.4081 38.4305 15.2796 38.302C15.1511 38.1735 14.9768 38.1013 14.7951 38.1013Z" fill="black"/>
</svg>
