<svg width="64" height="64" viewBox="0 0 64 64" fill="none" xmlns="http://www.w3.org/2000/svg">
<rect width="64" height="64" rx="10" fill="#CFF3E2"/>
<path d="M30.9443 39.3685H47.7864V16.2105H24.6285V33.0527H20.418V15.1579C20.418 14.3204 20.7507 13.5171 21.3429 12.9249C21.9351 12.3327 22.7383 12 23.5759 12H48.8391C49.6766 12 50.4798 12.3327 51.072 12.9249C51.6643 13.5171 51.997 14.3204 51.997 15.1579V40.4211C51.997 41.2586 51.6643 42.0619 51.072 42.6541C50.4798 43.2463 49.6766 43.579 48.8391 43.579H30.9443V39.3685Z" fill="#1E1A17"/>
<path d="M30.9474 20.421C30.3891 20.421 29.8536 20.6428 29.4588 21.0376C29.0639 21.4325 28.8421 21.9679 28.8421 22.5263C28.8421 23.0846 29.0639 23.6201 29.4588 24.0149C29.8536 24.4098 30.3891 24.6316 30.9474 24.6316H36.3916L29.459 31.5642C29.2579 31.7584 29.0975 31.9907 28.9872 32.2476C28.8769 32.5044 28.8188 32.7807 28.8163 33.0602C28.8139 33.3397 28.8672 33.617 28.973 33.8757C29.0789 34.1344 29.2352 34.3695 29.4329 34.5671C29.6306 34.7648 29.8656 34.9211 30.1243 35.027C30.3831 35.1328 30.6603 35.1861 30.9398 35.1837C31.2194 35.1813 31.4956 35.1232 31.7525 35.0128C32.0093 34.9025 32.2416 34.7421 32.4358 34.541L39.3685 27.6084V33.0526C39.3685 33.611 39.5903 34.1465 39.9851 34.5413C40.3799 34.9361 40.9154 35.1579 41.4737 35.1579C42.0321 35.1579 42.5676 34.9361 42.9624 34.5413C43.3572 34.1465 43.579 33.611 43.579 33.0526V22.5263C43.579 22.4737 43.579 22.421 43.5727 22.3684C43.5329 21.8389 43.2945 21.3441 42.9052 20.983C42.516 20.6218 42.0047 20.4211 41.4737 20.421H30.9474ZM12 40.4211C12 39.5835 12.3327 38.7803 12.9249 38.1881C13.5171 37.5959 14.3204 37.2632 15.1579 37.2632H23.579C24.4165 37.2632 25.2197 37.5959 25.8119 38.1881C26.4042 38.7803 26.7369 39.5835 26.7369 40.4211V48.8421C26.7369 49.6797 26.4042 50.4829 25.8119 51.0751C25.2197 51.6673 24.4165 52 23.579 52H15.1579C14.3204 52 13.5171 51.6673 12.9249 51.0751C12.3327 50.4829 12 49.6797 12 48.8421V40.4211Z" fill="#1E1A17"/>
</svg>
