<svg width="64" height="64" viewBox="0 0 64 64" fill="none" xmlns="http://www.w3.org/2000/svg">
<rect width="64" height="64" rx="10" fill="#CFF3E2"/>
<path d="M47.9973 21.3359C47.9971 21.0381 47.8972 20.749 47.7136 20.5146C47.5299 20.2803 47.2731 20.1141 46.9841 20.0426C41.7065 18.7874 36.8599 16.1455 32.9453 12.3899C32.6935 12.1402 32.3533 12 31.9987 12C31.6441 12 31.3038 12.1402 31.0521 12.3899C27.1374 16.1455 22.2908 18.7874 17.0132 20.0426C16.7242 20.1141 16.4674 20.2803 16.2838 20.5146C16.1001 20.749 16.0002 21.0381 16 21.3359V34.5748C16.0017 36.4664 16.4492 38.331 17.3063 40.0173C18.1634 41.7037 19.4058 43.1643 20.9329 44.2806L31.2121 51.7467C31.4413 51.9114 31.7164 52 31.9987 52C32.2809 52 32.5561 51.9114 32.7853 51.7467L43.0644 44.2806C44.5915 43.1643 45.834 41.7037 46.691 40.0173C47.5481 38.331 47.9956 36.4664 47.9973 34.5748V21.3359ZM38.2781 30.2818L31.612 36.9479C31.3593 37.1958 31.0194 37.3346 30.6654 37.3346C30.3115 37.3346 29.9716 37.1958 29.7189 36.9479L25.7192 32.9482C25.4681 32.6972 25.3271 32.3567 25.3271 32.0016C25.3271 31.6466 25.4681 31.3061 25.7192 31.0551C25.9702 30.804 26.3107 30.663 26.6658 30.663C27.0208 30.663 27.3613 30.804 27.6124 31.0551L30.6654 34.1215L36.385 28.3886C36.636 28.1376 36.9765 27.9965 37.3316 27.9965C37.6866 27.9965 38.0271 28.1376 38.2781 28.3886C38.5292 28.6397 38.6702 28.9802 38.6702 29.3352C38.6702 29.6902 38.5292 30.0307 38.2781 30.2818Z" fill="#1E1A17"/>
</svg>
