<svg width="64" height="64" viewBox="0 0 64 64" fill="none" xmlns="http://www.w3.org/2000/svg">
<rect width="64" height="64" rx="10" fill="#CFF3E2"/>
<path fill-rule="evenodd" clip-rule="evenodd" d="M46.3035 12.876C48.3374 12.876 50.0015 14.7373 50.0015 17.0124V26.1077C50.0007 26.521 49.8361 26.9172 49.5439 27.2095C49.2516 27.5018 48.8554 27.6663 48.442 27.6671H42.6056V17.0124C42.6056 14.7374 44.2696 12.876 46.3035 12.876ZM17.0083 12.876C16.2112 12.8784 15.4474 13.1961 14.8838 13.7598C14.3201 14.3234 14.0024 15.0872 14 15.8843V49.5224C14.0008 49.9358 14.1654 50.3319 14.4576 50.6242C14.7499 50.9165 15.1461 51.081 15.5594 51.0818H39.8766C40.2899 51.081 40.6861 50.9165 40.9784 50.6242C41.2707 50.3319 41.4352 49.9358 41.436 49.5224V17.0124C41.436 15.419 42.1214 13.8818 43.2563 12.876H17.0083ZM19.897 18.5842C20.7363 18.4464 21.5112 18.0488 22.1126 17.4473C22.7141 16.8458 23.1116 16.0708 23.2493 15.2315H32.1867C32.3244 16.0709 32.722 16.8459 33.3235 17.4474C33.925 18.0489 34.7001 18.4465 35.5395 18.5842V24.1267C35.5395 26.4474 34.5148 28.4458 32.6303 29.8002L27.7182 33.3305L22.806 29.8002C20.9216 28.4456 19.897 26.4482 19.897 24.1267L19.897 18.5842ZM38.005 47.3938H17.431C17.2759 47.3938 17.1272 47.3322 17.0175 47.2225C16.9079 47.1129 16.8463 46.9641 16.8463 46.809C16.8463 46.6539 16.9079 46.5052 17.0175 46.3955C17.1272 46.2859 17.2759 46.2242 17.431 46.2242H38.005C38.1601 46.2242 38.3088 46.2859 38.4185 46.3955C38.5282 46.5052 38.5898 46.6539 38.5898 46.809C38.5898 46.9641 38.5282 47.1129 38.4185 47.2225C38.3088 47.3322 38.1601 47.3938 38.005 47.3938ZM38.005 43.6864H17.431C17.2759 43.6864 17.1272 43.6247 17.0175 43.5151C16.9079 43.4054 16.8463 43.2567 16.8463 43.1016C16.8463 42.9465 16.9079 42.7977 17.0175 42.6881C17.1272 42.5784 17.2759 42.5168 17.431 42.5168H38.005C38.1601 42.5168 38.3088 42.5784 38.4185 42.6881C38.5282 42.7977 38.5898 42.9465 38.5898 43.1016C38.5898 43.2567 38.5282 43.4054 38.4185 43.5151C38.3088 43.6247 38.1601 43.6864 38.005 43.6864ZM38.005 39.9789H17.431C17.2759 39.9789 17.1272 39.9173 17.0175 39.8076C16.9079 39.698 16.8463 39.5492 16.8463 39.3941C16.8463 39.239 16.9079 39.0903 17.0175 38.9806C17.1272 38.8709 17.2759 38.8093 17.431 38.8093H38.005C38.1601 38.8093 38.3088 38.8709 38.4185 38.9806C38.5282 39.0903 38.5898 39.239 38.5898 39.3941C38.5898 39.5492 38.5282 39.698 38.4185 39.8076C38.3088 39.9173 38.1601 39.9789 38.005 39.9789ZM38.005 36.2715H17.431C17.2759 36.2715 17.1272 36.2098 17.0175 36.1002C16.9079 35.9905 16.8463 35.8418 16.8463 35.6867C16.8463 35.5316 16.9079 35.3828 17.0175 35.2732C17.1272 35.1635 17.2759 35.1019 17.431 35.1019H38.005C38.1601 35.1019 38.3088 35.1635 38.4185 35.2732C38.5282 35.3828 38.5898 35.5316 38.5898 35.6867C38.5898 35.8418 38.5282 35.9905 38.4185 36.1002C38.3088 36.2098 38.1601 36.2715 38.005 36.2715ZM30.7289 17.259H24.7072C24.112 18.4683 23.1335 19.4468 21.9242 20.0421V24.1267C21.9242 25.7953 22.6344 27.1804 23.989 28.154L27.718 30.8341L31.4471 28.154C32.8014 27.1806 33.5122 25.7945 33.5122 24.1267V20.0421C32.3028 19.4469 31.3241 18.4684 30.7289 17.259ZM31.2624 22.6826L27.683 26.8585C27.5978 26.9683 27.4895 27.0581 27.3659 27.1215C27.2422 27.1849 27.1062 27.2205 26.9673 27.2257C26.8284 27.2309 26.6901 27.2056 26.562 27.1516C26.434 27.0976 26.3193 27.0162 26.2261 26.9131L24.1896 24.6452C24.0212 24.458 23.934 24.2116 23.9473 23.9602C23.9605 23.7088 24.0731 23.473 24.2603 23.3046C24.4474 23.1362 24.6938 23.049 24.9452 23.0623C25.1966 23.0755 25.4325 23.1881 25.6009 23.3753L26.9161 24.8399L29.8219 21.4498C29.9861 21.2611 30.2181 21.1449 30.4676 21.1265C30.7171 21.1081 30.9637 21.189 31.1537 21.3516C31.3438 21.5143 31.4619 21.7454 31.4823 21.9947C31.5027 22.244 31.4237 22.4913 31.2627 22.6826H31.2624Z" fill="#1E1A17"/>
</svg>
