<svg width="20" height="16" viewBox="0 0 20 16" fill="none" xmlns="http://www.w3.org/2000/svg">
<path d="M19.0769 11.0769H17.8462V8C17.8462 7.66031 17.5705 7.38462 17.2308 7.38462H10.4615V4.92308H11.6923C12.032 4.92308 12.3077 4.64738 12.3077 4.30769V0.615385C12.3077 0.275692 12.032 0 11.6923 0H8C7.66031 0 7.38462 0.275692 7.38462 0.615385V4.30769C7.38462 4.64738 7.66031 4.92308 8 4.92308H9.23077V7.38462H2.46154C2.12185 7.38462 1.84615 7.66031 1.84615 8V11.0769H0.615385C0.275692 11.0769 0 11.3526 0 11.6923V15.3846C0 15.7243 0.275692 16 0.615385 16H4.30769C4.64738 16 4.92308 15.7243 4.92308 15.3846V11.6923C4.92308 11.3526 4.64738 11.0769 4.30769 11.0769H3.07692V8.61539H9.23077V11.0769H8C7.66031 11.0769 7.38462 11.3526 7.38462 11.6923V15.3846C7.38462 15.7243 7.66031 16 8 16H11.6923C12.032 16 12.3077 15.7243 12.3077 15.3846V11.6923C12.3077 11.3526 12.032 11.0769 11.6923 11.0769H10.4615V8.61539H16.6154V11.0769H15.3846C15.0449 11.0769 14.7692 11.3526 14.7692 11.6923V15.3846C14.7692 15.7243 15.0449 16 15.3846 16H19.0769C19.4166 16 19.6923 15.7243 19.6923 15.3846V11.6923C19.6923 11.3526 19.4166 11.0769 19.0769 11.0769Z" fill="#059669"/>
</svg>
