<svg width="16" height="16" viewBox="0 0 16 16" fill="none" xmlns="http://www.w3.org/2000/svg">
<path fill-rule="evenodd" clip-rule="evenodd" d="M9.68186 16H2.04651C1.504 16 0.98307 15.7842 0.59907 15.4009C0.215662 15.0168 0.000227881 14.4962 0 13.9535V2.04651C0 1.504 0.215814 0.98307 0.59907 0.59907C0.983235 0.215662 1.50376 0.000227881 2.04651 0H9.15944C9.52633 0 9.87609 0.154791 10.1232 0.426419L13.4288 4.06251C13.6469 4.30288 13.7674 4.6147 13.7674 4.93916V8.52688C13.1167 8.25058 12.4076 8.13976 11.7036 8.20432C10.9996 8.26888 10.3225 8.50682 9.73287 8.89687C9.14323 9.28691 8.65937 9.81694 8.32452 10.4396C7.98968 11.0622 7.81426 11.7581 7.81395 12.4651C7.81395 13.9327 8.55442 15.229 9.68186 16ZM2.4186 12.2791H6.13953C6.28756 12.2791 6.42953 12.2203 6.5342 12.1156C6.63887 12.0109 6.69767 11.869 6.69767 11.7209C6.69767 11.5729 6.63887 11.4309 6.5342 11.3263C6.42953 11.2216 6.28756 11.1628 6.13953 11.1628H2.4186C2.27058 11.1628 2.12861 11.2216 2.02394 11.3263C1.91927 11.4309 1.86047 11.5729 1.86047 11.7209C1.86047 11.869 1.91927 12.0109 2.02394 12.1156C2.12861 12.2203 2.27058 12.2791 2.4186 12.2791ZM9.11628 1.00688V4.27907C9.11598 4.37688 9.13503 4.47378 9.17233 4.56421C9.20962 4.65463 9.26443 4.73678 9.33359 4.80595C9.40275 4.87511 9.48491 4.92991 9.57533 4.96721C9.66575 5.0045 9.76265 5.02355 9.86047 5.02326H12.7792C12.7466 4.94506 12.7007 4.87307 12.6437 4.81042L9.33805 1.17358C9.27489 1.10498 9.19973 1.04848 9.11628 1.00688ZM2.4186 6.32558H6.13953C6.28756 6.32558 6.42953 6.26678 6.5342 6.16211C6.63887 6.05743 6.69767 5.91547 6.69767 5.76744C6.69767 5.61941 6.63887 5.47745 6.5342 5.37278C6.42953 5.26811 6.28756 5.2093 6.13953 5.2093H2.4186C2.27058 5.2093 2.12861 5.26811 2.02394 5.37278C1.91927 5.47745 1.86047 5.61941 1.86047 5.76744C1.86047 5.91547 1.91927 6.05743 2.02394 6.16211C2.12861 6.26678 2.27058 6.32558 2.4186 6.32558ZM2.4186 9.30233H7.62791C7.77593 9.30233 7.9179 9.24352 8.02257 9.13885C8.12724 9.03418 8.18605 8.89221 8.18605 8.74419C8.18605 8.59616 8.12724 8.45419 8.02257 8.34952C7.9179 8.24485 7.77593 8.18605 7.62791 8.18605H2.4186C2.27058 8.18605 2.12861 8.24485 2.02394 8.34952C1.91927 8.45419 1.86047 8.59616 1.86047 8.74419C1.86047 8.89221 1.91927 9.03418 2.02394 9.13885C2.12861 9.24352 2.27058 9.30233 2.4186 9.30233Z" fill="#F59E0B"/>
<path fill-rule="evenodd" clip-rule="evenodd" d="M12.0935 8.93018C14.0447 8.93018 15.6284 10.5138 15.6284 12.4651C15.6284 14.4163 14.0447 15.9999 12.0935 15.9999C10.1422 15.9999 8.55859 14.4163 8.55859 12.4651C8.55859 10.5138 10.1422 8.93018 12.0935 8.93018ZM10.3595 12.8595L11.2525 13.7525C11.3043 13.8043 11.3658 13.8455 11.4335 13.8735C11.5012 13.9016 11.5737 13.916 11.647 13.916C11.7202 13.916 11.7928 13.9016 11.8605 13.8735C11.9281 13.8455 11.9896 13.8043 12.0414 13.7525L13.8274 11.9665C13.8792 11.9147 13.9203 11.8532 13.9483 11.7855C13.9764 11.7178 13.9908 11.6453 13.9908 11.572C13.9908 11.4988 13.9764 11.4263 13.9483 11.3586C13.9203 11.2909 13.8792 11.2294 13.8274 11.1776C13.7756 11.1258 13.7141 11.0847 13.6465 11.0567C13.5788 11.0287 13.5063 11.0142 13.433 11.0142C13.3598 11.0142 13.2872 11.0287 13.2196 11.0567C13.1519 11.0847 13.0904 11.1258 13.0386 11.1776L11.647 12.5685L11.1484 12.0706C11.0438 11.966 10.9019 11.9073 10.7539 11.9073C10.606 11.9073 10.4641 11.966 10.3595 12.0706C10.2549 12.1752 10.1962 12.3171 10.1962 12.4651C10.1962 12.613 10.2549 12.7549 10.3595 12.8595Z" fill="#F59E0B"/>
</svg>
