<svg width="100" height="100" viewBox="0 0 100 100" fill="none" xmlns="http://www.w3.org/2000/svg">
<rect width="100" height="100" rx="10" fill="#F0EDE6"/>
<path d="M74.7778 62.2222V32.8889C74.7778 31.5923 74.2627 30.3488 73.3459 29.4319C72.429 28.5151 71.1855 28 69.8889 28H25.8889C24.5923 28 23.3488 28.5151 22.4319 29.4319C21.5151 30.3488 21 31.5923 21 32.8889V62.2222C21 63.5188 21.5151 64.7623 22.4319 65.6792C23.3488 66.596 24.5923 67.1111 25.8889 67.1111H69.8889C71.1855 67.1111 72.429 66.596 73.3459 65.6792C74.2627 64.7623 74.7778 63.5188 74.7778 62.2222ZM38.1111 37.7778C39.078 37.7778 40.0233 38.0645 40.8272 38.6017C41.6312 39.1389 42.2578 39.9024 42.6279 40.7958C42.9979 41.6891 43.0947 42.6721 42.9061 43.6204C42.7174 44.5688 42.2518 45.4399 41.5681 46.1236C40.8844 46.8074 40.0132 47.273 39.0649 47.4616C38.1165 47.6503 37.1335 47.5534 36.2402 47.1834C35.3469 46.8134 34.5833 46.1868 34.0461 45.3828C33.509 44.5788 33.2222 43.6336 33.2222 42.6667C33.2222 41.3701 33.7373 40.1265 34.6541 39.2097C35.571 38.2929 36.8145 37.7778 38.1111 37.7778ZM47.8889 54.8889C47.8889 55.5372 47.6313 56.1589 47.1729 56.6174C46.7145 57.0758 46.0928 57.3333 45.4444 57.3333H30.7778C30.1295 57.3333 29.5077 57.0758 29.0493 56.6174C28.5909 56.1589 28.3333 55.5372 28.3333 54.8889V54.4C28.3356 53.5945 28.5665 52.8062 28.9992 52.1268C29.432 51.4473 30.0487 50.9048 30.7778 50.5622C33.0592 49.4267 35.5633 48.809 38.1111 48.7533C40.6589 48.809 43.163 49.4267 45.4444 50.5622C46.1735 50.9048 46.7903 51.4473 47.223 52.1268C47.6557 52.8062 47.8867 53.5945 47.8889 54.4V54.8889ZM66.2222 57.3333H51.5556C51.2314 57.3333 50.9205 57.2046 50.6913 56.9754C50.4621 56.7461 50.3333 56.4353 50.3333 56.1111C50.3333 55.787 50.4621 55.4761 50.6913 55.2469C50.9205 55.0177 51.2314 54.8889 51.5556 54.8889H66.2222C66.5464 54.8889 66.8573 55.0177 67.0865 55.2469C67.3157 55.4761 67.4444 55.787 67.4444 56.1111C67.4444 56.4353 67.3157 56.7461 67.0865 56.9754C66.8573 57.2046 66.5464 57.3333 66.2222 57.3333ZM66.2222 50H51.5556C51.2314 50 50.9205 49.8712 50.6913 49.642C50.4621 49.4128 50.3333 49.1019 50.3333 48.7778C50.3333 48.4536 50.4621 48.1427 50.6913 47.9135C50.9205 47.6843 51.2314 47.5556 51.5556 47.5556H66.2222C66.5464 47.5556 66.8573 47.6843 67.0865 47.9135C67.3157 48.1427 67.4444 48.4536 67.4444 48.7778C67.4444 49.1019 67.3157 49.4128 67.0865 49.642C66.8573 49.8712 66.5464 50 66.2222 50ZM66.2222 42.6667H51.5556C51.2314 42.6667 50.9205 42.5379 50.6913 42.3087C50.4621 42.0795 50.3333 41.7686 50.3333 41.4444C50.3333 41.1203 50.4621 40.8094 50.6913 40.5802C50.9205 40.351 51.2314 40.2222 51.5556 40.2222H66.2222C66.5464 40.2222 66.8573 40.351 67.0865 40.5802C67.3157 40.8094 67.4444 41.1203 67.4444 41.4444C67.4444 41.7686 67.3157 42.0795 67.0865 42.3087C66.8573 42.5379 66.5464 42.6667 66.2222 42.6667Z" fill="#1E1A17"/>
<path d="M77.2221 33.5981V64.667C77.2221 65.9636 76.707 67.2072 75.7902 68.124C74.8733 69.0408 73.6298 69.5559 72.3332 69.5559H26.5977C27.0221 70.2913 27.6308 70.9034 28.3638 71.332C29.0967 71.7606 29.9286 71.991 30.7777 72.0004H74.7776C76.0743 72.0004 77.3178 71.4853 78.2346 70.5684C79.1515 69.6516 79.6665 68.4081 79.6665 67.1115V37.7781C79.6571 36.9291 79.4268 36.0972 78.9982 35.3642C78.5696 34.6313 77.9574 34.0226 77.2221 33.5981Z" fill="#1E1A17"/>
</svg>
