<svg width="14" height="16" viewBox="0 0 14 16" fill="none" xmlns="http://www.w3.org/2000/svg">
<path d="M6.85714 15.9998C9.418 15.9998 13.7143 15.5175 13.7143 12.2855C13.7143 9.91579 11.2 5.90922 8.51429 4.85693H5.2C2.51429 5.90922 0 9.91579 0 12.2855C0 15.5175 4.29629 15.9998 6.85714 15.9998ZM4.74114 7.73865C4.81033 7.70795 4.88888 7.70596 4.95954 7.73311C5.0302 7.76027 5.08719 7.81436 5.118 7.8835C5.45119 8.68296 5.71177 9.51077 5.89657 10.3569C7.58714 10.1284 8.33343 9.71608 8.34114 9.71179C8.40688 9.67409 8.4849 9.66405 8.55804 9.68388C8.63118 9.7037 8.69344 9.75177 8.73114 9.8175C8.76884 9.88324 8.77888 9.96126 8.75906 10.0344C8.73923 10.1075 8.69116 10.1698 8.62543 10.2075C8.61543 10.2132 8.536 10.2572 8.38657 10.3218C8.50052 11.1173 8.70796 11.8966 9.00457 12.6435C9.09 12.599 9.17194 12.5481 9.24971 12.4912C9.3089 12.4466 9.38312 12.4267 9.45669 12.4358C9.53026 12.4448 9.59743 12.4821 9.644 12.5398C9.69058 12.5975 9.71293 12.671 9.70631 12.7448C9.6997 12.8187 9.66465 12.887 9.60857 12.9355C9.56943 12.9675 8.62857 13.7141 6.78686 13.7141C5.418 13.7141 4.76286 13.4141 4.73571 13.4012C4.66902 13.368 4.61793 13.3101 4.59335 13.2397C4.56877 13.1694 4.57264 13.0922 4.60413 13.0247C4.63562 12.9572 4.69224 12.9046 4.76192 12.8782C4.8316 12.8519 4.90883 12.8538 4.97714 12.8835C5.20908 12.9715 5.45054 13.032 5.69657 13.0638C5.60232 11.3654 5.23054 9.69397 4.596 8.11579C4.58076 8.0815 4.57243 8.04454 4.57148 8.00702C4.57053 7.96951 4.57697 7.93218 4.59045 7.89715C4.60393 7.86213 4.62417 7.83011 4.65003 7.80291C4.67589 7.77571 4.70685 7.75388 4.74114 7.73865Z" fill="#0891B2"/>
<path d="M8.02388 11.4511C7.94892 11.1445 7.88649 10.8349 7.83674 10.5231C7.24025 10.7063 6.6293 10.8385 6.01045 10.9183C6.05369 11.1444 6.09302 11.379 6.12845 11.622L8.02388 11.4511ZM5.59817 2.26771C5.56594 2.27951 5.53191 2.2856 5.4976 2.28571C5.43945 2.28569 5.38269 2.26793 5.3349 2.23479C5.28712 2.20166 5.25058 2.15474 5.23017 2.10029L4.8696 1.14286H4.25817C4.20906 1.14239 4.16084 1.15601 4.11922 1.18208C4.0776 1.20816 4.04432 1.24561 4.02331 1.29C4.00138 1.33308 3.9924 1.38159 3.99747 1.42966C4.00254 1.47773 4.02144 1.5233 4.05188 1.56086L5.28102 3.14286H8.42674L9.65531 1.56171C9.68586 1.52405 9.70481 1.47832 9.70989 1.43009C9.71496 1.38186 9.70592 1.3332 9.68388 1.29C9.66298 1.24583 9.62992 1.20853 9.58858 1.18247C9.54723 1.15641 9.49932 1.14267 9.45045 1.14286H8.83903L8.48017 2.10029C8.45974 2.15478 8.42316 2.20174 8.37532 2.23488C8.32747 2.26801 8.27065 2.28575 8.21245 2.28571C8.17814 2.28558 8.14411 2.27949 8.11188 2.26771C8.07674 2.25454 8.04453 2.23456 8.01711 2.20893C7.98969 2.1833 7.96758 2.15252 7.95206 2.11835C7.93654 2.08417 7.92791 2.04727 7.92665 2.00976C7.92539 1.97224 7.93154 1.93485 7.94474 1.89971L8.37331 0.756857L8.5256 0.351429C8.54032 0.31204 8.54528 0.26967 8.54006 0.227945C8.53483 0.186219 8.51958 0.146381 8.49559 0.111839C8.47161 0.0772977 8.43962 0.0490809 8.40235 0.0296037C8.36508 0.0101266 8.32365 -3.10611e-05 8.2816 1.96959e-07H5.42674C5.38469 -5.15569e-05 5.34325 0.0100967 5.30599 0.0295748C5.26872 0.0490529 5.23673 0.0772794 5.21277 0.111834C5.1888 0.146388 5.17358 0.186239 5.1684 0.22797C5.16322 0.2697 5.16824 0.312064 5.18302 0.351429L5.33531 0.756857L5.76388 1.89971C5.79061 1.9705 5.78818 2.04899 5.75711 2.11798C5.72605 2.18697 5.66889 2.24082 5.59817 2.26771ZM6.26988 13.1251C6.42817 13.1354 6.59617 13.1429 6.78417 13.1429C7.36007 13.1491 7.93285 13.0576 8.47817 12.8723C8.36273 12.5905 8.26165 12.3031 8.17531 12.0111L6.1996 12.1894C6.23302 12.492 6.25531 12.8049 6.26988 13.1251ZM8.5696 4.28571C8.64537 4.28571 8.71805 4.25561 8.77163 4.20203C8.82521 4.14845 8.85531 4.07578 8.85531 4C8.85531 3.92422 8.82521 3.85155 8.77163 3.79797C8.71805 3.74439 8.64537 3.71429 8.5696 3.71429H5.14102C5.06525 3.71429 4.99258 3.74439 4.93899 3.79797C4.88541 3.85155 4.85531 3.92422 4.85531 4C4.85531 4.07578 4.88541 4.14845 4.93899 4.20203C4.99258 4.25561 5.06525 4.28571 5.14102 4.28571H8.5696Z" fill="#0891B2"/>
</svg>
