<svg width="100" height="100" viewBox="0 0 100 100" fill="none" xmlns="http://www.w3.org/2000/svg">
<rect width="100" height="100" rx="10" fill="#F0EDE6"/>
<path fill-rule="evenodd" clip-rule="evenodd" d="M56.0456 74H33.1395C31.512 74 29.9492 73.3526 28.7972 72.2028C27.647 71.0503 27.0007 69.4887 27 67.8605V32.1395C27 30.512 27.6474 28.9492 28.7972 27.7972C29.9497 26.647 31.5113 26.0007 33.1395 26H54.4783C55.579 26 56.6283 26.4644 57.3695 27.2793L67.2865 38.1875C67.9407 38.9087 68.3024 39.8441 68.3024 40.8175V51.5807C66.3501 50.7517 64.2229 50.4193 62.1109 50.613C59.9988 50.8067 57.9676 51.5204 56.1986 52.6906C54.4297 53.8607 52.9781 55.4508 51.9736 57.3188C50.969 59.1867 50.4428 61.2744 50.4419 63.3954C50.4419 67.798 52.6633 71.6871 56.0456 74ZM34.2558 62.8372H45.4186C45.8627 62.8372 46.2886 62.6608 46.6026 62.3468C46.9166 62.0328 47.093 61.6069 47.093 61.1628C47.093 60.7187 46.9166 60.2928 46.6026 59.9788C46.2886 59.6648 45.8627 59.4884 45.4186 59.4884H34.2558C33.8117 59.4884 33.3858 59.6648 33.0718 59.9788C32.7578 60.2928 32.5814 60.7187 32.5814 61.1628C32.5814 61.6069 32.7578 62.0328 33.0718 62.3468C33.3858 62.6608 33.8117 62.8372 34.2558 62.8372ZM54.3489 29.0207V38.8372C54.348 39.1306 54.4051 39.4214 54.517 39.6926C54.6289 39.9639 54.7933 40.2104 55.0008 40.4178C55.2083 40.6253 55.4547 40.7897 55.726 40.9016C55.9973 41.0135 56.288 41.0707 56.5814 41.0698H65.3375C65.2397 40.8352 65.1023 40.6192 64.9312 40.4313L55.0142 29.5207C54.8247 29.3149 54.5992 29.1455 54.3489 29.0207ZM34.2558 44.9767H45.4186C45.8627 44.9767 46.2886 44.8003 46.6026 44.4863C46.9166 44.1723 47.093 43.7464 47.093 43.3023C47.093 42.8582 46.9166 42.4323 46.6026 42.1183C46.2886 41.8043 45.8627 41.6279 45.4186 41.6279H34.2558C33.8117 41.6279 33.3858 41.8043 33.0718 42.1183C32.7578 42.4323 32.5814 42.8582 32.5814 43.3023C32.5814 43.7464 32.7578 44.1723 33.0718 44.4863C33.3858 44.8003 33.8117 44.9767 34.2558 44.9767ZM34.2558 53.907H49.8837C50.3278 53.907 50.7537 53.7306 51.0677 53.4166C51.3817 53.1025 51.5582 52.6766 51.5582 52.2326C51.5582 51.7885 51.3817 51.3626 51.0677 51.0486C50.7537 50.7346 50.3278 50.5581 49.8837 50.5581H34.2558C33.8117 50.5581 33.3858 50.7346 33.0718 51.0486C32.7578 51.3626 32.5814 51.7885 32.5814 52.2326C32.5814 52.6766 32.7578 53.1025 33.0718 53.4166C33.3858 53.7306 33.8117 53.907 34.2558 53.907Z" fill="#1E1A17"/>
<path fill-rule="evenodd" clip-rule="evenodd" d="M63.2804 52.7905C69.1342 52.7905 73.8851 57.5414 73.8851 63.3952C73.8851 69.2489 69.1342 73.9998 63.2804 73.9998C57.4267 73.9998 52.6758 69.2489 52.6758 63.3952C52.6758 57.5414 57.4267 52.7905 63.2804 52.7905ZM58.0786 64.5784L60.7577 67.2575C60.913 67.413 61.0974 67.5364 61.3004 67.6206C61.5035 67.7048 61.7211 67.7481 61.9409 67.7481C62.1607 67.7481 62.3783 67.7048 62.5814 67.6206C62.7844 67.5364 62.9689 67.413 63.1242 67.2575L68.4823 61.8994C68.6377 61.744 68.761 61.5595 68.8451 61.3565C68.9291 61.1535 68.9724 60.9359 68.9724 60.7161C68.9724 60.4964 68.9291 60.2788 68.8451 60.0757C68.761 59.8727 68.6377 59.6882 68.4823 59.5329C68.3269 59.3775 68.1424 59.2542 67.9394 59.1701C67.7364 59.086 67.5188 59.0427 67.299 59.0427C67.0793 59.0427 66.8617 59.086 66.6587 59.1701C66.4557 59.2542 66.2712 59.3775 66.1158 59.5329L61.9409 63.7055L60.4451 62.2119C60.1313 61.8981 59.7056 61.7218 59.2618 61.7218C58.818 61.7218 58.3924 61.8981 58.0786 62.2119C57.7648 62.5257 57.5885 62.9514 57.5885 63.3952C57.5885 63.839 57.7648 64.2646 58.0786 64.5784Z" fill="#1E1A17"/>
</svg>
