<svg width="100" height="100" viewBox="0 0 100 100" fill="none" xmlns="http://www.w3.org/2000/svg">
<rect width="100" height="100" rx="10" fill="#F0EDE6"/>
<path d="M50.1429 77.0002C58.7858 77.0002 73.2857 75.3724 73.2857 64.4643C73.2857 56.4664 64.8 42.9441 55.7357 39.3926H44.55C35.4857 42.9441 27 56.4664 27 64.4643C27 75.3724 41.5 77.0002 50.1429 77.0002ZM43.0014 49.1185C43.2349 49.0149 43.5 49.0081 43.7384 49.0998C43.9769 49.1915 44.1693 49.374 44.2733 49.6074C45.3978 52.3056 46.2772 55.0995 46.9009 57.9553C52.6066 57.1839 55.1253 55.7924 55.1514 55.7779C55.3732 55.6507 55.6365 55.6168 55.8834 55.6837C56.1302 55.7506 56.3404 55.9128 56.4676 56.1347C56.5948 56.3566 56.6287 56.6199 56.5618 56.8667C56.4949 57.1136 56.3327 57.3237 56.1108 57.451C56.0771 57.4703 55.809 57.6188 55.3047 57.8367C55.6893 60.5216 56.3894 63.1518 57.3904 65.6726C57.6787 65.5223 57.9553 65.3505 58.2178 65.1586C58.4175 65.008 58.668 64.9409 58.9163 64.9715C59.1646 65.0021 59.3913 65.128 59.5485 65.3226C59.7057 65.5172 59.7811 65.7653 59.7588 66.0145C59.7365 66.2637 59.6182 66.4945 59.4289 66.6581C59.2968 66.7661 56.1214 69.2858 49.9056 69.2858C45.2858 69.2858 43.0746 68.2733 42.983 68.2299C42.7579 68.1178 42.5855 67.9222 42.5026 67.6848C42.4196 67.4474 42.4327 67.187 42.5389 66.9591C42.6452 66.7312 42.8363 66.5539 43.0715 66.4648C43.3067 66.3758 43.5673 66.3822 43.7979 66.4826C44.5806 66.7797 45.3956 66.9839 46.2259 67.0911C45.9078 61.359 44.6531 55.7178 42.5115 50.3914C42.4601 50.2756 42.432 50.1509 42.4287 50.0243C42.4255 49.8977 42.4473 49.7716 42.4928 49.6534C42.5383 49.5352 42.6066 49.4272 42.6939 49.3354C42.7811 49.2436 42.8856 49.1699 43.0014 49.1185Z" fill="#1E1A17"/>
<path d="M54.086 61.6481C53.833 60.6131 53.6223 59.5682 53.4544 58.516C51.4412 59.1341 49.3792 59.5803 47.2906 59.8497C47.4366 60.6127 47.5693 61.4044 47.6889 62.2247L54.086 61.6481ZM45.8992 30.6536C45.7904 30.6934 45.6756 30.714 45.5598 30.7144C45.3635 30.7143 45.1719 30.6544 45.0107 30.5425C44.8494 30.4307 44.7261 30.2723 44.6572 30.0886L43.4403 26.8572H41.3767C41.2109 26.8556 41.0482 26.9016 40.9077 26.9896C40.7673 27.0776 40.6549 27.204 40.584 27.3538C40.51 27.4992 40.4797 27.6629 40.4968 27.8252C40.514 27.9874 40.5777 28.1412 40.6805 28.268L44.8288 33.6073H55.4456L59.592 28.2709C59.6951 28.1437 59.7591 27.9894 59.7762 27.8266C59.7934 27.6638 59.7629 27.4996 59.6885 27.3538C59.6179 27.2047 59.5063 27.0788 59.3668 26.9909C59.2273 26.9029 59.0656 26.8565 58.9007 26.8572H56.8371L55.6259 30.0886C55.557 30.2725 55.4335 30.431 55.2721 30.5428C55.1106 30.6546 54.9188 30.7145 54.7224 30.7144C54.6066 30.7139 54.4917 30.6934 54.383 30.6536C54.2644 30.6091 54.1557 30.5417 54.0631 30.4552C53.9706 30.3687 53.896 30.2648 53.8436 30.1495C53.7912 30.0342 53.7621 29.9096 53.7578 29.783C53.7536 29.6564 53.7743 29.5302 53.8189 29.4116L55.2653 25.5544L55.7793 24.1861C55.829 24.0531 55.8457 23.9101 55.8281 23.7693C55.8104 23.6285 55.7589 23.494 55.678 23.3775C55.5971 23.2609 55.4891 23.1657 55.3633 23.0999C55.2375 23.0342 55.0977 22.9999 54.9558 23H45.3206C45.1787 22.9998 45.0388 23.0341 44.9131 23.0998C44.7873 23.1656 44.6793 23.2608 44.5985 23.3774C44.5176 23.4941 44.4662 23.6286 44.4487 23.7694C44.4312 23.9102 44.4482 24.0532 44.4981 24.1861L45.012 25.5544L46.4585 29.4116C46.5487 29.6505 46.5405 29.9154 46.4356 30.1483C46.3308 30.3811 46.1379 30.5628 45.8992 30.6536ZM48.1662 67.2979C48.7004 67.3326 49.2674 67.3577 49.9019 67.3577C51.8456 67.3786 53.7787 67.0699 55.6192 66.4445C55.2296 65.4936 54.8884 64.5235 54.597 63.5381L47.929 64.1398C48.0418 65.161 48.117 66.2169 48.1662 67.2979ZM55.9278 37.4645C56.1835 37.4645 56.4288 37.3629 56.6096 37.182C56.7904 37.0012 56.892 36.7559 56.892 36.5002C56.892 36.2444 56.7904 35.9991 56.6096 35.8183C56.4288 35.6375 56.1835 35.5359 55.9278 35.5359H44.3563C44.1006 35.5359 43.8553 35.6375 43.6745 35.8183C43.4936 35.9991 43.392 36.2444 43.392 36.5002C43.392 36.7559 43.4936 37.0012 43.6745 37.182C43.8553 37.3629 44.1006 37.4645 44.3563 37.4645H55.9278Z" fill="#1E1A17"/>
</svg>
