<svg width="100" height="100" viewBox="0 0 100 100" fill="none" xmlns="http://www.w3.org/2000/svg">
<rect width="100" height="100" rx="10" fill="#F0EDE6"/>
<path d="M76.8462 58.8462H73.3077V50C73.3077 49.0234 72.5151 48.2308 71.5385 48.2308H52.0769V41.1538H55.6154C56.592 41.1538 57.3846 40.3612 57.3846 39.3846V28.7692C57.3846 27.7926 56.592 27 55.6154 27H45C44.0234 27 43.2308 27.7926 43.2308 28.7692V39.3846C43.2308 40.3612 44.0234 41.1538 45 41.1538H48.5385V48.2308H29.0769C28.1003 48.2308 27.3077 49.0234 27.3077 50V58.8462H23.7692C22.7926 58.8462 22 59.6388 22 60.6154V71.2308C22 72.2074 22.7926 73 23.7692 73H34.3846C35.3612 73 36.1538 72.2074 36.1538 71.2308V60.6154C36.1538 59.6388 35.3612 58.8462 34.3846 58.8462H30.8462V51.7692H48.5385V58.8462H45C44.0234 58.8462 43.2308 59.6388 43.2308 60.6154V71.2308C43.2308 72.2074 44.0234 73 45 73H55.6154C56.592 73 57.3846 72.2074 57.3846 71.2308V60.6154C57.3846 59.6388 56.592 58.8462 55.6154 58.8462H52.0769V51.7692H69.7692V58.8462H66.2308C65.2542 58.8462 64.4615 59.6388 64.4615 60.6154V71.2308C64.4615 72.2074 65.2542 73 66.2308 73H76.8462C77.8228 73 78.6154 72.2074 78.6154 71.2308V60.6154C78.6154 59.6388 77.8228 58.8462 76.8462 58.8462Z" fill="#1E1A17"/>
</svg>
