<svg width="22" height="16" viewBox="0 0 22 16" fill="none" xmlns="http://www.w3.org/2000/svg">
<path d="M19.5556 12.4444V1.77778C19.5556 1.30628 19.3683 0.854097 19.0349 0.520699C18.7015 0.187301 18.2493 0 17.7778 0H1.77778C1.30628 0 0.854097 0.187301 0.520699 0.520699C0.187301 0.854097 0 1.30628 0 1.77778L0 12.4444C0 12.9159 0.187301 13.3681 0.520699 13.7015C0.854097 14.0349 1.30628 14.2222 1.77778 14.2222H17.7778C18.2493 14.2222 18.7015 14.0349 19.0349 13.7015C19.3683 13.3681 19.5556 12.9159 19.5556 12.4444ZM6.22222 3.55556C6.57383 3.55556 6.91755 3.65982 7.2099 3.85517C7.50226 4.05051 7.73012 4.32816 7.86468 4.65301C7.99923 4.97785 8.03444 5.33531 7.96584 5.68016C7.89724 6.02502 7.72793 6.34179 7.4793 6.59041C7.23067 6.83904 6.9139 7.00836 6.56905 7.07695C6.22419 7.14555 5.86674 7.11034 5.5419 6.97579C5.21705 6.84123 4.9394 6.61337 4.74405 6.32101C4.54871 6.02866 4.44444 5.68495 4.44444 5.33333C4.44444 4.86184 4.63175 4.40965 4.96514 4.07625C5.29854 3.74286 5.75073 3.55556 6.22222 3.55556ZM9.77778 9.77778C9.77778 10.0135 9.68413 10.2396 9.51743 10.4063C9.35073 10.573 9.12464 10.6667 8.88889 10.6667H3.55556C3.31981 10.6667 3.09372 10.573 2.92702 10.4063C2.76032 10.2396 2.66667 10.0135 2.66667 9.77778V9.6C2.66748 9.30709 2.75145 9.02042 2.90881 8.77337C3.06617 8.52631 3.29045 8.32902 3.55556 8.20444C4.38517 7.79153 5.29575 7.56692 6.22222 7.54667C7.1487 7.56692 8.05927 7.79153 8.88889 8.20444C9.154 8.32902 9.37828 8.52631 9.53564 8.77337C9.693 9.02042 9.77697 9.30709 9.77778 9.6V9.77778ZM16.4444 10.6667H11.1111C10.9932 10.6667 10.8802 10.6198 10.7968 10.5365C10.7135 10.4531 10.6667 10.3401 10.6667 10.2222C10.6667 10.1043 10.7135 9.9913 10.7968 9.90795C10.8802 9.8246 10.9932 9.77778 11.1111 9.77778H16.4444C16.5623 9.77778 16.6754 9.8246 16.7587 9.90795C16.8421 9.9913 16.8889 10.1043 16.8889 10.2222C16.8889 10.3401 16.8421 10.4531 16.7587 10.5365C16.6754 10.6198 16.5623 10.6667 16.4444 10.6667ZM16.4444 8H11.1111C10.9932 8 10.8802 7.95318 10.7968 7.86983C10.7135 7.78648 10.6667 7.67343 10.6667 7.55556C10.6667 7.43768 10.7135 7.32464 10.7968 7.24129C10.8802 7.15794 10.9932 7.11111 11.1111 7.11111H16.4444C16.5623 7.11111 16.6754 7.15794 16.7587 7.24129C16.8421 7.32464 16.8889 7.43768 16.8889 7.55556C16.8889 7.67343 16.8421 7.78648 16.7587 7.86983C16.6754 7.95318 16.5623 8 16.4444 8ZM16.4444 5.33333H11.1111C10.9932 5.33333 10.8802 5.28651 10.7968 5.20316C10.7135 5.11981 10.6667 5.00676 10.6667 4.88889C10.6667 4.77102 10.7135 4.65797 10.7968 4.57462C10.8802 4.49127 10.9932 4.44444 11.1111 4.44444H16.4444C16.5623 4.44444 16.6754 4.49127 16.7587 4.57462C16.8421 4.65797 16.8889 4.77102 16.8889 4.88889C16.8889 5.00676 16.8421 5.11981 16.7587 5.20316C16.6754 5.28651 16.5623 5.33333 16.4444 5.33333Z" fill="#BC47ED"/>
<path d="M20.444 2.03564V13.3334C20.444 13.8049 20.2567 14.2571 19.9233 14.5905C19.59 14.9239 19.1378 15.1112 18.6663 15.1112H2.03516C2.18951 15.3786 2.41085 15.6012 2.67738 15.757C2.9439 15.9129 3.24642 15.9967 3.55516 16.0001H19.5552C20.0267 16.0001 20.4788 15.8128 20.8122 15.4794C21.1456 15.146 21.3329 14.6938 21.3329 14.2223V3.55564C21.3295 3.24691 21.2458 2.94439 21.0899 2.67786C20.934 2.41134 20.7114 2.19 20.444 2.03564Z" fill="#BC47ED"/>
</svg>
