<svg width="64" height="64" viewBox="0 0 64 64" fill="none" xmlns="http://www.w3.org/2000/svg">
<rect width="64" height="64" rx="10" fill="#CFF3E2"/>
<path fill-rule="evenodd" clip-rule="evenodd" d="M43.8594 42.1305H14.7597C11.3836 42.1305 9.92733 46.3216 12.3995 48.4249C13.5535 49.4067 15.1091 50 16.725 50H43.8594V42.1305ZM10.042 44.279C9.98801 43.9339 9.9609 43.5852 9.96094 43.236V17.773C9.96094 15.9416 11.2921 14.3829 13.0612 14.0606V41.0774C11.6125 41.5982 10.5082 42.7646 10.042 44.279ZM43.419 19.405C42.7361 19.9393 42.7431 20.4999 42.5976 20.7413C42.5056 20.8939 42.3567 21.0038 42.1837 21.0467C42.0107 21.0895 41.8278 21.0619 41.6751 20.9699C40.3766 20.1864 38.6916 21.0051 38.5079 22.5112C38.4519 22.9707 38.5463 23.445 38.7925 23.8524C39.0255 24.2394 38.8164 24.7427 38.3777 24.8508C36.8972 25.2155 36.2989 26.995 37.228 28.1825C37.7623 28.8654 38.3229 28.8584 38.5643 29.0038C38.717 29.0959 38.8268 29.2448 38.8697 29.4178C38.9126 29.5908 38.885 29.7737 38.793 29.9264C38.0094 31.2249 38.8282 32.9099 40.3343 33.0936C40.7937 33.1496 41.268 33.0552 41.6755 32.809C42.0625 32.576 42.5658 32.7851 42.6739 33.2237C43.04 34.7104 44.8238 35.2981 46.0056 34.3735C46.6883 33.8392 46.6814 33.2787 46.8269 33.0371C46.9189 32.8845 47.0678 32.7747 47.2408 32.7318C47.4138 32.6889 47.5968 32.7165 47.7494 32.8085C49.048 33.5921 50.7328 32.7733 50.9167 31.2671C50.9728 30.8077 50.8783 30.3335 50.6322 29.926C50.3991 29.5389 50.6082 29.0357 51.0469 28.9276C52.5275 28.5629 53.1257 26.7835 52.1966 25.5958C51.6623 24.913 51.1017 24.9199 50.8603 24.7745C50.7077 24.6825 50.5978 24.5336 50.555 24.3606C50.5121 24.1876 50.5397 24.0046 50.6316 23.852C51.4151 22.5535 50.5964 20.8685 49.0903 20.6847C48.6309 20.6287 48.1566 20.7231 47.7492 20.9693C47.3623 21.2024 46.859 20.9933 46.7509 20.5546C46.3837 19.065 44.598 18.4825 43.419 19.405ZM41.2467 34.3912L39.3353 37.7019L38.5736 34.9025C38.5269 34.7303 38.4137 34.5838 38.2589 34.495C38.1042 34.4063 37.9205 34.3827 37.7483 34.4294L34.9462 35.17L37.1622 31.3318C37.3515 33.3653 39.2554 34.7765 41.2467 34.3912ZM52.1775 31.8355L54.0397 35.0611L51.2737 34.3314C50.8838 34.2157 50.5122 34.4261 50.4123 34.7936L49.6507 37.5929L47.76 34.3182L47.7757 34.288C49.6675 34.8978 51.6996 33.7818 52.1775 31.8355ZM41.6488 19.4906C38.9835 18.6312 36.4542 21.1604 37.3136 23.8257C35.1375 24.9442 34.7768 27.9223 36.6624 29.5178L33.0017 35.8584C32.6559 36.4166 33.1669 37.0277 33.7317 36.8789L37.4503 35.8978L38.46 39.6092C38.6148 40.1792 39.3912 40.2857 39.69 39.7669L42.3274 35.1987C42.7558 35.6111 43.2835 35.9059 43.8593 36.0543V40.7847H14.7597C14.6412 40.7847 14.5235 40.7887 14.4069 40.7967V14H43.8594V17.7239C42.9047 17.9688 42.0975 18.6174 41.6488 19.4906ZM48.1491 25.3115L44.6031 27.6077L41.0572 25.3115L44.6031 23.0153L48.1491 25.3115ZM47.2012 27.5234V29.279L44.6299 30.7874C43.7822 30.3004 42.8628 29.72 42.0052 29.2781V27.5235L44.2264 28.9619C44.3357 29.036 44.4643 29.0762 44.5963 29.0775C44.7283 29.0788 44.8577 29.0412 44.9684 28.9693L47.2012 27.5234ZM44.9799 21.6612L49.7483 24.7491C50.1545 25.0125 50.1593 25.6131 49.7378 25.8808L48.5468 26.6521V29.5092C48.5468 30.1441 48.1741 30.2622 47.8454 30.455L44.6376 32.3368L41.3663 30.4603C40.9292 30.2093 40.6596 30.0842 40.6596 29.5092V26.6521L39.458 25.874C39.0519 25.6106 39.0469 25.01 39.4685 24.7423L44.2379 21.6538C44.3486 21.5819 44.4781 21.5443 44.61 21.5456C44.742 21.5469 44.8707 21.5871 44.9799 21.6612ZM48.9283 27.1607C48.9312 26.9842 49.0034 26.8159 49.1292 26.6921C49.2551 26.5683 49.4246 26.4989 49.6011 26.4989C49.7777 26.4989 49.9471 26.5683 50.073 26.6921C50.1989 26.8159 50.271 26.9842 50.2739 27.1607V30.4808C50.271 30.6573 50.1989 30.8256 50.073 30.9494C49.9471 31.0732 49.7777 31.1426 49.6011 31.1426C49.4246 31.1426 49.2551 31.0732 49.1292 30.9494C49.0034 30.8256 48.9312 30.6573 48.9283 30.4808V27.1607Z" fill="#1E1A17"/>
</svg>
