<svg width="344" height="28" viewBox="0 0 344 28" fill="none" xmlns="http://www.w3.org/2000/svg">
<path d="M341.068 8.53705C340.467 8.55694 339.885 8.36803 339.334 8.28226L326.605 6.10183C326.244 6.05143 325.889 5.95837 325.549 5.82454C324.174 5.19346 322.687 4.83607 321.173 4.77244C319.895 4.71295 318.637 4.42855 317.458 3.93265C316.71 3.5416 315.878 3.33702 315.033 3.3364C312.695 3.02357 310.383 2.68386 308.021 2.3979C306.661 2.16858 305.283 2.0662 303.905 2.09206C302.849 2.16268 301.79 2.13689 300.739 2.01501C296.754 1.70483 292.872 1.33917 288.834 1.00472C287.525 0.918076 286.215 0.857461 284.828 0.82543C282.472 0.74749 280.067 0.749281 277.736 0.644467C274.437 0.493744 271.16 0.238162 267.835 0.0883031C265.876 0.153364 263.857 -0.0138561 261.844 0.000930913C259.832 0.0157269 257.43 0.147541 255.211 0.221278L255.219 0.481297C260.822 0.685687 266.498 0.757471 272.001 1.14735L272.009 1.35536L263.254 1.48996C265.481 1.73592 267.719 1.85279 269.96 1.83994C272.232 1.76446 273.337 2.74301 275.784 2.42744L274.702 2.15097L277.307 1.85619L276.483 1.44105C279.172 1.15913 281.889 1.2706 284.546 1.77191L282.126 2.11263L282.132 2.26863L286.693 2.61174L285.161 2.94895C291.032 3.71606 296.939 4.18024 302.857 4.33954C304.861 4.32847 306.857 4.58614 308.792 5.10562C305.397 5.21839 302.446 5.3164 299.516 5.25754C294.678 5.23603 289.864 5.13559 285.025 5.08807C281.73 5.06737 278.387 5.17843 275.092 5.13172C268.787 5.02876 262.529 4.76803 256.201 4.7179C249.165 4.63924 242.269 4.08736 235.117 4.42909C234.673 4.44376 234.229 4.45852 233.786 4.47328C230.095 4.36159 226.454 4.17016 222.695 4.32109C222.146 4.33927 221.598 4.35745 221.049 4.37572C217.357 4.21201 213.59 4.15486 209.804 4.30669C209.256 4.32487 208.682 4.34395 208.185 4.36051C204.411 4.19968 200.631 4.32523 196.877 4.73608C195.408 4.60261 194.25 4.38076 193.099 4.36699C189.071 4.31857 185.022 4.42702 181.018 4.29967C177.013 4.17241 172.599 4.29301 168.365 4.32955C164.735 4.45006 161.143 4.17889 157.506 4.0915C156.435 4.12705 155.364 4.1626 154.267 4.19905C152.439 4.2598 150.507 4.32397 148.784 4.38121C147.059 4.43845 144.623 4.28509 142.532 4.30255C138.797 4.42657 135.055 4.3426 131.342 4.33576C131.031 4.35376 130.719 4.31101 130.423 4.21012C129.673 3.87955 128.841 3.78025 128.034 3.925L120.852 4.16359L114.271 4.3822C112.548 4.43944 110.818 4.34071 109.042 4.37365C107.265 4.40668 105.046 4.5064 103.061 4.57237C101.494 4.62439 99.9729 4.49272 98.4044 4.49272C96.836 4.49281 95.4014 4.59253 93.9914 4.63933C91.7165 4.49326 89.4338 4.56913 87.1746 4.86577C86.6563 4.94515 86.1303 4.96261 85.6078 4.91779C84.0176 4.74796 82.4152 4.72276 80.8205 4.84255C80.2198 4.86244 79.6192 4.88242 79.0185 4.9024C77.321 4.95874 75.5354 4.73176 74.0494 4.8592C72.1168 4.92337 70.4193 4.9798 68.6173 5.03965C67.9201 5.02309 67.2225 5.04622 66.528 5.10904L64.4179 5.3353C62.7203 5.39173 60.9445 5.45068 59.3514 5.5036C57.7583 5.55652 55.8616 5.9059 54.6625 5.24287C54.6625 5.24287 54.323 5.25412 54.1402 5.26015C52.2598 5.32261 50.3848 5.54113 48.5089 5.73364C47.4381 5.76919 46.4266 6.01102 44.9955 6.21478C42.3973 5.82121 39.7601 5.75137 37.1448 6.00697C29.3153 6.42322 21.4823 6.73543 13.636 6.65767C11.2856 6.73579 10.1967 7.00624 9.65661 8.03935L11.7251 8.12692C10.0956 8.64955 10.8941 9.06562 11.5629 9.51193C15.0244 9.81352 15.0244 9.81343 15.1372 10.8249C17.4852 11.1752 19.8635 11.2794 22.2332 11.1359C27.1169 10.9737 32.0006 10.8114 36.9104 10.6484C39.8092 10.5521 42.7081 10.4559 45.6071 10.3596L45.5549 8.82541L39.4176 9.02926C37.2238 9.10207 35.0563 9.17416 32.8625 9.24697C30.8975 9.47548 28.9112 9.45406 26.9515 9.18298C45.4031 8.20567 63.826 7.15114 82.3519 6.8221C80.3096 6.73381 78.2447 6.75037 76.2041 6.71401C74.1909 6.6637 72.1765 6.73066 70.1713 6.91435C67.6414 7.08247 65.1011 7.01866 62.5826 6.72391C62.7679 6.60286 62.982 6.53293 63.2032 6.52105C66.52 6.41089 69.6955 5.99302 73.0689 6.01111C76.9916 6.03703 80.9037 5.75092 84.9517 5.61637C86.3097 5.57128 87.5704 5.73769 88.9589 5.82175C89.4812 5.80438 90.0034 5.78701 90.5259 5.76964L101.338 5.41054C101.599 5.4019 101.86 5.39317 102.121 5.38453C104.732 5.68855 107.373 5.6008 109.956 5.12425C110.251 5.09617 110.548 5.08636 110.844 5.09473C111.253 5.12767 111.666 5.11399 112.072 5.05396C114.176 4.69576 116.32 4.62457 118.444 4.84237C119.933 4.98952 121.435 4.93966 122.909 4.69396C123.981 4.61431 125.057 4.62214 126.126 4.71727C126.91 4.69126 127.726 4.84642 128.482 4.79521C132.217 4.67119 135.899 4.54888 139.638 4.55482C143.377 4.56076 146.958 4.546 150.619 4.52854C151.067 4.45474 151.524 4.43953 151.976 4.48345C153.565 5.05117 155.258 5.27023 156.94 5.12551C158.042 5.02426 159.15 4.98745 160.257 5.01535C161.327 4.9798 162.458 5.17654 163.501 5.08978C167.31 4.8331 170.936 5.38948 174.717 5.08168C175.589 5.00149 176.467 5.02471 177.334 5.15098C178.479 5.30758 179.639 5.32153 180.787 5.19247C183.951 4.82365 187.154 4.98115 190.267 5.65849C187.841 6.05359 185.362 5.97682 182.965 5.4325C182.984 6.00454 181.889 6.09301 180.739 6.10516C178.128 6.19192 175.511 6.12262 172.715 6.18949C171.371 6.17059 170.027 6.26743 168.699 6.47902C167.024 6.79681 165.324 6.96655 163.618 6.98626C159.465 7.12423 155.333 7.07923 151.204 7.13827C149.836 7.06465 148.464 7.11028 147.103 7.27444C145.49 7.61608 143.82 7.60051 142.213 7.22872C141.755 7.65937 141.206 7.98229 140.606 8.17336C140.007 8.36452 139.371 8.41906 138.747 8.33302C138.015 8.29261 137.281 8.317 136.553 8.40592C134.542 8.4727 132.516 8.85241 130.554 8.83945C129.226 8.79697 127.896 8.90227 126.591 9.15328L126.173 9.16723L126.603 8.7364C126.28 8.71507 125.957 8.72587 125.637 8.76853C124.307 9.19423 122.893 9.29476 121.516 9.06157C120.644 9.02791 119.772 9.05689 118.904 9.14833C114.223 9.68131 109.507 9.83791 104.801 9.61678C103.93 9.57484 103.056 9.60382 102.189 9.70354C99.9756 9.93331 97.7645 10.267 95.5206 10.4197C93.2777 10.5722 90.2974 10.5932 87.686 10.6799C87.1545 10.6417 86.6206 10.6594 86.0929 10.7328C85.0285 11.0904 83.8937 11.1905 82.7824 11.025C81.7639 11.0589 80.7454 11.0927 79.753 11.1256L63.3113 12.0102C56.7354 12.3848 50.1316 12.7083 43.5592 13.1869C36.9868 13.6655 31.0496 13.6024 24.8234 13.4969C23.6481 13.5359 22.492 13.3661 21.288 13.3279C19.6165 13.3835 17.9036 13.7528 17.7924 14.3292C17.6813 14.9055 18.2367 15.0954 18.4851 15.4776C18.7333 15.8598 19.268 16.2065 21.1258 16.2489C17.697 16.9095 14.3011 16.9962 11.2972 17.851L12.6795 19.2888C10.0679 19.3756 7.23944 19.2353 4.54419 19.1686C3.03003 18.9988 1.49921 19.0497 0 19.3195C0.189295 19.5956 0.408365 19.8502 0.653288 20.0788C1.68781 21.3901 3.0235 22.4349 4.54791 23.1253C5.39377 23.4393 6.28097 23.6291 7.1816 23.6886C11.1357 23.8696 15.1655 23.9701 19.1701 24.0974C19.9451 24.0405 20.7222 24.1757 21.432 24.4908C22.3655 25.0325 23.6097 25.4858 24.672 25.9711C24.672 25.9711 24.672 25.9711 24.6809 26.2311L22.6699 26.2979C26.3958 25.9139 26.4408 27.24 27.6372 27.825L31.5223 27.5137L37.2842 27.036C37.4409 27.0308 37.541 26.8973 37.7194 26.7612L35.0989 26.588L45.1926 25.8622L55.639 25.5152C56.5008 25.4866 57.3888 25.4571 58.7547 25.6461C59.2461 25.414 59.7801 25.2851 60.3236 25.267C60.8673 25.2489 61.4088 25.3422 61.9147 25.541C62.5248 25.5741 63.1365 25.5537 63.7429 25.4804L63.1604 25.2654C64.5436 24.9468 65.9633 24.812 67.3824 24.8649C68.9232 24.8136 69.2791 24.5155 68.8184 24.0361C67.4582 23.9209 66.091 24.1453 64.8402 24.6889L64.4437 23.791C68.9366 23.2554 73.474 23.1919 77.9806 23.6017C80.49 23.0082 83.0552 22.6786 85.634 22.6185C88.8662 22.329 92.2154 22.3999 95.5061 22.2907L112.055 21.5067C113.152 21.4702 114.302 21.4321 115.346 21.3973C118.49 21.5792 121.529 20.9837 124.644 21.0885C126.158 21.0382 127.725 20.9861 129.266 20.935C130.291 21.0296 131.323 20.8884 132.285 20.5223C131.15 20.2216 129.552 20.8734 128.535 20.2043L133.279 19.7864L135.707 20.4347C136.123 19.6138 137.749 19.7421 138.95 19.6762C143.18 19.5356 147.437 19.3942 151.662 19.0716C153.856 18.9988 156.049 18.9259 158.242 18.853L163.988 18.6622C166.72 18.7075 169.452 18.5298 172.153 18.1307C174.22 17.8135 176.328 17.9027 178.359 18.3931C177.952 18.5186 177.536 18.6108 177.114 18.6688C174.842 18.7442 172.548 18.9766 170.251 19.0789C163.905 19.2897 157.566 19.7086 151.221 19.9714C150.151 20.0069 149.896 20.1976 149.723 20.4898L160.169 20.1427C164.87 19.9866 169.526 19.2852 174.272 19.6743C176.666 19.3344 179.139 19.7989 181.532 19.4331C181.896 19.3949 182.263 19.3828 182.629 19.3967L190.681 19.3895L193.972 19.2803C195.826 19.2186 197.654 19.158 199.509 19.0963L199.5 18.8623C199.069 18.7609 198.629 18.6971 198.187 18.6717L191.005 18.9102L182.981 18.9945C181.833 19.0327 180.635 18.4477 181.013 18.0186C181.467 17.721 181.996 17.5589 182.54 17.5514C184.003 17.5028 184.277 17.8842 183.823 18.3939C183.823 18.3939 183.98 18.3886 184.145 18.6174C185.772 18.6742 187.399 18.4708 188.961 18.015C190.182 17.5947 191.467 17.3934 192.759 17.4202C192.897 17.4066 193.037 17.402 193.177 17.4064L192.017 17.9134L192.027 18.1995C196.582 18.2904 201.136 18.0172 205.647 17.3826L206.063 18.0717L218.867 17.8546C219.319 17.8815 219.774 17.8665 220.224 17.8095C221.555 17.4544 222.957 17.4709 224.278 17.857C226.551 17.3362 228.884 17.1273 231.212 17.2363L235.835 17.0827C237.713 17.0171 239.594 17.0852 241.463 17.2862L237.911 17.4042C238.777 17.5555 239.654 17.6222 240.533 17.6035C241.995 17.5549 243.484 17.5055 244.946 17.4569C246.814 17.6169 248.694 17.3859 250.466 16.7789C250.611 16.7472 250.762 16.7422 250.91 16.7641C251.528 16.9382 252.162 17.0479 252.803 17.0917C254.872 16.9176 256.952 16.9008 259.024 17.0413C260.827 16.9814 262.634 17.0776 264.649 17.1408L263.573 17.7753C266.498 17.6782 269.24 17.5871 271.809 17.8141C277.809 18.1615 284.048 17.8762 290.125 18.221C295.208 18.5467 300.596 18.602 305.647 18.7466C308.63 18.8297 311.638 18.834 314.646 18.8642C314.881 18.5961 315.105 18.3022 315.321 17.9827C318.867 18.1338 322.418 18.1027 325.96 17.8897L324.701 17.7753L324.853 17.6401L329.453 17.6174C327.603 17.2193 325.724 16.9683 323.833 16.867C318.334 16.6331 312.711 16.5856 307.313 16.2183C301.286 15.8197 294.991 15.9768 288.983 15.3694C285.993 15.0783 282.532 15.5836 279.508 15.0854C279.421 15.0754 279.334 15.0783 279.247 15.094L271.635 14.9824C270.322 14.9715 269.01 14.8935 267.706 14.7485C266.131 14.5925 264.284 14.8622 262.475 14.7139C261.36 14.7881 260.241 14.6667 259.168 14.3552C260.448 14.3127 261.258 14.2858 262.015 14.2607C264.815 14.3239 267.604 14.075 270.372 13.983C271.939 13.931 272.984 13.8964 273.007 14.5984L281.406 14.788L280.372 14.3538C282.187 13.877 281.932 14.8487 282.767 14.8209C283.366 14.5733 283.992 14.3953 284.632 14.2904C287.432 14.3536 290.257 14.4159 292.958 14.6386C293.977 14.8393 295.014 14.9271 296.052 14.9002C296.615 13.7622 299.326 14.3229 300.881 13.9068L301.289 14.3619C304.418 14.5312 307.555 14.427 310.665 14.0505L310.651 13.6604L315.254 13.6897C314.813 14.5634 315.444 14.6726 321.041 14.721L318.777 14.2495L325.698 14.0197L325.647 12.5376C328.945 12.6362 332.007 12.7167 335.019 12.877C335.501 12.9273 335.96 13.1104 336.343 13.4057C336.561 13.5518 336.809 13.6466 337.068 13.6831C337.327 13.7196 337.592 13.6968 337.842 13.6163C338.311 13.6006 338.611 13.1742 339.028 13.1343C340.333 13.091 339.408 13.5642 339.754 13.7349C340.099 13.9057 340.493 13.9447 341.021 14.1094L338.999 14.5931C341.34 15.0099 341.34 15.0099 342.681 14.4708L341.918 13.559C342.461 13.3847 343.189 13.2564 343.236 13.0987C343.571 12.4834 343.676 11.7698 343.534 11.0843C343.522 10.7463 343.2 10.4967 343.502 10.1482C343.803 9.79975 342.325 8.59942 341.068 8.53705ZM48.6115 7.21396C52.3686 6.54229 56.2037 6.41494 59.998 6.83578L48.6115 7.21396ZM12.6751 19.1589C13.4096 18.9169 14.2107 18.9746 14.9029 19.3191L12.6751 19.1589ZM197.839 5.35492L205.125 5.11291C204.16 5.59054 203.082 5.79736 202.008 5.71105C199.992 5.62186 197.855 5.84893 195.787 5.76145C194.105 5.96152 192.399 5.74084 190.824 5.11939C193.182 5.03416 195.543 5.11237 197.891 5.35321L197.839 5.35492ZM196.865 9.00568C195.916 9.20404 194.93 9.14698 194.009 8.84026C195.335 8.614 196.272 8.47873 196.865 9.00568ZM178.322 9.62164C179.759 9.57394 181.267 9.34156 182.962 9.20719C182.759 9.37018 182.69 9.65881 182.404 9.69427C179.487 10.0796 176.539 10.1775 173.603 9.98668C175.148 9.62542 176.739 9.5023 178.322 9.62164ZM168.32 9.95383C169.287 9.92179 169.678 9.90874 169.823 10.3205C168.262 10.6621 166.651 10.7157 165.07 10.4784C166.153 10.0259 167.25 9.98947 168.315 9.79786L168.32 9.95383ZM164.884 10.3804C164.126 10.4055 163.343 10.4316 162.643 10.611C161.29 10.797 159.918 10.7988 158.565 10.6163C160.637 10.0068 162.823 9.87202 164.957 10.2218L164.884 10.3804ZM156.866 10.6467L156.873 10.8547L155.233 11.0654L155.041 10.8114L156.866 10.6467ZM148.352 10.9295L148.613 10.9209L147.787 11.2346L147.363 11.0665L148.352 10.9295ZM141.447 10.8465C142.837 10.8248 144.227 10.8829 145.61 11.0206C144.264 11.4376 142.829 11.4853 141.458 11.1586C141.048 11.1241 140.636 11.1378 140.23 11.1993C140.621 11.0357 141.029 10.9174 141.447 10.8465ZM140.099 11.2037C140.319 11.5088 139.748 11.6318 139.068 11.6284L134.832 11.6129C136.557 11.2663 138.317 11.1379 140.074 11.2305L140.099 11.2037ZM134.649 11.619C133.548 11.9565 132.376 11.9954 131.254 11.7318L134.649 11.619ZM131.149 11.7352C130.718 11.9778 130.234 12.1129 129.738 12.1294C129.242 12.1459 128.75 12.0431 128.303 11.8298C129.19 11.607 130.112 11.5587 131.017 11.6876L131.149 11.7352ZM107.395 12.8626C110.398 12.7629 113.396 12.4811 116.424 12.3285C117.834 12.2817 119.297 12.2331 120.733 12.1854L123.11 12.1065C124.283 11.91 125.477 11.8704 126.661 11.9885C122.989 12.5826 119.276 12.9061 115.556 12.9561C111.821 13.0801 108.087 13.2042 103.863 13.5527C104.99 13.1436 106.17 12.8941 107.367 12.8115L107.395 12.8626ZM98.7048 13.3336L98.8687 13.5364C98.6675 13.6522 98.45 13.7384 98.2242 13.7921C96.4819 13.9695 94.7241 13.9317 92.9909 13.6796L98.7048 13.3336ZM90.5049 13.6059L90.5095 13.762L88.7078 13.8219L88.7026 13.6658L90.5049 13.6059ZM84.8374 13.7942L86.0206 13.9892L85.7917 14.1791L84.6347 13.9831C84.6347 13.9831 84.7338 13.8237 84.8103 13.7691L84.8374 13.7942ZM31.8123 19.1219L33.2487 19.0742L33.2558 19.2822L31.8123 19.1219ZM55.1649 24.6459C55.1649 24.6459 55.003 24.495 55.1596 24.4899L55.8126 24.4682C55.8126 24.4682 55.8126 24.4682 56.0268 24.6173L55.1649 24.6459ZM73.3675 21.7244L76.5798 21.6177C75.5836 21.9513 74.5092 21.9779 73.4973 21.6941L73.3675 21.7244ZM77.2929 21.8283C77.7612 21.5825 78.2796 21.4456 78.8088 21.428C79.3381 21.4104 79.8645 21.5126 80.3485 21.7268L77.2929 21.8283ZM99.5696 21.0884C99.4777 21.0826 99.3885 21.055 99.3102 21.0077C99.231 20.9606 99.1645 20.8951 99.1163 20.8171C99.3448 20.7412 99.5787 20.6813 99.8163 20.6376L100.349 20.9323C100.139 21.0136 99.9228 21.0732 99.7016 21.1101L99.5696 21.0884ZM109.989 19.9353C109.755 19.9558 109.519 19.9636 109.283 19.9587C109.283 19.9587 109.466 19.9527 109.571 19.9491L110.302 19.9248C110.378 19.8702 110.174 19.9812 110.12 19.957L109.989 19.9353ZM115.596 19.5147C116.637 19.1382 117.771 19.1005 118.834 19.4072C117.794 19.7837 116.659 19.8214 115.596 19.5147ZM120.029 20.7212C119.964 20.7177 119.9 20.6978 119.844 20.6632C119.788 20.6286 119.742 20.5806 119.709 20.5235C119.709 20.5235 119.97 20.5149 120.1 20.5106C120.231 20.5062 120.466 20.4984 120.812 20.6691C120.59 20.7213 120.362 20.7464 120.135 20.7437L120.029 20.7212ZM124.1 16.6291L126.711 16.5424L126.72 16.8024L124.1 16.6291ZM149.81 15.3846L148.21 15.2034L148.515 14.959L150.013 15.1956L149.81 15.3846ZM151.079 15.7849C151.417 14.9407 151.417 14.9407 153.493 15.2623L151.079 15.7849ZM157.19 15.582C157.536 15.404 157.916 15.305 158.305 15.292C158.693 15.2791 159.08 15.3527 159.437 15.5074L157.19 15.582ZM154.812 14.854C157.087 14.473 159.397 14.3352 161.701 14.4429C159.439 14.918 157.127 15.1085 154.818 15.01L154.812 14.854ZM173.539 15.0389C172.495 15.0737 171.398 15.11 170.326 15.1457C169.256 15.1812 168.003 15.2229 166.827 15.2619C165.652 15.3009 164.764 15.3304 163.746 15.3643C163.727 15.2525 163.723 15.1389 163.734 15.0262L176.478 14.6029C175.722 15.409 174.616 15.1854 173.544 15.195L173.539 15.0389ZM189.22 14.8565C185.688 14.7656 182.137 14.9096 178.608 14.9487C178.403 14.9186 178.2 14.8731 178.002 14.8126C179.033 14.4729 180.115 14.3051 181.201 14.3159C184.413 14.2091 187.626 14.1025 190.812 13.9966C191.157 14.0046 191.499 14.0456 191.836 14.1188C191.523 14.9101 190.272 15.0298 189.304 15.0099L189.22 14.8565ZM178.135 13.3243L181.216 13.222L178.222 13.6078L178.135 13.3243ZM181.732 13.7776L182.881 13.7394L183.096 13.9145L181.816 13.957L181.732 13.7776ZM201.791 14.6993C199.325 14.599 196.854 14.6811 194.4 14.9448C194.131 14.9815 193.86 14.9905 193.591 14.9716C193.225 14.9838 192.797 14.7116 192.713 14.5582C192.63 14.4048 193.198 14.2037 193.512 14.1933C194.843 14.149 196.123 14.1065 197.533 14.0597L201.947 13.9131L204.376 13.8324C203.926 14.4461 203.205 14.7824 201.712 14.7019L201.791 14.6993ZM205.526 14.5752L205.291 14.583L206.144 14.2944L206.43 14.2848L205.526 14.5752ZM209.392 17.5705C209.392 17.5705 209.073 17.399 209.124 17.3712C209.323 17.3454 209.524 17.3388 209.725 17.3513L209.939 17.5003L209.392 17.5705ZM211.99 17.0938C214.259 16.7056 216.569 16.629 218.859 16.8657C216.622 17.2842 214.337 17.3864 212.071 17.1692L211.99 17.0938ZM241.861 14.3835L240.681 14.2665C240.681 14.2665 240.884 14.1036 240.937 14.1018L242.059 14.0645L241.861 14.3835ZM244.235 17.2983L244.227 17.0903L246.656 17.0096L246.667 17.3216L244.235 17.2983ZM252.783 14.1769C251.686 14.2133 250.485 14.2532 249.31 14.2923C247.482 14.3529 247.324 14.3582 247.402 13.5486L252.625 13.3751L252.783 14.1769ZM250.967 10.7489C250.001 10.781 249.035 10.8132 247.982 10.6398C248.261 11.1252 248.261 11.1252 252.452 11.3505C251.248 11.6794 250.001 11.8261 248.753 11.7856C245.098 11.9071 241.41 11.8734 237.724 11.9177C236.471 11.9593 235.876 12.1353 236.101 12.6224C234.587 12.6727 234.472 12.3641 234.354 11.9776C233.1 12.0192 231.743 12.0643 230.567 12.1034C229.314 11.9619 228.047 12.004 226.806 12.2283C227.727 12.5325 228.704 12.6247 229.666 12.4978C230.534 12.4195 231.406 12.3905 232.277 12.411C229.445 12.7576 226.58 12.7391 223.751 12.3558C222.132 12.1991 220.499 12.2533 218.894 12.5171L220.466 12.6211C219.329 12.9554 218.125 12.9954 216.967 12.7374C216.505 12.2321 215.597 12.4444 214.761 12.4722C212.386 12.5511 210.035 12.6292 207.653 12.5521C206.844 12.579 206.007 12.6068 205.198 12.6337C204.669 12.6878 204.136 12.7054 203.605 12.6866C201.093 12.5001 198.567 12.6277 196.088 13.0665C195.487 13.0864 194.834 13.1081 193.92 13.1385C193.908 12.8004 194.081 12.5083 194.177 12.2188L193.785 12.2318C193.015 12.5282 192.216 12.7466 191.402 12.8837C189.47 13.1227 187.514 13.0825 185.593 12.7643C184.182 12.3913 182.693 12.4408 181.31 12.9066C178.172 12.4683 174.974 12.8253 172.011 13.9443C171.3 13.8265 170.581 13.7547 169.86 13.7294C169.704 13.7346 169.427 14.0561 169.147 14.2737L163.454 14.4628C164.264 13.681 166.212 14.0848 167.267 13.5813C165.397 13.3978 163.518 13.3472 161.64 13.4297C157.86 13.7375 154.05 13.9682 150.242 14.2249C149.617 14.2857 148.989 14.3065 148.361 14.2873C146.311 13.9498 144.207 14.2003 142.294 15.0095C141.524 14.6446 139.917 15.0884 139.249 14.6421C138.87 14.666 138.495 14.7308 138.131 14.8354C137.825 15.0798 137.783 15.3416 137.584 15.6606C135.574 15.9809 133.539 16.1095 131.505 16.0447C133.085 15.6018 134.822 15.9345 136.083 15.346C135.234 15.0852 134.331 15.0523 133.465 15.2507C131.598 15.584 129.699 15.7083 127.804 15.621C125.295 15.4336 122.775 15.7836 120.413 16.6474C117.556 16.4689 114.687 16.5642 111.848 16.932C110.112 17.0979 108.368 17.1558 106.624 17.1054L94.2198 17.5175C92.7834 17.5652 91.3206 17.6138 89.8841 17.6615L72.8216 17.968L51.2427 18.4765C50.7203 18.4938 50.198 18.5112 49.6757 18.5285L87.9184 15.9827L87.9105 15.7487C87.4748 15.7371 87.0387 15.7516 86.6047 15.792C81.3816 15.9655 75.9233 16.1468 70.5766 16.5327C66.4764 16.6689 62.385 17.0651 58.2883 17.3053C56.2774 17.3721 54.2403 17.4398 52.2294 17.5065C49.3828 17.6011 46.5449 17.9557 43.7289 18.1794C43.0126 18.2207 42.2994 18.3052 41.5935 18.4326C39.2196 18.7946 36.8149 18.9181 34.416 18.8011C36.3207 18.3083 38.2777 18.0423 40.2456 18.0087C40.9508 17.9853 41.7342 17.9593 42.4394 17.9358C49.3651 17.081 56.4642 16.7151 63.5354 16.298L80.6786 15.286L107.562 13.9245L120.793 13.1986L132.096 12.667L151.126 11.7745C157.681 11.5568 164.176 11.0807 170.754 10.8102C175.795 10.6427 180.861 10.4744 185.876 10.3079C189.846 10.176 193.711 10.0476 197.733 9.91405C198.361 9.86788 198.992 9.93511 199.596 10.1125L188.716 10.7862C190.057 11.0871 191.446 11.1119 192.797 10.859C196.813 10.5693 200.815 10.5927 204.81 10.4599L206.168 10.4148C210.268 10.2786 214.388 9.93349 218.486 9.7453C220.497 9.67852 222.508 9.61174 224.498 9.70183C225.111 9.65422 225.728 9.68626 226.332 9.79705C227.513 10.2256 228.805 10.2379 229.993 9.83161C232.475 9.35308 235.005 9.1729 237.531 9.29494C242.08 9.29998 246.634 9.43507 251.16 9.51904C251.336 9.5473 251.505 9.60319 251.663 9.68455C250.549 9.97453 249.397 10.0832 248.249 10.0062C249.984 10.2289 251.74 10.2491 253.48 10.0667C253.16 10.6501 252.146 10.8139 251.048 10.8243L250.967 10.7489ZM247.424 8.83612C245.126 8.91244 242.828 8.98876 240.55 8.88229C233.779 8.89894 227.051 8.65378 220.218 9.14113C219.248 9.16363 218.279 9.13501 217.312 9.05536C216.686 9.07624 216.059 9.09703 215.432 9.11782L207.806 9.37117L207.798 9.11116C223.46 8.38261 238.832 8.34058 254.609 8.67556C252.073 8.68168 249.778 8.83603 247.505 8.91154L247.424 8.83612ZM306.956 18.0263L309.56 17.7055L309.828 17.8789L309.031 18.2958L310.242 18.5419L309.986 18.7066L307.12 18.2291L306.956 18.0263ZM284.648 17.8302L281.037 17.7419C282.242 17.3214 283.565 17.38 284.729 17.9056L284.648 17.8302ZM274.019 17.4543L279.877 17.468L279.888 17.8061L274.002 17.7153L274.019 17.4543ZM271.822 17.3972L271.829 17.6312L269.453 17.7101C270.221 17.3656 271.082 17.2821 271.903 17.4726L271.822 17.3972ZM259.412 10.7547C259.397 10.3128 259.205 10.0588 259.09 9.72424C263.21 9.4051 266.813 10.0143 270.655 9.99082C266.918 9.99136 263.187 10.272 259.493 10.8302L259.412 10.7547ZM274.657 12.3569L274.651 12.1749L276.166 12.1246L274.657 12.3569ZM289.884 12.6582L289.879 12.5021L291.368 12.4527L291.372 12.6087L289.884 12.6582ZM302.485 13.385C302.667 13.3789 302.766 13.1934 302.845 13.2168C303.577 13.1926 304.542 13.1604 304.927 13.6943L302.485 13.385ZM307.98 13.5149L308.126 13.2236L310.593 13.4801L307.98 13.5149ZM333.205 11.8179L332.254 11.5371L332.541 11.5276L333.492 11.8084L333.205 11.8179ZM140.477 20.0159C139.541 20.0188 138.612 20.1638 137.721 20.4459C136.349 21.0216 134.869 21.2928 133.381 21.2408C132.571 21.2677 131.762 21.2946 130.953 21.3215C133.392 21.4357 135.838 21.3544 138.265 21.0786C140.965 20.6569 143.697 20.4703 146.43 20.521C146.972 20.4612 147.504 20.3298 148.011 20.1301C147.605 20.0352 147.191 19.9706 146.775 19.9368C144.766 20.0296 142.647 20.0219 140.558 20.0913L140.477 20.0159ZM16.9321 10.5571C16.8148 10.9515 16.7461 11.2401 16.6036 11.6613C19.4051 11.7765 22.1004 11.8432 25.1811 11.7149L22.2349 11.1879L23.5275 10.7546L16.9321 10.5571ZM112.072 22.7556L125.428 21.8694C120.96 21.838 116.496 22.1342 112.072 22.7556ZM266.076 20.6598L260.293 20.5134C262.197 20.9067 264.156 20.9562 266.076 20.6598ZM239.503 0.378607L244.056 0.51367C242.577 0.0680261 241.006 0.021433 239.503 0.378607ZM86.0456 23.9586L86.0509 24.1145L92.0579 23.915L92.0488 23.655L86.0456 23.9586ZM321.194 19.2194C319.011 19.0032 316.816 18.9456 314.626 19.0471C316.876 19.4037 319.164 19.459 321.429 19.2116L321.194 19.2194ZM301.087 14.5768C299.417 14.1493 297.659 14.2077 296.02 14.7451C297.79 14.8254 299.562 14.7752 301.323 14.595L301.087 14.5768ZM266.033 18.6047L262.115 18.7349C263.552 18.7132 264.621 19.3805 266.268 18.6229L266.033 18.6047ZM102.075 6.32323L97.4468 6.32071L97.455 6.5548L102.182 6.39775L102.075 6.32323ZM92.7352 6.16483L89.1576 6.28372C90.3256 6.61006 91.5663 6.56893 92.7097 6.16573L92.7352 6.16483ZM209.685 18.498L206.714 18.7789C207.704 19.0679 208.768 18.9673 209.685 18.498ZM247.351 0.508378L249.466 0.438115C249.12 0.245128 248.729 0.150052 248.333 0.163201C247.937 0.17635 247.552 0.297229 247.221 0.512716L247.351 0.508378ZM100.84 7.69186L100.832 7.45786L98.7431 7.52725L100.84 7.69186ZM214.742 18.8246L219.338 18.672L214.916 18.5585L214.742 18.8246ZM223.186 18.7784L223.178 18.5444L219.939 18.652L223.186 18.7784ZM7.17355 24.9905L9.66343 25.1681L9.78869 25.0078L7.16736 24.8085L7.17355 24.9905ZM85.2025 7.61257L82.5909 7.69933L82.5962 7.8553L85.2078 7.76854L85.2025 7.61257ZM257.865 1.40864L255.124 1.49973L255.131 1.70775L257.743 1.621L257.865 1.40864ZM26.2009 12.488L26.5926 12.4749L25.2347 12.5201L24.3206 12.5504L24.8168 12.534L26.2009 12.488ZM18.514 12.4829L19.7414 12.4422L19.7344 12.2342L18.533 12.2741L18.514 12.4829ZM71.5195 8.11909L69.378 8.19028L71.5456 8.11828L71.5195 8.11909ZM252.294 0.578452L252.289 0.422446L250.957 0.46669L251.121 0.669487L252.294 0.578452ZM89.0539 7.84909L90.1991 7.68088L89.0234 7.71994L89.0539 7.84909ZM289.756 15.0313L289.75 14.8753L288.465 14.7618L288.47 14.9178L289.756 15.0313ZM70.1958 24.5631L70.6345 24.3924L70.295 24.4036C70.295 24.4036 70.2706 24.4565 70.2481 24.5614L70.1958 24.5631ZM147.739 12.8763C148.266 13.0543 148.814 13.1587 149.37 13.1865C151.016 13.1318 152.687 13.0764 154.306 13.0226C155.925 12.9687 155.593 13.2141 155.758 13.4429L161.513 12.7572L160.718 12.4451L164.473 12.1642L164.465 11.9301C158.86 12.4027 153.233 12.2252 147.79 12.8745L147.739 12.8763ZM107.18 14.9784C107.511 15.0072 107.844 14.9962 108.172 14.9455C111.149 14.8466 114.093 14.5405 117.07 14.4156C119.211 14.3445 121.379 14.2725 123.499 14.3583C123.867 14.4028 124.239 14.3736 124.595 14.2723C124.951 14.1711 125.283 13.9999 125.571 13.7688L107.297 14.5841C107.252 14.71 107.23 14.843 107.232 14.9767L107.18 14.9784ZM235.854 10.7043C234.679 10.7433 233.503 10.7824 231.596 10.8457C232.173 11.0711 232.776 11.2259 233.39 11.3067C236.811 11.1931 240.259 11.0786 243.685 11.121C243.002 10.9585 242.309 10.851 241.609 10.7995C239.751 10.7571 237.841 10.7164 235.907 10.7286L235.854 10.7043ZM180.26 11.2493C182.984 11.3902 185.714 11.2297 188.401 10.7707C185.695 10.5892 182.976 10.7583 180.313 11.2736L180.26 11.2493ZM138.301 13.6583L138.282 13.1123L132.257 13.5467C134.276 13.8341 136.323 13.8797 138.353 13.6826L138.301 13.6583ZM190.051 11.6009L181.38 11.8889L190.103 11.5992L190.051 11.6009ZM226.357 11.3061L230.561 11.1664C228.11 10.5711 228.11 10.5711 226.41 11.3304L226.357 11.3061ZM192.223 12.4399L186.721 12.857C188.582 13.113 190.478 12.9612 192.274 12.4122L192.223 12.4399ZM220.507 11.5004C221.998 11.7651 223.528 11.7142 224.999 11.3512C224.912 11.3358 224.823 11.3388 224.737 11.3599L220.507 11.5004ZM141.535 13.4467C142.657 13.4898 143.781 13.3737 144.87 13.1017C143.746 12.9708 142.607 13.0886 141.535 13.4467ZM212.509 11.5838L212.522 11.9739L215.128 11.7051L215.121 11.4971L212.509 11.5838ZM131.056 13.5866L128.449 13.8034C128.858 13.9371 129.293 13.978 129.721 13.9233C130.149 13.8686 130.559 13.7194 130.922 13.487L131.056 13.5866ZM198.41 12.9112L200.629 12.8375C200.296 12.5716 199.884 12.4246 199.457 12.4199C199.03 12.4152 198.614 12.5531 198.275 12.8116L198.41 12.9112ZM201.206 12.1155L201.212 12.2715L202.961 12.2134L202.956 12.0573L201.206 12.1155ZM245.764 9.98461L247.931 9.91261C247.187 9.77995 246.418 9.89695 245.747 10.2455L245.764 9.98461ZM245.991 10.4977L243.938 10.8783C244.627 11.0833 245.366 11.0404 246.025 10.7569L245.991 10.4977Z" fill="#F5D193"/>
</svg>
